<?xml version="1.0" encoding="UTF-8" standalone="no"?>
<!-- Generator: Adobe Illustrator 27.5.0, SVG Export Plug-In . SVG Version: 6.00 Build 0)  -->

<svg
   version="1.1"
   x="0px"
   y="0px"
   viewBox="0 0 500 500"
   style="enable-background:new 0 0 500 500;"
   xml:space="preserve"
   id="svg795"
   sodipodi:docname="19895426_6166435.svg"
   inkscape:version="1.4 (e7c3feb100, 2024-10-09)"
   xmlns:inkscape="http://www.inkscape.org/namespaces/inkscape"
   xmlns:sodipodi="http://sodipodi.sourceforge.net/DTD/sodipodi-0.dtd"
   xmlns="http://www.w3.org/2000/svg"
   xmlns:svg="http://www.w3.org/2000/svg"><defs
   id="defs795" /><sodipodi:namedview
   id="namedview795"
   pagecolor="#ffffff"
   bordercolor="#000000"
   borderopacity="0.25"
   inkscape:showpageshadow="2"
   inkscape:pageopacity="0.0"
   inkscape:pagecheckerboard="0"
   inkscape:deskcolor="#d1d1d1"
   inkscape:zoom="0.8044534"
   inkscape:cx="306.41924"
   inkscape:cy="279.07148"
   inkscape:window-width="1536"
   inkscape:window-height="795"
   inkscape:window-x="0"
   inkscape:window-y="0"
   inkscape:window-maximized="1"
   inkscape:current-layer="svg795" />

<g
   id="Background_Simple"
   style="display:none;">
	<path
   style="display:inline;fill:#F5F5F5;"
   d="M430.034,148.446l-2.15-3.543c-18.122-29.864-50.888-47.866-85.434-45.682   c-4.441,0.281-8.862,0.882-13.225,1.816c-31.409,6.723-58.739,30.475-70.067,60.894c-6.662,17.89-8.524,38.488-21.166,52.688   c-16.454,18.481-44.389,19.061-68.949,18.296c-24.56-0.766-52.513-0.113-68.887,18.441c-10.255,11.62-13.514,28.144-12.687,43.706   c2.189,41.2,30.898,78.038,67.408,96.349c36.51,18.311,79.497,19.951,119.455,11.896c55.977-11.284,109.21-42.272,141.207-90.134   C447.537,265.311,455.635,200.104,430.034,148.446z"
   id="path706" />
	
		<ellipse
   transform="matrix(0.2363 -0.9717 0.9717 0.2363 -13.4424 219.0214)"
   style="display:inline;fill:#F5F5F5;"
   cx="132.609"
   cy="118.062"
   rx="64.616"
   ry="64.616"
   id="ellipse706" />
</g>

<g
   id="Character">
	<g
   id="g795">
		<g
   id="g769">
			<path
   style="fill:#263238;"
   d="M167.79,88.945c-5.49,0.559-10.408,4.822-11.743,10.176c-0.326,1.309-0.482,2.725-1.301,3.796     c-1.054,1.378-2.895,1.81-4.471,2.534c-4.275,1.965-7.022,6.826-6.501,11.501c-3.327,0.924-6.842,1.96-9.156,4.523     c-2.314,2.563-2.697,7.178,0.137,9.151c-5.133,3.704-5.4,12.428-0.504,16.439c-6.116,3.135-9.889,10.313-9.002,17.128     c-3.169,0.971-6.575,2.109-8.473,4.826c-1.899,2.717-1.048,7.45,2.207,8.077c-2.07,3.409-1.062,8.338,2.181,10.66     c-3.787,1.909-4.557,7.906-1.375,10.71c3.182,2.804,9.034,1.286,10.452-2.711c0.899,3.851,3.897,7.143,7.647,8.398     c-2.38,4.811-1.391,11.075,2.356,14.919c-3.305,1.166-5.231,5.26-4.024,8.55c1.208,3.29,5.325,5.165,8.6,3.916     c0.576,3.22,1.473,6.519,3.611,8.995c2.138,2.475,5.816,3.882,8.792,2.524c-2.045,5.149-1.938,11.502,1.635,15.736     c1.034,1.226,2.307,2.224,3.57,3.212c2.621,2.053,5.243,4.105,7.864,6.158c2.504,1.961,6.427,3.824,8.461,1.379     c3.777,6.019,13.407,7.134,18.46,2.138c2.908,6.495,11.757,7.056,18.86,6.627c2.249-0.136,4.62-0.311,6.488-1.573     c2.921-1.973,3.666-5.874,5.495-8.887c1.001-1.649,2.359-3.067,3.273-4.765c2.387-4.438,1.021-10.535-3.031-13.531     c4.082-5.9,3.081-13.798,1.912-20.877c-1.005-6.083-2.094-12.382-5.57-17.474c-0.506-0.741-1.085-1.527-1.057-2.424     c0.037-1.193,1.101-2.051,1.987-2.851c4.462-4.026,6.21-10.8,4.254-16.483c-0.579-1.682-1.464-3.383-1.178-5.138     c0.234-1.439,1.217-2.623,2.094-3.788c4.275-5.686,6.278-14.726,0.821-19.29c7.237-6.091,9.27-17.532,4.573-25.743     c7.141-4.544,9.347-15.307,4.569-22.293c2.777-3.553,5.663-7.364,6.133-11.849c0.47-4.485-2.613-9.651-7.123-9.644     c1.984-2.091,1.648-5.61,0.03-7.994c-1.618-2.385-4.202-3.902-6.699-5.341c-3.751-2.162-7.68-4.379-12.002-4.634     c-4.322-0.255-9.131,2.113-10.154,6.32c-0.481-2.291-3.135-3.576-5.465-3.355c-2.331,0.221-4.392,1.542-6.349,2.826     c-3.337-4.937-12.242-4.076-14.571,1.409c-4.511-4.103-13.112-1.364-14.419,4.592"
   id="path708" />
			<path
   style="fill:#263238;"
   d="M374.207,131.521c-1.741-4.234-6.508-6.555-11.076-6.87c2.705-3.362,1.3-8.84-2.216-11.341     c-3.516-2.501-8.373-2.42-12.387-0.837c1.469-5.062-0.863-10.763-4.981-14.053c-4.118-3.29-9.697-4.371-14.934-3.783     c1.702-4.341,0.784-9.597-2.288-13.105c-3.072-3.508-8.161-5.11-12.689-3.995c-1.012-3.571-4.702-5.857-8.38-6.357     c-3.678-0.5-7.384,0.43-10.979,1.353c-1.872-5.987-7.378-10.671-13.587-11.56c-6.209-0.889-12.808,2.063-16.284,7.285     c-8.982-4.227-26.866,0.532-26.866,13.319l40.07,178.528c3.996,3.222,12.56,8.134,28.525,8.122     c5.133-0.004,17.284-9.297,16.458-14.363c7.896-0.642,14.471-8.472,13.737-16.36c4.951,1.745,9.166-3.851,11.455-8.575     c1.185-2.445-0.565,0.843,0.745-1.537c3.855-7.003,1.232-14.375-0.624-16.214c2.979,0.585,8.643,1.434,11.753-4.024     c1.287-2.259,0.095-8.129,0.095-8.129c0.614-2.735,1.714-4.11,2.258-6.86c0.544-2.75-0.062-6.065-2.488-7.468     c4.001-0.546,9.044-2.164,9.205-6.199c0.071-1.79-0.958-3.475-0.958-5.267c0-1.33,0.566-2.588,0.824-3.893     c1.235-6.229-4.415-11.483-9.48-15.314c2.718-1.068,5.52-2.19,7.578-4.261c2.059-2.071,3.184-5.367,1.888-7.984     C373.158,141.632,375.949,135.755,374.207,131.521z"
   id="path709" />
			<g
   id="g742">
				<g
   id="g741">
					<g
   id="g722">
						<path
   style="fill:#AE7461;"
   d="M286.628,266.503c-0.807-10.303-1.919-23.212-1.915-23.165c0,0,23.811-4.058,28.616-35.167        c2.389-15.471,1.505-40.818,0.112-61.533c-1.254-18.646-18.643-43.11-41.681-41.829l-10.307-0.584l-38.264,17.894        c-5.643,0.621-9.873,5.457-9.736,11.133l7.414,139.161l26.685,36.458l39.581-26.638L286.628,266.503z"
   id="path710" />
						<path
   style="fill:#6F4439;"
   d="M266.827,203.707c0.117-1.632,0.933-3.116,2.022-4.168c2.18-2.102,5.523-2.492,8.079-0.942        c2.557,1.55,4.17,4.943,3.898,8.202l0,0c-1.266,1.977-3.301,3.381-5.624,3.722c-0.362,0.053-0.725,0.087-1.092,0.1        c-1.774,0.059-3.611-0.433-5.04-1.659C267.642,207.738,266.682,205.72,266.827,203.707z"
   id="path711" />
						<path
   style="fill:#263238;"
   d="M301.088,172.015c0.083,2.106-1.631,3.912-3.828,4.039c-2.192,0.127-4.042-1.472-4.125-3.577        c-0.083-2.105,1.631-3.914,3.823-4.041C299.156,168.308,301.005,169.911,301.088,172.015z"
   id="path712" />
						<path
   style="fill:#263238;"
   d="M306.103,157.414c-0.492,0.522-3.522-1.7-7.813-1.671c-4.286-0.032-7.425,2.189-7.893,1.665        c-0.23-0.232,0.271-1.172,1.636-2.176c1.346-0.999,3.644-1.975,6.316-1.976c2.672,0.004,4.925,0.979,6.221,1.979        C305.894,156.242,306.345,157.181,306.103,157.414z"
   id="path713" />
						<path
   style="fill:#263238;"
   d="M281.533,192.58c-0.021-0.243,2.644-0.715,6.963-1.287c1.095-0.118,2.131-0.34,2.313-1.088        c0.255-0.793-0.208-1.972-0.745-3.244c-1.042-2.647-2.131-5.422-3.276-8.329c-4.549-11.858-7.848-21.612-7.369-21.79        c0.48-0.18,4.557,9.287,9.106,21.146c1.095,2.924,2.143,5.712,3.139,8.379c0.421,1.243,1.139,2.653,0.587,4.298        c-0.292,0.82-1.093,1.417-1.795,1.61c-0.702,0.217-1.317,0.231-1.86,0.267C284.248,192.793,281.551,192.823,281.533,192.58z"
   id="path714" />
						<path
   style="fill:#6F4439;"
   d="M284.712,243.338c0,0-20.909,1.438-41.683-10.929c0,0,11.183,21.502,42.287,18.461        L284.712,243.338z"
   id="path715" />
						<path
   style="fill:#263238;"
   d="M268.919,195.601c0.697-0.044,0.726,4.613,4.727,7.902c3.992,3.299,8.954,2.755,8.993,3.406        c0.066,0.292-1.102,0.91-3.196,0.975c-2.055,0.079-5.06-0.569-7.507-2.58c-2.441-2.016-3.498-4.717-3.665-6.627        C268.086,196.732,268.6,195.575,268.919,195.601z"
   id="path716" />
						<g
   id="g717">
							<path
   style="fill:#263238;"
   d="M306.13,147.879c-0.717,1.051-4.005,0.364-7.842,0.7c-3.847,0.212-7.013,1.359-7.861,0.42         c-0.378-0.459,0.037-1.482,1.363-2.542c1.306-1.055,3.569-2.036,6.21-2.226c2.641-0.186,5.011,0.464,6.442,1.324         C305.897,146.416,306.442,147.37,306.13,147.879z"
   id="path717" />
						</g>
						<path
   style="fill:#263238;"
   d="M253.881,172.763c0.013,2.107,1.808,3.833,4.009,3.859c2.196,0.027,3.97-1.655,3.957-3.762        c-0.014-2.107-1.809-3.835-4.004-3.861C255.641,168.971,253.867,170.656,253.881,172.763z"
   id="path718" />
						<path
   style="fill:#263238;"
   d="M249.058,159.183c0.515,0.499,3.44-1.859,7.728-2.028c4.28-0.229,7.518,1.846,7.961,1.301        c0.219-0.242-0.324-1.158-1.734-2.099c-1.39-0.937-3.731-1.807-6.4-1.685c-2.67,0.126-4.875,1.204-6.124,2.263        C249.213,158.002,248.805,158.96,249.058,159.183z"
   id="path719" />
						<g
   id="g720">
							<path
   style="fill:#263238;"
   d="M250.819,145.328c0.885,0.938,4.151-0.21,8.125-0.423c3.967-0.338,7.372,0.348,8.105-0.703         c0.32-0.509-0.252-1.462-1.762-2.322c-1.488-0.857-3.944-1.507-6.674-1.32c-2.729,0.192-5.061,1.172-6.402,2.227         C250.847,143.846,250.427,144.869,250.819,145.328z"
   id="path720" />
						</g>
						<path
   style="fill:#AE7461;"
   d="M221.855,185.011c-0.015-2.315-2.714-7.762-5.003-8.109c-6.11-0.926-17.113-0.389-17.15,15.118        c-0.049,21.197,21.243,16.875,21.281,16.267C221.015,207.811,221.908,193.005,221.855,185.011z"
   id="path721" />
						<path
   style="fill:#6F4439;"
   d="M215.155,200.529c-0.093-0.068-0.37,0.258-0.994,0.542c-0.61,0.276-1.658,0.467-2.761,0.05        c-2.237-0.827-4.114-4.387-4.208-8.208c-0.05-1.93,0.358-3.765,1.045-5.285c0.651-1.549,1.656-2.63,2.785-2.827        c1.122-0.257,1.918,0.42,2.177,1.015c0.283,0.594,0.147,1.018,0.259,1.053c0.059,0.054,0.456-0.353,0.287-1.228        c-0.087-0.422-0.334-0.923-0.832-1.332c-0.507-0.414-1.254-0.627-2.041-0.544c-1.635,0.11-3.109,1.61-3.865,3.278        c-0.845,1.675-1.349,3.739-1.294,5.906c0.125,4.272,2.303,8.273,5.365,9.167c1.489,0.392,2.735-0.055,3.379-0.553        C215.116,201.042,215.228,200.567,215.155,200.529z"
   id="path722" />
					</g>
					<g
   id="g731">
						<g
   id="g730">
							<g
   id="g729">
								<g
   id="g728">
									<g
   id="g727">
										<g
   id="g726">
											<g
   id="g725">
												<g
   id="g724">
													<g
   id="g723">
														<path
   style="fill:#E0E0E0;"
   d="M203.624,199.792c0,0-1.149,0.358-2.83,1.691c-1.644,1.308-3.796,3.855-4.516,7.686                c-0.38,1.887-0.36,4.055,0.242,6.255c0.638,2.179,1.822,4.372,3.582,6.227c1.735,1.868,4.032,3.416,6.694,4.26                c2.653,0.864,5.675,0.908,8.507,0.06c2.834-0.838,5.361-2.445,7.207-4.539c1.866-2.085,2.984-4.659,3.363-7.187                c0.747-5.111-1.201-9.793-3.934-12.49c-1.4-1.364-2.979-2.165-4.381-2.737c-1.413-0.567-2.712-0.829-3.778-0.925                c-1.068-0.089-1.906-0.008-2.454,0.122c-0.548,0.132-0.818,0.256-0.811,0.272c0.013,0.086,1.147-0.386,3.236-0.111                c1.032,0.137,2.289,0.432,3.652,1.021c1.35,0.589,2.872,1.412,4.168,2.722c2.575,2.629,4.387,7.148,3.636,12.023                c-0.383,2.412-1.452,4.835-3.232,6.812c-1.762,1.985-4.178,3.517-6.878,4.314c-2.702,0.806-5.557,0.77-8.083-0.041                c-2.535-0.794-4.744-2.262-6.42-4.04c-1.701-1.766-2.854-3.855-3.49-5.933c-0.597-2.09-0.65-4.169-0.316-5.993                c0.628-3.7,2.638-6.216,4.192-7.562C202.566,200.331,203.669,199.871,203.624,199.792z"
   id="path723" />
													</g>
												</g>
											</g>
										</g>
									</g>
								</g>
							</g>
						</g>
					</g>
					<g
   id="g740">
						<g
   id="g739">
							<g
   id="g738">
								<g
   id="g737">
									<g
   id="g736">
										<g
   id="g735">
											<g
   id="g734">
												<g
   id="g733">
													<g
   id="g732">
														<path
   style="fill:#263238;"
   d="M254.704,111.572c-14.353-0.002-28.701,2.81-41.991,8.232                c-3.96,1.615-8.052,3.655-10.269,7.314c-1.948,3.216-2.13,7.178-2.029,10.937c0.317,11.774,5.276,26.117,9.931,36.937                l14.839,8.58c11.284-2.851,5.788-22.325,5.093-32.117c7.851-3.589,13.238-12.006,13.209-20.639                C249.896,126.566,254.164,119.243,254.704,111.572z"
   id="path731" />
													</g>
												</g>
											</g>
										</g>
									</g>
								</g>
							</g>
						</g>
					</g>
				</g>
			</g>
			<path
   style="fill:#263238;"
   d="M250.516,105.951c-4.702-0.437-9.558,1.954-12.079,5.947c-2.521,3.993-2.592,9.405-0.176,13.463     c-5.12,0.624-9.43,5.315-9.619,10.469c-0.189,5.154,3.765,10.149,8.825,11.147c-3.041,1.285-5.047,4.534-5.152,7.834     c-0.104,3.299,1.557,6.535,4.096,8.643c1.789,1.485,4.093,2.47,6.41,2.27c2.317-0.2,4.572-1.762,5.184-4.006     c0.612-2.243-0.816-4.956-3.103-5.372c3.162-0.802,4.958-4.398,4.79-7.656c-0.168-3.258-1.823-6.232-3.499-9.031     c3.448-1.938,3.905-7.563,0.813-10.032c4.948-0.609,9.345-4.436,10.629-9.254c0.313-1.173-0.523-3.049-1.485-2.309     c3.48-1.06,5.515-5.423,4.091-8.771"
   id="path742" />
			<path
   style="fill:#263238;"
   d="M324.286,153.72c1.612-8.803-2.783-15.652-9.254-21.834c5.101-8.665,2.458-21.039-5.739-26.863     c0.864-3.741-0.619-7.922-3.647-10.283c-3.028-2.361-7.444-2.779-10.862-1.028c-2.841-3.594-5.897-7.35-10.19-8.95     c-4.293-1.6-10.123-0.004-11.441,4.384c-4.175-6.678-14.91-7.841-20.417-2.211c-5.689-2.736-13.389,2.724-12.689,8.998     l7.326,9.967c-3.564,2.33-5.401,7.02-4.368,11.151c1.033,4.131,4.862,7.404,9.104,7.781c-1.714,4.802-0.394,10.546,3.246,14.118     c1.695,1.663,5.287,2.341,5.834,0.03c1.694,2.162,5.571,0.302,6.108-2.392c0.537-2.694-0.992-5.323-2.459-7.646     c2.631,0.921,5.856-0.516,6.932-3.087c1.076-2.571-0.166-5.877-2.668-7.104c2.243,0.157,4.486,0.315,6.728,0.472     c-0.466,3.356,0.172,7.031,2.473,9.519c2.301,2.487,6.486,3.323,9.176,1.264c-1.716,6.515,4.404,13.788,11.116,13.21     c0,0,3.423,1.277,5.091-2.745c1.669-4.023,0-8.992,0-8.992s1.432,11.693,6.401,12.945c1.848,0.466,3.007,2.802,3.732,5.552     C315.03,154.559,320.452,156.508,324.286,153.72L324.286,153.72z"
   id="path743" />
			<path
   style="fill:#263238;"
   d="M229.406,177.694c4.017-1.972,4.946-8.253,1.671-11.303c3.02-3.45,1.558-9.72-2.677-11.478     c2.654-3.758,3.134-9.039,0.891-13.056c-2.242-4.017-7.233-6.402-11.7-5.302c-4.467,1.1-7.838,5.802-7.139,10.349l2.023,20.66     c-1.228,1.209-1.351,3.368-0.268,4.708c1.083,1.341,3.219,1.674,4.659,0.728c-2.088,2.539-2.762,6.171-1.726,9.291     c0.351,1.057,0.943,2.113,1.936,2.62c0.591,0.302,1.338,0.314,1.938,0.063c-1.589,2.032-1.356,5.449,0.772,7.021     c2.477,1.829,6.596,0.476,7.504-2.466c1.262,1.092,3.354,0.681,4.504-0.528c1.15-1.209,1.524-2.968,1.557-4.636     C233.408,181.559,232.151,178.275,229.406,177.694z"
   id="path744" />
			<g
   id="g745">
				<path
   style="fill:#455A64;"
   d="M316.821,163.485c0.006-0.038,0.558,0.121,1.631,0.111c1.058-0.025,2.691-0.271,4.422-1.373      c0.854-0.548,1.73-1.302,2.434-2.323c0.692-1.02,1.225-2.305,1.295-3.755c0.102-1.441-0.23-3.013-0.985-4.471      c-0.77-1.442-2-2.791-3.658-3.562l-0.265-0.123l0.232-0.177c2.688-2.049,3.875-6.251,2.55-10      c-0.63-1.865-1.966-3.589-3.848-4.526c-0.933-0.458-2.001-0.727-3.048-0.598c-0.522,0.062-1.033,0.233-1.469,0.514      c-0.43,0.296-0.811,0.688-1.065,1.157c-0.55,0.911-0.531,2.172,0.249,2.918c0.768,0.742,2.04,0.823,3.089,0.459      c1.098-0.34,1.891-1.264,2.274-2.372c0.402-1.101,0.422-2.336,0.288-3.545c-0.27-2.432-1.258-4.83-2.884-6.771      c-0.816-0.952-1.795-1.821-2.965-2.292c-1.158-0.481-2.488-0.516-3.655-0.007l-0.674,0.294l0.343-0.651      c1.772-3.365,2.31-7.766,0.689-11.543c-0.605-1.343-1.475-2.564-2.593-3.482c-1.115-0.929-2.471-1.533-3.861-1.864      c-2.772-0.687-5.889-0.016-7.772,2.019l-0.4-0.315c1.043-1.544,0.837-3.61-0.025-5.187c-0.855-1.602-2.31-2.869-4.002-3.374      c-1.701-0.534-3.518-0.487-5.216-0.132c-1.706,0.357-3.32,0.998-4.833,1.753l-0.382,0.19l0.044-0.425      c0.247-2.387-0.628-4.743-2.062-6.482c-1.429-1.757-3.482-2.909-5.585-3.117c-2.107-0.217-4.184,0.399-5.817,1.477      c-1.643,1.078-2.867,2.625-3.471,4.311l-0.1,0.281l-0.201-0.22c-2.573-2.815-6.012-4.058-8.968-4.353      c-2.994-0.324-5.593,0.268-7.537,1.037c-1.959,0.792-3.262,1.818-4.095,2.538c-0.406,0.374-0.68,0.697-0.885,0.894      c-0.199,0.202-0.304,0.304-0.311,0.298c0,0,0.356-0.461,1.127-1.266c0.818-0.75,2.116-1.813,4.09-2.645      c1.959-0.808,4.59-1.438,7.64-1.137c1.524,0.112,3.131,0.531,4.725,1.22c1.589,0.698,3.165,1.734,4.48,3.174l-0.301,0.061      c0.62-1.77,1.889-3.389,3.594-4.52c1.695-1.13,3.854-1.787,6.075-1.569c4.468,0.384,8.539,4.936,8.069,10.066l-0.338-0.234      c1.537-0.772,3.183-1.433,4.945-1.806c1.752-0.371,3.656-0.43,5.461,0.133c1.824,0.543,3.384,1.897,4.3,3.609      c0.457,0.858,0.757,1.822,0.792,2.823c0.039,0.996-0.217,2.031-0.786,2.884l-0.4-0.315c2.036-2.202,5.357-2.897,8.265-2.178      c1.463,0.347,2.89,0.981,4.073,1.965c1.191,0.978,2.107,2.267,2.741,3.675c1.697,3.966,1.127,8.505-0.709,11.994l-0.331-0.357      c1.288-0.567,2.798-0.525,4.057,0.006c1.276,0.518,2.303,1.44,3.157,2.437c1.694,2.023,2.714,4.523,2.989,7.043      c0.136,1.256,0.12,2.561-0.321,3.767c-0.222,0.6-0.53,1.162-0.971,1.642c-0.444,0.476-1.008,0.814-1.605,1.017      c-1.172,0.399-2.616,0.338-3.575-0.576c-0.456-0.455-0.732-1.078-0.762-1.708c-0.034-0.632,0.142-1.245,0.441-1.771      c0.292-0.532,0.721-0.976,1.217-1.312c0.51-0.326,1.087-0.513,1.665-0.58c1.165-0.138,2.308,0.162,3.297,0.651      c1.997,1.001,3.396,2.835,4.044,4.784c1.36,3.912,0.113,8.271-2.726,10.415l-0.033-0.3c1.736,0.822,3.003,2.236,3.79,3.736      c0.771,1.516,1.1,3.144,0.982,4.636c-0.087,1.501-0.653,2.83-1.379,3.872c-0.737,1.044-1.645,1.803-2.526,2.351      c-1.784,1.1-3.452,1.316-4.524,1.309C317.365,163.673,316.821,163.485,316.821,163.485z"
   id="path745" />
			</g>
			<g
   id="g746">
				<path
   style="fill:#455A64;"
   d="M184.539,205.079c0,0-0.581-0.011-1.634-0.345c-1.033-0.347-2.57-1.082-3.98-2.689      c-0.696-0.798-1.352-1.81-1.79-3.041c-0.414-1.229-0.624-2.688-0.33-4.201c0.256-1.512,0.973-3.056,2.096-4.398      c1.132-1.324,2.712-2.463,4.63-2.945l0.11,0.306c-0.942,0.451-2.093,0.487-3.112,0.109c-1.029-0.355-1.952-1.046-2.653-1.942      c-1.42-1.855-1.545-4.428-1.13-6.795c0.207-1.203,0.516-2.4,0.901-3.605c0.392-1.2,0.906-2.41,1.69-3.49      c0.765-1.083,1.874-1.999,3.193-2.451c1.297-0.461,2.867-0.478,4.131,0.314l0.244,0.153l-0.21,0.198      c-1.863,1.757-4.799,2.094-7.227,1.132c-1.225-0.472-2.339-1.312-3.119-2.416c-0.78-1.104-1.243-2.425-1.386-3.787      c-0.302-2.719,0.736-5.647,2.875-7.546c2.1-1.922,5.007-2.945,7.93-2.872l0.366,0.009l-0.138,0.34      c-0.21,0.516-0.64,0.962-1.165,1.167c-0.522,0.212-1.088,0.227-1.617,0.137c-1.059-0.184-2.044-0.792-2.646-1.724      c-0.591-0.984-0.58-2.119-0.392-3.166c0.209-1.055,0.672-2.025,1.183-2.944c0.523-0.919,1.104-1.787,1.686-2.667      c0.589-0.876,1.217-1.744,1.952-2.538c1.428-1.593,3.481-2.855,5.76-2.855c0.882-0.002,1.774,0.211,2.541,0.654l0.747,0.431      l-0.861,0.053c-2.94,0.182-5.742-1.402-7.36-3.71c-0.802-1.166-1.332-2.533-1.403-3.947c-0.105-1.411,0.257-2.808,0.85-4.051      c1.238-2.452,3.611-4.37,6.346-4.662c1.363-0.112,2.73,0.229,3.867,0.95c0.565,0.364,1.072,0.839,1.423,1.43      c0.354,0.587,0.519,1.292,0.461,1.973l-0.014,0.164l-0.158,0.051c-0.867,0.283-1.84,0.162-2.621-0.253      c-0.789-0.41-1.414-1.052-1.874-1.772c-0.915-1.432-1.236-3.282-0.632-4.869c0.557-1.575,1.66-2.851,2.875-3.853      c1.224-1.01,2.571-1.795,3.913-2.503l-0.117,0.242c-0.508-2.882,0.185-5.79,1.574-8.115c1.391-2.335,3.535-4.114,5.93-4.941      c2.394-0.837,4.926-0.8,7.147-0.18c2.228,0.631,4.161,1.862,5.555,3.428l-0.295,0.109c0.048-2.132,0.743-4.093,1.73-5.702      c1.005-1.604,2.302-2.888,3.714-3.757c1.397-0.902,2.908-1.353,4.297-1.549c1.399-0.174,2.693-0.077,3.816,0.151      c2.259,0.465,3.806,1.429,4.741,2.149c0.933,0.743,1.312,1.239,1.312,1.239s-0.121-0.097-0.341-0.304      c-0.213-0.213-0.559-0.503-1.028-0.86c-0.945-0.69-2.489-1.615-4.719-2.045c-1.108-0.211-2.381-0.291-3.751-0.108      c-1.36,0.207-2.829,0.659-4.186,1.55c-1.37,0.859-2.628,2.122-3.598,3.692c-0.952,1.575-1.615,3.486-1.65,5.549l-0.007,0.428      l-0.288-0.32c-1.357-1.508-3.236-2.692-5.401-3.294c-2.158-0.592-4.613-0.614-6.914,0.202c-2.298,0.804-4.357,2.522-5.695,4.783      c-1.335,2.25-1.991,5.058-1.497,7.813l0.03,0.164l-0.147,0.078c-1.327,0.705-2.646,1.481-3.827,2.46      c-1.174,0.973-2.209,2.188-2.724,3.655c-0.546,1.437-0.253,3.124,0.593,4.448c0.423,0.66,0.996,1.241,1.689,1.597      c0.688,0.36,1.501,0.46,2.248,0.218l-0.171,0.215c0.119-1.184-0.625-2.302-1.663-2.941c-1.033-0.655-2.311-0.972-3.549-0.867      c-2.515,0.266-4.773,2.074-5.933,4.388c-0.556,1.171-0.895,2.481-0.794,3.791c0.066,1.311,0.559,2.586,1.313,3.682      c1.521,2.173,4.177,3.662,6.9,3.487l-0.113,0.485c-0.68-0.392-1.474-0.584-2.279-0.583c-1.028-0.001-2.051,0.294-2.962,0.769      c-0.912,0.475-1.712,1.16-2.417,1.919c-1.39,1.537-2.507,3.354-3.569,5.106c-0.498,0.893-0.936,1.82-1.128,2.791      c-0.182,0.945-0.16,2.016,0.322,2.794c0.499,0.782,1.379,1.337,2.297,1.492c0.913,0.187,1.905-0.146,2.225-0.992l0.227,0.349      c-2.792-0.075-5.584,0.907-7.579,2.731c-2.032,1.799-3.008,4.549-2.731,7.131c0.133,1.288,0.568,2.53,1.293,3.562      c0.726,1.031,1.751,1.809,2.903,2.257c2.281,0.912,5.039,0.589,6.749-1.023l0.034,0.351c-1.115-0.704-2.539-0.707-3.751-0.281      c-1.231,0.421-2.259,1.258-2.995,2.29c-0.749,1.025-1.254,2.193-1.643,3.369c-0.383,1.18-0.694,2.37-0.901,3.544      c-0.419,2.314-0.285,4.781,1.03,6.509c1.269,1.694,3.578,2.617,5.336,1.759l0.11,0.306c-1.842,0.451-3.378,1.54-4.485,2.817      c-1.098,1.294-1.807,2.789-2.067,4.254c-0.298,1.466-0.107,2.88,0.284,4.084c0.415,1.204,1.046,2.203,1.719,2.996      c1.363,1.596,2.863,2.348,3.876,2.719C183.967,205.006,184.546,205.043,184.539,205.079z"
   id="path746" />
			</g>
			<g
   id="g747">
				<path
   style="fill:#455A64;"
   d="M149.772,194.419c0,0-0.158,0.056-0.476,0.142c-0.157,0.052-0.359,0.088-0.603,0.11      c-0.243,0.041-0.526,0.055-0.85,0.038c-1.275-0.009-3.259-0.617-4.976-2.425c-0.831-0.904-1.641-2.073-2.04-3.541      c-0.414-1.456-0.467-3.138-0.152-4.872c0.321-1.736,0.999-3.519,1.962-5.268c0.489-0.873,1.018-1.748,1.666-2.598      c0.643-0.817,1.533-1.686,2.755-1.776l0.036,0.359c-1.089,0.145-2.254-0.17-3.166-0.855c-0.925-0.667-1.662-1.62-2.106-2.724      c-0.906-2.26-0.377-4.861,0.577-7.159c0.957-2.317,2.303-4.642,4.286-6.507c0.987-0.926,2.137-1.749,3.48-2.228      c1.336-0.483,2.909-0.445,4.246,0.185l-0.218,0.417c-1.502-0.832-2.444-2.451-2.771-4.115c-0.354-1.679-0.253-3.43,0.089-5.13      c0.364-1.699,0.914-3.376,1.771-4.955c0.861-1.559,2.109-3.02,3.839-3.801c1.708-0.722,3.792-0.795,5.486,0.202      c0.829,0.499,1.528,1.273,1.825,2.239c0.147,0.478,0.185,1.016,0.02,1.525c-0.16,0.51-0.548,0.945-1.019,1.179      c-0.945,0.462-2.084,0.354-2.947-0.241c-0.839-0.602-1.335-1.538-1.619-2.47c-0.527-1.889-0.518-3.895-0.082-5.81      c1.276-5.529,6.006-10.076,11.48-10.683l-0.033,0.505c-1.194-0.281-2.226-1.094-2.842-2.114      c-0.629-1.02-0.909-2.199-0.947-3.354c-0.073-2.303,0.814-4.663,2.562-6.131c1.693-1.49,3.807-2.309,5.882-2.781      c2.089-0.475,4.182-0.646,6.219-0.789l-0.186,0.356c-1.526-2.603-1.335-5.788-0.225-8.297c1.107-2.542,3.147-4.577,5.545-5.575      c2.385-1.033,4.96-1.212,7.308-0.885c2.359,0.339,4.525,1.163,6.397,2.256l-0.218,0.027c3.204-3.089,7.048-4.681,10.459-5.314      c3.436-0.663,6.489-0.376,8.862,0.148c2.387,0.546,4.105,1.385,5.226,1.992c0.555,0.317,0.951,0.604,1.228,0.777      c0.272,0.18,0.404,0.283,0.404,0.283s-0.152-0.074-0.433-0.24c-0.285-0.159-0.689-0.43-1.248-0.731      c-1.131-0.575-2.849-1.377-5.219-1.889c-2.357-0.49-5.379-0.743-8.766-0.062c-3.363,0.651-7.136,2.247-10.26,5.291l-0.098,0.096      l-0.119-0.069c-1.839-1.06-3.964-1.856-6.268-2.177c-2.294-0.309-4.792-0.121-7.086,0.883c-2.301,0.966-4.243,2.919-5.302,5.366      c-1.06,2.416-1.217,5.441,0.219,7.875l0.194,0.329l-0.381,0.028c-2.031,0.147-4.102,0.323-6.143,0.791      c-2.03,0.466-4.059,1.263-5.663,2.681c-1.626,1.365-2.452,3.57-2.384,5.74c0.036,1.084,0.304,2.179,0.874,3.101      c0.562,0.923,1.464,1.631,2.529,1.884l1.444,0.343l-1.476,0.162c-5.223,0.573-9.809,4.971-11.029,10.288      c-0.421,1.832-0.422,3.77,0.072,5.542c0.264,0.87,0.714,1.693,1.424,2.201c0.682,0.482,1.672,0.571,2.407,0.202      c0.767-0.356,1.015-1.29,0.742-2.095c-0.248-0.816-0.862-1.509-1.596-1.949c-1.5-0.895-3.446-0.844-5.018-0.176      c-1.578,0.707-2.779,2.083-3.603,3.578c-0.825,1.509-1.373,3.167-1.727,4.811c-0.336,1.648-0.432,3.344-0.099,4.932      c0.312,1.581,1.172,3.044,2.532,3.805l-0.218,0.418c-1.227-0.576-2.642-0.619-3.894-0.174c-1.256,0.444-2.365,1.225-3.321,2.119      c-1.93,1.805-3.25,4.06-4.203,6.342c-0.946,2.246-1.441,4.747-0.603,6.851c0.795,2.063,2.827,3.654,4.857,3.368l0.036,0.359      c-1.046,0.065-1.881,0.836-2.508,1.628c-0.629,0.814-1.168,1.689-1.652,2.542c-0.961,1.719-1.639,3.466-1.966,5.163      c-0.321,1.694-0.282,3.338,0.106,4.755c0.372,1.426,1.15,2.577,1.951,3.47c1.658,1.79,3.586,2.417,4.837,2.458      C149.122,194.659,149.764,194.368,149.772,194.419z"
   id="path747" />
			</g>
			<g
   id="g748">
				<path
   style="fill:#455A64;"
   d="M221.963,177.946c0,0-0.375,0.327-1.257,0.586c-0.867,0.248-2.307,0.333-3.893-0.401      c-0.786-0.356-1.599-0.909-2.288-1.708c-0.707-0.786-1.22-1.85-1.464-3.046c-0.502-2.401,0.164-5.308,1.942-7.76l0.109,0.325      c-1.876-0.554-3.653-1.799-4.935-3.549c-1.277-1.74-2.082-4.006-1.938-6.378c0.229-4.786,4.992-9.217,10.362-8.837l0.013,0.517      c-0.461,0.059-0.977-0.008-1.428-0.211c-0.928-0.406-1.604-1.201-1.965-2.102c-0.347-0.902-0.402-1.864-0.345-2.772      c0.157-1.808,0.445-3.57,1.125-5.209c0.346-0.812,0.809-1.575,1.408-2.215c0.597-0.643,1.372-1.125,2.192-1.371      c0.817-0.254,1.693-0.312,2.517-0.121c0.826,0.178,1.585,0.668,2.063,1.354l0.456,0.655l-0.737-0.302      c-1.958-0.802-3.502-2.244-4.512-3.867c-0.503-0.816-0.888-1.674-1.159-2.543c-0.252-0.875-0.389-1.753-0.425-2.612      c-0.028-1.719,0.403-3.333,1.162-4.616c0.739-1.295,1.704-2.304,2.697-3.034c1.997-1.485,3.993-1.903,5.298-1.981      c1.327-0.064,2.019,0.141,2.019,0.141c-0.004,0.051-0.707-0.103-2.008,0.008c-1.28,0.123-3.22,0.578-5.139,2.057      c-0.955,0.726-1.875,1.72-2.571,2.976c-0.716,1.245-1.108,2.791-1.067,4.438c0.042,0.823,0.181,1.664,0.429,2.503      c0.268,0.832,0.644,1.653,1.131,2.432c0.979,1.55,2.463,2.912,4.317,3.661l-0.28,0.353c-0.821-1.209-2.582-1.509-4.046-1.031      c-1.523,0.433-2.643,1.78-3.279,3.314c-0.641,1.544-0.928,3.298-1.076,5.042c-0.054,0.869,0.004,1.752,0.313,2.553      c0.309,0.777,0.915,1.479,1.687,1.812c0.375,0.17,0.786,0.218,1.152,0.173l0.014,0.517c-5.044-0.373-9.617,3.853-9.829,8.35      c-0.146,2.237,0.607,4.406,1.819,6.076c1.216,1.68,2.903,2.876,4.68,3.418l0.285,0.087l-0.176,0.238      c-1.732,2.348-2.4,5.149-1.948,7.446c0.401,2.347,2.03,3.908,3.523,4.604c1.516,0.741,2.906,0.7,3.761,0.496      C221.543,178.198,221.943,177.906,221.963,177.946z"
   id="path748" />
			</g>
			<g
   id="g749">
				<path
   style="fill:#455A64;"
   d="M271.711,117.366c-0.073,0.031-0.106-0.851-1.037-1.963c-0.911-1.106-2.847-2.157-5.403-2.492      c-1.272-0.157-2.706-0.182-4.202,0.011c-1.484,0.203-3.082,0.68-4.387,1.729c-1.286,1.028-2.334,2.651-2.279,4.45      c0.031,0.875,0.352,1.785,0.982,2.415c0.621,0.642,1.583,0.87,2.485,0.657c0.911-0.197,1.689-0.779,2.211-1.535      c0.527-0.755,0.843-1.646,0.99-2.541c0.315-1.795-0.021-3.611-0.746-5.123c-0.721-1.518-1.807-2.771-3.057-3.588      c-1.238-0.84-2.63-1.231-3.898-1.322c-2.577-0.196-4.599,0.71-5.785,1.486c-1.201,0.806-1.687,1.477-1.732,1.433      c0,0,0.423-0.721,1.617-1.6c1.179-0.845,3.238-1.84,5.924-1.686c1.322,0.071,2.793,0.459,4.11,1.329      c1.328,0.847,2.482,2.152,3.253,3.743c0.774,1.584,1.144,3.5,0.816,5.416c-0.154,0.952-0.485,1.913-1.068,2.752      c-0.573,0.838-1.473,1.522-2.522,1.746c-1.032,0.253-2.224-0.024-2.963-0.798c-0.746-0.753-1.093-1.777-1.127-2.766      c-0.049-2.018,1.113-3.755,2.491-4.842c1.413-1.115,3.093-1.589,4.629-1.782c1.551-0.18,2.998-0.133,4.31,0.052      c2.617,0.39,4.605,1.531,5.507,2.728c0.477,0.58,0.658,1.146,0.785,1.508C271.696,117.164,271.728,117.363,271.711,117.366z"
   id="path749" />
			</g>
			<g
   id="g750">
				<path
   style="fill:#455A64;"
   d="M335.05,117.406c-0.033-0.002,0.047-0.54-0.008-1.56c-0.068-1.01-0.297-2.535-1.184-4.257      c-0.867-1.697-2.454-3.643-4.986-4.717c-2.476-1.077-5.882-1.282-8.941,0.311l-0.302,0.157l0.025-0.34      c0.227-3.14,0.569-6.628-0.275-10.194c-0.427-1.762-1.209-3.519-2.424-5.01c-1.197-1.486-2.891-2.702-4.861-3.072      c-0.974-0.178-2.018-0.125-2.919,0.298c-0.904,0.397-1.58,1.263-1.793,2.237c-0.107,0.486-0.077,0.996,0.102,1.451      c0.193,0.448,0.531,0.825,0.973,1.051c0.885,0.462,2.058,0.36,2.941-0.162c0.905-0.508,1.405-1.562,1.416-2.629      c0.02-1.069-0.365-2.162-1.037-3.028c-1.387-1.758-3.751-2.497-6.036-2.755c-4.439-0.522-8.919,0.466-12.586,2.567l-0.54,0.309      l0.167-0.604c0.206-0.745,0.3-1.512,0.286-2.277c-0.034-0.765-0.178-1.517-0.4-2.243c-0.477-1.443-1.288-2.748-2.314-3.815      c-2.049-2.171-4.959-3.171-7.717-3.345c-2.775-0.175-5.497,0.338-7.866,1.228c-1.156,0.494-2.199,1.228-2.942,2.146      c-0.366,0.46-0.648,0.979-0.744,1.525c-0.101,0.545,0.014,1.096,0.283,1.565l0.756,1.316l-1.065-1.08      c-2.631-2.667-6.009-3.885-8.947-4.18c-2.97-0.339-5.563,0.22-7.524,0.945c-1.974,0.75-3.32,1.726-4.184,2.422      c-0.426,0.357-0.715,0.672-0.93,0.861c-0.209,0.196-0.321,0.293-0.328,0.287c-0.007-0.007,0.09-0.117,0.286-0.326      c0.202-0.203,0.48-0.533,0.898-0.907c0.847-0.73,2.189-1.748,4.179-2.54c1.977-0.766,4.605-1.368,7.634-1.051      c2.996,0.273,6.466,1.484,9.197,4.218l-0.309,0.236c-0.315-0.533-0.458-1.198-0.342-1.832c0.109-0.636,0.424-1.213,0.816-1.712      c0.799-0.996,1.882-1.761,3.096-2.289c2.458-0.937,5.197-1.461,8.068-1.296c2.836,0.166,5.885,1.195,8.042,3.469      c1.077,1.115,1.931,2.479,2.437,4.002c0.236,0.766,0.391,1.564,0.428,2.38c0.017,0.817-0.082,1.639-0.303,2.439l-0.373-0.295      c3.76-2.16,8.347-3.175,12.902-2.64c1.191,0.136,2.376,0.391,3.49,0.849c1.11,0.457,2.146,1.145,2.897,2.106      c0.738,0.958,1.162,2.149,1.141,3.357c-0.006,1.192-0.594,2.452-1.671,3.056c-1.035,0.6-2.35,0.726-3.435,0.17      c-0.54-0.274-0.973-0.756-1.205-1.31c-0.222-0.562-0.251-1.178-0.125-1.744c0.247-1.13,1.035-2.121,2.073-2.578      c1.024-0.476,2.168-0.521,3.214-0.328c2.117,0.406,3.889,1.702,5.134,3.256c1.26,1.56,2.059,3.379,2.491,5.198      c0.847,3.669,0.473,7.188,0.226,10.327l-0.277-0.183c3.194-1.633,6.698-1.385,9.237-0.252c2.6,1.135,4.199,3.156,5.054,4.898      c0.875,1.771,1.072,3.324,1.106,4.347C335.171,116.874,335.05,117.406,335.05,117.406z"
   id="path750" />
			</g>
			<g
   id="g751">
				<path
   style="fill:#455A64;"
   d="M345.574,176.156c0,0,0.392,0.249,0.967,0.911c0.559,0.663,1.3,1.785,1.631,3.439      c0.332,1.61,0.225,3.875-1.246,5.833c-1.406,1.913-4.113,3.48-7.201,3.089l-0.509-0.064l0.441-0.268      c0.846-0.515,1.936-0.596,2.914-0.294c0.979,0.303,1.881,0.936,2.51,1.82c0.629,0.897,0.903,2.013,0.9,3.132      c-0.005,1.123-0.279,2.251-0.734,3.316c-1.816,4.257-6.609,7.602-11.97,7.429l-0.001-0.492c0.935-0.043,1.869,0.293,2.605,0.87      c0.735,0.58,1.306,1.354,1.68,2.219c0.792,1.757,0.525,3.807-0.12,5.576c-0.666,1.797-1.626,3.455-2.652,5.106      c-1.05,1.634-2.272,3.203-3.738,4.57c-1.134,1.041-2.421,1.938-3.864,2.476c-1.435,0.545-3.035,0.669-4.5,0.291l0.276-0.397      c1.774,2.605,2.995,5.59,3.082,8.643c0.023,1.515-0.231,3.037-0.869,4.381c-0.646,1.351-1.682,2.464-2.899,3.218      c-1.211,0.757-2.578,1.254-3.969,1.301c-1.376,0.059-2.798-0.289-3.841-1.155c-1.05-0.795-1.851-2.087-1.631-3.447      c0.106-0.684,0.604-1.249,1.186-1.532c0.571-0.295,1.358-0.326,1.89,0.131l0.071,0.061l0.002,0.09      c0.047,2.086-0.625,4.03-1.618,5.604c-1.021,1.565-2.362,2.789-3.818,3.569c-1.454,0.797-3.008,1.123-4.423,1.116      c-1.421,0.011-2.699-0.316-3.778-0.741c-2.177-0.868-3.517-2.195-4.264-3.153c-0.745-0.979-0.973-1.594-0.973-1.594      c0.037-0.022,0.301,0.577,1.067,1.518c0.767,0.921,2.11,2.196,4.254,3.012c1.062,0.4,2.314,0.702,3.693,0.675      c1.374-0.009,2.869-0.34,4.267-1.122c1.4-0.766,2.687-1.962,3.662-3.48c0.947-1.527,1.578-3.402,1.522-5.392l0.073,0.151      c-0.786-0.658-2.247,0.086-2.388,1.164c-0.185,1.114,0.511,2.298,1.484,3.017c0.954,0.787,2.257,1.101,3.542,1.044      c1.298-0.047,2.592-0.522,3.733-1.24c1.149-0.716,2.116-1.769,2.711-3.021c0.598-1.266,0.838-2.714,0.813-4.161      c-0.087-2.919-1.271-5.825-3.004-8.362l-0.387-0.566l0.663,0.169c1.367,0.349,2.841,0.235,4.193-0.277      c1.358-0.506,2.593-1.363,3.693-2.372c1.421-1.325,2.621-2.861,3.654-4.467c1.008-1.618,1.967-3.278,2.605-5      c0.623-1.71,0.859-3.603,0.14-5.201c-0.658-1.579-2.148-2.889-3.799-2.797l-0.001-0.492c5.134,0.186,9.792-3.033,11.547-7.111      c0.889-2.002,1.046-4.38-0.094-6.044c-1.113-1.622-3.375-2.379-4.908-1.447l-0.068-0.333c2.922,0.397,5.552-1.077,6.922-2.903      c1.433-1.86,1.574-4.046,1.279-5.625c-0.293-1.619-0.991-2.738-1.516-3.411C345.92,176.458,345.552,176.18,345.574,176.156z"
   id="path751" />
			</g>
			<g
   id="g752">
				<path
   style="fill:#455A64;"
   d="M343.275,153.54c-0.012-0.014,0.114-0.148,0.364-0.394c0.293-0.284,0.656-0.636,1.098-1.065      c0.92-0.937,2.355-2.28,3.411-4.375c0.51-1.045,0.9-2.294,0.893-3.653c0.006-1.357-0.51-2.771-1.479-3.959      c-0.961-1.187-2.249-2.239-3.727-3.014c-1.472-0.766-3.217-1.253-4.944-0.966c-0.292,0.043-0.573,0.124-0.834,0.197      l-0.125-0.504c1.653-0.301,2.93-1.62,3.578-3.057c0.661-1.46,0.727-3.077,0.593-4.556c-0.334-2.971-1.081-5.673-2.458-7.458      c-1.356-1.814-3.228-2.483-4.451-2.567c-1.261-0.082-1.921,0.278-1.935,0.214c-0.005-0.012,0.15-0.1,0.472-0.211      c0.321-0.11,0.822-0.215,1.474-0.201c1.275,0.025,3.261,0.666,4.727,2.543c1.481,1.851,2.275,4.6,2.645,7.634      c0.15,1.525,0.104,3.223-0.603,4.811c-0.692,1.548-2.067,3.01-3.949,3.36l-0.126-0.504c0.285-0.081,0.592-0.168,0.909-0.216      c1.883-0.31,3.731,0.223,5.266,1.027c1.544,0.82,2.862,1.907,3.868,3.169c1.013,1.257,1.563,2.808,1.534,4.255      c-0.013,1.448-0.447,2.745-0.996,3.818c-1.141,2.152-2.635,3.459-3.602,4.358c-0.498,0.444-0.894,0.775-1.167,0.995      C343.436,153.445,343.287,153.553,343.275,153.54z"
   id="path752" />
			</g>
			<path
   style="fill:#263238;"
   d="M108.007,244.031c6.026-4.529,12.181-9.193,16.277-15.522c1.685-2.604,3.03-5.499,5.305-7.608     c2.135-1.979,4.924-3.106,7.194-4.928c2.923-2.345,4.825-5.698,6.657-8.967c1.969-3.513,3.938-7.026,5.907-10.538     c3.526,2.523,7.053,5.046,10.579,7.569c-4.989,2.275-10.083,4.621-14.022,8.436c-4.346,4.209-7.112,10.049-12.17,13.369     c-0.873,0.573-1.804,1.062-2.62,1.713c-1.022,0.815-1.833,1.857-2.671,2.86c-4.437,5.31-9.897,9.761-15.992,13.036"
   id="path753" />
			<g
   id="g754">
				<path
   style="fill:#455A64;"
   d="M168.245,202.183c0.017,0.006-0.049,0.224-0.19,0.633c-0.146,0.407-0.365,1.006-0.694,1.76      c-0.332,0.752-0.775,1.664-1.439,2.639c-0.665,0.962-1.595,2.007-2.943,2.7c-1.35,0.716-3.016,0.865-4.688,1.15      c-0.839,0.145-1.694,0.354-2.477,0.756c-0.78,0.41-1.424,1.057-1.928,1.86c-0.515,0.794-0.931,1.698-1.487,2.575      c-0.28,0.438-0.63,0.837-0.958,1.253c-0.386,0.363-0.736,0.778-1.18,1.088c-1.691,1.367-3.799,2.172-5.931,2.854      c-2.143,0.673-4.263,1.197-6.219,1.934c-1.963,0.72-3.723,1.708-5.168,2.968c-1.458,1.242-2.664,2.631-3.77,3.944      c-1.103,1.319-2.111,2.572-3.081,3.677c-0.968,1.108-1.924,2.044-2.812,2.811c-0.463,0.361-0.888,0.705-1.306,0.984      c-0.432,0.259-0.806,0.527-1.178,0.708c-0.365,0.173-0.695,0.33-0.991,0.471c-0.295,0.116-0.556,0.188-0.761,0.257      c-0.414,0.13-0.632,0.19-0.637,0.173c-0.005-0.017,0.203-0.111,0.602-0.272c0.198-0.084,0.449-0.17,0.734-0.299      c0.285-0.151,0.603-0.32,0.955-0.506c0.358-0.191,0.719-0.469,1.135-0.734c0.402-0.286,0.812-0.636,1.258-1.001      c0.856-0.776,1.78-1.716,2.723-2.831c0.945-1.113,1.934-2.375,3.027-3.712c1.097-1.331,2.304-2.748,3.79-4.033      c1.471-1.303,3.306-2.345,5.301-3.081c1.991-0.758,4.119-1.286,6.242-1.954c2.11-0.674,4.159-1.46,5.769-2.756      c0.426-0.294,0.755-0.687,1.125-1.028c0.311-0.394,0.644-0.768,0.913-1.183c0.536-0.834,0.959-1.739,1.504-2.569      c0.529-0.836,1.26-1.566,2.118-2.004c0.858-0.431,1.76-0.637,2.616-0.776c1.711-0.27,3.318-0.398,4.596-1.053      c1.284-0.634,2.2-1.615,2.871-2.54c0.671-0.935,1.135-1.822,1.493-2.555c0.355-0.735,0.604-1.321,0.781-1.714      C168.13,202.382,168.228,202.177,168.245,202.183z"
   id="path754" />
			</g>
			<g
   id="g755">
				<path
   style="fill:#455A64;"
   d="M124.679,228.681c-0.016,0.007-0.097-0.164-0.238-0.503c-0.118-0.344-0.261-0.88-0.227-1.584      c0.019-1.407,0.911-3.406,2.801-5.051c1.863-1.752,4.806-2.573,7.721-3.886c1.458-0.666,2.938-1.517,4.079-2.815      c1.162-1.282,2.035-2.921,3.355-4.326c1.334-1.431,3.068-2.212,4.493-3.195c1.447-0.971,2.705-2.114,3.742-3.338      c2.084-2.45,3.353-5.124,4.037-7.453c0.683-2.341,0.826-4.333,0.824-5.695c0.007-1.367-0.118-2.122-0.057-2.129      c0.018-0.003,0.054,0.184,0.108,0.543c0.056,0.359,0.135,0.89,0.152,1.581c0.065,1.376-0.023,3.403-0.673,5.8      c-0.651,2.385-1.91,5.135-4.025,7.663c-1.052,1.263-2.337,2.445-3.822,3.451c-1.473,1.016-3.157,1.787-4.401,3.13      c-1.258,1.331-2.136,2.969-3.354,4.309c-1.213,1.368-2.773,2.247-4.26,2.911c-2.988,1.312-5.865,2.078-7.679,3.728      c-1.859,1.558-2.761,3.445-2.84,4.785C124.305,227.963,124.764,228.663,124.679,228.681z"
   id="path755" />
			</g>
			<g
   id="g756">
				<path
   style="fill:#263238;"
   d="M121.3,213.14c0.039-0.195,0.79-0.14,2.042-0.393c1.234-0.243,3.039-0.88,4.941-2.095      c0.921-0.605,1.826-1.404,2.352-2.421c0.529-1.01,0.713-2.338,0.31-3.452c-0.206-0.559-0.526-1.018-1.014-1.389      c-0.472-0.371-1.076-0.614-1.659-0.655c-0.591-0.042-1.13,0.101-1.528,0.451c-0.419,0.349-0.742,0.932-0.816,1.505      c-0.073,0.594,0.071,1.032,0.436,1.404c0.359,0.372,0.95,0.618,1.559,0.673c1.191,0.122,2.494-0.58,3.501-1.537      c2.072-1.953,3.047-4.566,3.338-6.767c0.295-2.231-0.047-4.084-0.374-5.33c-0.35-1.247-0.654-1.939-0.483-2.048      c0.128-0.088,0.735,0.426,1.423,1.67c0.659,1.238,1.356,3.263,1.269,5.858c-0.088,2.553-0.993,5.757-3.495,8.332      c-0.625,0.634-1.364,1.234-2.261,1.691c-0.881,0.454-1.979,0.755-3.111,0.675c-1.109-0.082-2.276-0.481-3.194-1.382      c-0.452-0.437-0.824-1.023-1.03-1.661c-0.205-0.635-0.242-1.297-0.159-1.921c0.176-1.248,0.791-2.359,1.745-3.157      c0.971-0.825,2.286-1.121,3.409-0.997c2.273,0.224,4.135,1.859,4.723,3.831c0.586,1.942,0.151,3.845-0.712,5.275      c-0.897,1.455-2.158,2.335-3.297,2.94c-2.293,1.166-4.345,1.562-5.791,1.517C121.976,213.708,121.258,213.291,121.3,213.14z"
   id="path756" />
			</g>
			<g
   id="g757">
				<path
   style="fill:#263238;"
   d="M169.758,273.575c0.056-0.065,0.162-0.116,0.142-0.211c-0.021-0.08-0.012-0.168,0.005-0.31      c0.06-0.353,0.312-0.966,0.61-1.617c0.618-1.332,1.587-3.08,2.728-4.965c2.288-3.76,4.407-6.693,5.057-6.367      c0.637,0.316-0.481,3.856-2.83,7.718c-1.168,1.929-2.409,3.559-3.43,4.646c-0.522,0.558-0.937,0.922-1.354,1.232      c-0.242,0.172-0.525,0.262-0.765,0.188C169.679,273.793,169.703,273.628,169.758,273.575z"
   id="path757" />
			</g>
			<g
   id="g758">
				<path
   style="fill:#263238;"
   d="M375.719,204.944c0.065,0.127-0.803,0.815-2.726,1.216c-1.882,0.347-4.941,0.305-8.037-1.591      c-0.776-0.457-1.504-1.073-2.211-1.772c-0.683-0.725-1.301-1.577-1.805-2.539c-0.959-1.939-1.424-4.288-1.128-6.691      c0.277-2.389,1.24-4.888,3.096-6.866c0.926-0.983,2.027-1.833,3.333-2.419c1.3-0.581,2.818-0.908,4.395-0.65      c1.558,0.269,2.989,1.065,3.974,2.334c0.495,0.626,0.843,1.396,1.002,2.191c0.15,0.795,0.117,1.6-0.067,2.333      c-0.356,1.473-1.232,2.714-2.347,3.578c-1.107,0.848-2.371,1.317-3.589,1.542c-2.451,0.439-4.796,0.001-6.747-0.845      c-1.955-0.861-3.529-2.152-4.634-3.577c-1.111-1.429-1.741-2.953-2.062-4.315c-0.33-1.365-0.352-2.579-0.264-3.545      c0.199-1.945,0.773-2.886,0.914-2.836c0.199,0.053-0.021,1.072,0.1,2.848c0.128,1.736,0.691,4.385,2.729,6.67      c1.008,1.125,2.388,2.123,4.04,2.757c1.641,0.624,3.587,0.887,5.458,0.488c0.927-0.199,1.813-0.574,2.52-1.144      c0.684-0.552,1.211-1.352,1.4-2.208c0.193-0.861,0.039-1.675-0.5-2.353c-0.526-0.684-1.426-1.2-2.356-1.352      c-1.9-0.318-4.041,0.76-5.444,2.252c-1.453,1.493-2.288,3.483-2.57,5.42c-0.303,1.951,0.008,3.863,0.695,5.451      c0.368,0.784,0.822,1.493,1.344,2.12c0.547,0.602,1.115,1.161,1.744,1.591c2.503,1.798,5.169,2.141,6.909,2.118      C374.655,205.088,375.641,204.747,375.719,204.944z"
   id="path758" />
			</g>
			<g
   id="g759">
				<path
   style="fill:#263238;"
   d="M379.735,159.961c0.11,0.094-0.307,0.94-1.676,1.86c-1.33,0.894-3.739,1.861-6.776,1.276      c-1.501-0.279-3.099-1.069-4.413-2.325c-1.315-1.254-2.359-2.979-2.824-4.999c-0.463-2.009-0.3-4.356,0.903-6.42      c0.608-1.027,1.5-1.968,2.726-2.549c1.204-0.546,2.59-0.71,3.95-0.308c0.675,0.204,1.33,0.561,1.864,1.062      c0.532,0.5,0.924,1.125,1.163,1.769c0.476,1.3,0.41,2.63,0.033,3.808c-0.19,0.588-0.478,1.159-0.835,1.653      c-0.347,0.483-0.749,0.91-1.178,1.277c-0.861,0.735-1.813,1.24-2.753,1.604c-3.771,1.405-7.42,1.066-10.181,0.237      c-2.792-0.85-4.739-2.24-5.893-3.33c-1.155-1.109-1.577-1.897-1.459-2.002c0.146-0.137,0.816,0.404,2.08,1.201      c1.265,0.784,3.183,1.807,5.737,2.35c2.512,0.535,5.756,0.599,8.811-0.677c1.473-0.616,2.841-1.707,3.239-3.083      c0.217-0.701,0.218-1.496-0.024-2.119c-0.239-0.629-0.695-1.054-1.356-1.255c-0.656-0.203-1.465-0.126-2.117,0.168      c-0.632,0.289-1.219,0.844-1.623,1.511c-0.833,1.361-1.043,3.083-0.741,4.611c0.294,1.543,1.041,2.94,2.009,3.973      c0.973,1.035,2.131,1.727,3.314,2.055c2.389,0.688,4.544,0.165,5.862-0.379C378.933,160.378,379.589,159.809,379.735,159.961z"
   id="path759" />
			</g>
			<g
   id="g760">
				<path
   style="fill:#455A64;"
   d="M182.364,206.548c0.08,0.083-1.349,0.58-2.585,2.63c-0.584,1.012-1.114,2.397-1.125,4.039      c-0.056,1.619,0.445,3.527,1.795,4.996l0.526,0.573l-0.75-0.201c-1.88-0.505-4.091-0.47-6.229,0.242      c-2.13,0.714-4.171,2.151-5.497,4.222c-1.76,2.742-2.158,6.105-1.371,8.828l0.203,0.702l-0.587-0.44      c-2.058-1.545-4.494-2.183-6.627-2.164c-2.151-0.029-4.014,0.533-5.423,1.209c-2.852,1.402-3.844,3.148-3.929,3.045      c-0.011-0.008,0.052-0.106,0.186-0.289c0.141-0.175,0.32-0.464,0.623-0.777c0.584-0.644,1.553-1.505,2.986-2.248      c1.427-0.732,3.333-1.349,5.556-1.353c2.204-0.05,4.749,0.579,6.925,2.19l-0.384,0.262c-0.846-2.854-0.443-6.368,1.403-9.246      c1.392-2.177,3.548-3.685,5.775-4.416c2.237-0.732,4.547-0.749,6.507-0.2l-0.224,0.371c-1.437-1.598-1.924-3.627-1.835-5.315      c0.045-1.714,0.63-3.139,1.268-4.166c0.655-1.033,1.399-1.667,1.933-2.031c0.266-0.185,0.499-0.283,0.644-0.364      C182.28,206.57,182.358,206.537,182.364,206.548z"
   id="path760" />
			</g>
			<g
   id="g761">
				<path
   style="fill:#455A64;"
   d="M190.514,254.495c0.004,0.017-0.195,0.071-0.584,0.158c-0.194,0.049-0.435,0.098-0.727,0.109      c-0.29,0.021-0.627,0.064-1.006,0.027c-1.493-0.049-3.776-0.606-5.83-2.446c-1.02-0.903-1.953-2.134-2.521-3.65      c-0.31-0.75-0.441-1.588-0.515-2.448c0.009-0.861,0.057-1.765,0.355-2.631c0.264-0.871,0.664-1.728,1.215-2.504      c0.528-0.792,1.2-1.509,1.97-2.127c0.759-0.634,1.642-1.145,2.594-1.518c0.947-0.385,1.985-0.611,3.042-0.609      c1.05,0.005,2.115,0.117,3.064,0.641c0.464,0.262,0.893,0.643,1.133,1.153c0.233,0.498,0.297,1.076,0.118,1.613      c-0.171,0.548-0.678,0.961-1.21,1.07c-0.536,0.118-1.054,0.021-1.519-0.131c-0.935-0.335-1.694-0.878-2.383-1.477      c-2.748-2.457-3.55-6.105-2.845-8.741c0.675-2.689,2.342-4.367,3.56-5.22c1.25-0.872,2.097-1.029,2.097-1.029      c0.027,0.057-0.793,0.29-1.977,1.192c-1.155,0.882-2.722,2.554-3.322,5.141c-0.63,2.525,0.183,5.988,2.804,8.297      c0.644,0.557,1.403,1.08,2.223,1.365c0.411,0.134,0.854,0.203,1.248,0.112c0.391-0.089,0.722-0.36,0.842-0.744      c0.128-0.381,0.084-0.841-0.101-1.227c-0.18-0.384-0.523-0.697-0.921-0.921c-0.809-0.452-1.827-0.572-2.804-0.572      c-0.988-0.003-1.964,0.208-2.859,0.571c-0.9,0.35-1.74,0.832-2.463,1.432c-0.734,0.585-1.377,1.263-1.881,2.012      c-0.528,0.734-0.911,1.542-1.165,2.362c-0.29,0.816-0.338,1.664-0.356,2.474c0.064,0.809,0.175,1.601,0.462,2.316      c0.521,1.445,1.396,2.64,2.364,3.527c1.949,1.809,4.141,2.407,5.594,2.516C189.69,254.689,190.503,254.424,190.514,254.495z"
   id="path761" />
			</g>
			<g
   id="g762">
				<path
   style="fill:#455A64;"
   d="M139.798,149.14c0.01,0.048-0.547,0.146-1.484,0.507c-0.927,0.366-2.253,1.03-3.528,2.285      c-1.266,1.233-2.48,3.102-2.823,5.429c-0.36,2.3,0.125,5.016,1.677,7.23c0.214,0.314,0.457,0.601,0.683,0.869l0.324,0.384      l-0.493,0.048c-2.565,0.251-4.809,1.582-6.256,3.24c-1.481,1.663-2.115,3.651-2.265,5.307c-0.156,1.671,0.123,3.029,0.397,3.92      c0.278,0.896,0.523,1.361,0.482,1.382c-0.015,0.008-0.088-0.101-0.212-0.319c-0.127-0.216-0.289-0.551-0.456-1      c-0.337-0.89-0.682-2.276-0.568-4.012c0.107-1.716,0.73-3.819,2.266-5.587c1.498-1.759,3.845-3.179,6.563-3.449l-0.169,0.432      c-0.24-0.283-0.497-0.587-0.723-0.918c-1.638-2.34-2.128-5.192-1.724-7.604c0.388-2.446,1.699-4.38,3.042-5.62      c1.354-1.266,2.747-1.896,3.714-2.21c0.488-0.157,0.876-0.245,1.143-0.281C139.655,149.135,139.795,149.122,139.798,149.14z"
   id="path762" />
			</g>
			<g
   id="g763">
				<path
   style="fill:#455A64;"
   d="M158.554,118.799c-0.024,0.051-0.578-0.271-1.669-0.552c-1.08-0.269-2.758-0.463-4.691,0.091      c-1.893,0.533-4.105,1.889-5.212,4.301c-1.123,2.343-1.19,5.569,0.37,8.173c0.175,0.323,0.409,0.603,0.605,0.878l0.245,0.345      l-0.4,0.075c-2.878,0.538-5.307,2.21-6.848,4.182c-1.576,1.979-2.215,4.255-2.336,6.142c-0.127,1.903,0.213,3.439,0.535,4.448      c0.328,1.015,0.609,1.541,0.566,1.562c-0.015,0.008-0.096-0.117-0.235-0.365c-0.142-0.246-0.326-0.625-0.517-1.132      c-0.386-1.007-0.792-2.568-0.708-4.533c0.077-1.944,0.7-4.329,2.322-6.411c1.584-2.073,4.106-3.835,7.127-4.404l-0.155,0.42      c-0.211-0.293-0.46-0.594-0.648-0.938c-1.661-2.782-1.567-6.176-0.356-8.649c0.597-1.254,1.494-2.274,2.488-2.994      c0.99-0.73,2.053-1.198,3.059-1.455c2.024-0.53,3.753-0.267,4.843,0.068c0.55,0.17,0.962,0.351,1.224,0.502      C158.429,118.7,158.563,118.783,158.554,118.799z"
   id="path763" />
			</g>
			<g
   id="g764">
				<path
   style="fill:#455A64;"
   d="M318.912,200.915c0.002-0.018,0.186-0.03,0.535-0.038c0.192-0.002,0.404-0.004,0.643-0.007      c0.263-0.028,0.553-0.058,0.871-0.092c1.29-0.179,3.202-0.604,5.176-1.89c1.981-1.22,4.042-3.304,5.199-6.167      c0.552-1.425,0.894-3.049,0.766-4.706c-0.071-0.823-0.272-1.65-0.671-2.389c-0.396-0.729-1.016-1.359-1.778-1.736      c-0.626-0.318-1.335-0.435-1.962-0.318l-0.55,0.103l0.277-0.486c1.656-2.903,2.892-5.886,3.114-8.729      c0.124-1.413-0.014-2.771-0.381-3.96c-0.383-1.19-0.982-2.211-1.647-3.035c-1.345-1.657-2.966-2.462-4.116-2.69      c-1.16-0.245-1.831-0.114-1.832-0.177c0,0,0.659-0.205,1.87-0.012c1.199,0.175,2.917,0.962,4.35,2.653      c0.71,0.841,1.352,1.892,1.771,3.131c0.406,1.246,0.563,2.661,0.45,4.124c-0.202,2.951-1.459,6.011-3.128,8.949l-0.273-0.383      c0.748-0.142,1.578,0.001,2.289,0.362c0.864,0.429,1.558,1.137,2.001,1.955c0.441,0.818,0.652,1.718,0.724,2.594      c0.128,1.758-0.241,3.444-0.829,4.927c-1.231,2.971-3.392,5.087-5.451,6.302c-2.054,1.28-4.03,1.659-5.349,1.778      c-0.324,0.016-0.62,0.031-0.888,0.045c-0.241-0.016-0.456-0.03-0.65-0.043C319.093,200.955,318.911,200.933,318.912,200.915z"
   id="path764" />
			</g>
			<g
   id="g765">
				<path
   style="fill:#263238;"
   d="M143.189,251.916c-0.15,0.094-0.682-0.398-1.492-1.416c-0.786-1.028-1.939-2.575-2.72-4.928      c-0.37-1.177-0.609-2.554-0.474-4.075c0.128-1.5,0.717-3.208,1.961-4.53c1.213-1.315,2.953-2.267,4.937-2.459      c1.992-0.192,4.174,0.469,5.681,2.168c0.37,0.428,0.68,0.92,0.901,1.452c0.226,0.523,0.359,1.16,0.354,1.729      c0.004,1.162-0.373,2.246-1.056,3.129c-0.657,0.888-1.758,1.563-2.937,1.65c-1.14,0.089-2.239-0.344-2.99-0.944      c-1.518-1.212-2.218-2.831-2.51-4.321c-0.303-1.477-0.219-2.882,0.02-4.101c0.508-2.457,1.722-4.141,2.685-5.072      c0.986-0.938,1.701-1.207,1.796-1.079c0.124,0.154-0.357,0.689-1.011,1.72c-0.641,1.024-1.444,2.625-1.651,4.716      c-0.092,1.036-0.059,2.184,0.264,3.328c0.278,1.113,0.932,2.241,1.834,2.88c0.446,0.316,0.901,0.439,1.348,0.394      c0.403-0.056,0.808-0.279,1.123-0.719c0.319-0.421,0.508-1.01,0.494-1.547c0.007-0.517-0.236-1.035-0.633-1.513      c-0.815-0.941-2.23-1.446-3.493-1.331c-1.305,0.091-2.555,0.709-3.423,1.577c-0.881,0.857-1.362,1.983-1.551,3.137      c-0.187,1.154-0.101,2.309,0.111,3.337c0.45,2.069,1.296,3.713,1.806,4.872C143.093,251.132,143.343,251.818,143.189,251.916z"
   id="path765" />
			</g>
			<g
   id="g766">
				<path
   style="fill:#263238;"
   d="M332.81,253.479c-0.021-0.152,0.49-0.319,1.339-0.717c0.839-0.404,2.042-1.072,3.162-2.303      c1.107-1.217,2.112-3.019,2.163-5.202c0.075-2.155-0.813-4.688-2.739-6.352l-3.8-3.282l4.911,1.184      c2.911,0.702,6.415,0.264,9.474-1.414c1.725-0.941,3.225-2.189,4.375-3.624c1.136-1.448,1.905-3.063,2.3-4.703      c0.805-3.308,0.179-6.535-0.825-8.958c-1.051-2.437-2.461-4.142-3.551-5.19c-0.272-0.257-0.517-0.489-0.738-0.698      c-0.214-0.186-0.402-0.35-0.568-0.495c-0.304-0.281-0.449-0.47-0.407-0.549c0.042-0.079,0.27-0.045,0.675,0.098      c0.201,0.075,0.455,0.164,0.735,0.305c0.28,0.164,0.592,0.346,0.937,0.547c1.374,0.878,3.173,2.556,4.581,5.192      c1.351,2.617,2.318,6.271,1.503,10.271c-0.402,1.983-1.294,3.992-2.629,5.746c-1.348,1.745-3.115,3.238-5.151,4.348      c-3.602,1.975-7.799,2.455-11.314,1.49l1.111-2.098c2.526,2.344,3.439,5.598,3.179,8.311c-0.25,2.782-1.728,4.905-3.176,6.15      c-1.477,1.277-2.962,1.795-3.962,1.987C333.38,253.708,332.824,253.602,332.81,253.479z"
   id="path766" />
			</g>
			<g
   id="g767">
				<path
   style="fill:#263238;"
   d="M191.381,78.192c-0.102-0.094,0.239-0.737,1.162-1.681c0.926-0.927,2.481-2.136,4.742-3.049      c2.241-0.908,5.238-1.502,8.567-0.951c1.632,0.271,3.475,0.799,5.05,2.192c0.783,0.698,1.428,1.652,1.756,2.731      c0.332,1.073,0.367,2.369-0.173,3.557l-2.363-0.947c0.771-2.226,2.085-4.362,3.901-6.051c3.529-3.394,8.371-4.895,12.602-4.347      c2.122,0.249,4.026,1.02,5.612,1.979c1.592,0.965,2.877,2.139,3.879,3.333c2.019,2.403,2.837,4.871,3.133,6.541      c0.264,1.702,0.075,2.645-0.073,2.649c-0.208,0.015-0.371-0.891-0.907-2.389c-0.566-1.475-1.561-3.586-3.521-5.567      c-1.922-1.951-4.842-3.845-8.388-4.16c-3.501-0.338-7.57,0.983-10.54,3.846c-1.531,1.42-2.617,3.181-3.285,4.987l-2.363-0.947      c0.505-1.006,0.044-2.566-0.919-3.439c-0.983-0.947-2.413-1.489-3.82-1.781c-2.829-0.615-5.51-0.294-7.605,0.327      c-2.112,0.621-3.681,1.517-4.725,2.183C192.066,77.883,191.508,78.312,191.381,78.192z"
   id="path767" />
			</g>
			<g
   id="g768">
				<path
   style="fill:#263238;"
   d="M291.674,75.701c-0.216-0.059,0.179-1.47,0.107-3.998c-0.074-1.259-0.272-2.794-0.824-4.482      c-0.547-1.682-1.444-3.516-2.806-5.247c-0.704-0.842-1.482-1.698-2.43-2.416c-0.921-0.75-1.982-1.388-3.15-1.872      c-1.157-0.511-2.444-0.832-3.786-0.986c-1.341-0.159-2.751-0.152-4.164,0.087c-2.815,0.451-5.708,1.659-7.972,3.746      c-1.115,1.036-2.133,2.266-2.822,3.64c-0.683,1.353-1.015,2.884-0.673,4.195c0.326,1.352,1.319,2.478,2.426,2.691      c1.1,0.242,2.452-0.372,3.256-1.369c0.401-0.497,0.673-1.07,0.778-1.641c0.105-0.612,0.056-1.254-0.111-1.874      c-0.336-1.247-1.188-2.375-2.216-3.15c-2.102-1.548-5.002-1.687-7.464-1.182c-2.509,0.497-4.69,1.647-6.464,2.953      c-3.551,2.706-5.341,6.061-6.218,8.404c-0.845,2.391-0.956,3.847-1.175,3.832c-0.136,0.004-0.383-1.489,0.204-4.125      c0.627-2.576,2.272-6.362,6.044-9.553c1.886-1.545,4.283-2.948,7.147-3.621c1.426-0.335,2.968-0.503,4.577-0.346      c1.604,0.165,3.277,0.642,4.76,1.698c1.441,1.045,2.644,2.538,3.195,4.407c0.269,0.93,0.369,1.949,0.208,2.964      c-0.174,1.053-0.639,2.025-1.283,2.837c-0.649,0.81-1.49,1.465-2.469,1.908c-0.975,0.442-2.146,0.618-3.297,0.395      c-1.154-0.241-2.175-0.88-2.914-1.714c-0.743-0.832-1.25-1.824-1.512-2.878c-0.542-2.175,0.022-4.285,0.883-5.993      c0.877-1.72,2.087-3.149,3.432-4.375c2.717-2.441,6.081-3.773,9.334-4.223c1.633-0.237,3.259-0.209,4.807,0.017      c1.548,0.221,3.032,0.642,4.363,1.282c1.341,0.612,2.542,1.401,3.557,2.299c1.045,0.868,1.88,1.871,2.617,2.853      c1.424,2.011,2.28,4.087,2.738,5.961c0.461,1.879,0.519,3.554,0.436,4.896C292.545,74.421,291.795,75.751,291.674,75.701z"
   id="path768" />
			</g>
		</g>
		<g
   id="g782">
			<path
   style="fill:#FF725E;"
   d="M139.445,357.64c0,0,5.53-35.375,13.138-57.185c7.608-21.81,31.564-26.998,31.564-26.998     l10.311,89.255L139.445,357.64z"
   id="path769" />
			<path
   style="fill:#FF725E;"
   d="M180.821,351.082c0,0-26.941-57.811-14.766-68.861c12.175-11.049,54.295-19.496,54.295-19.496     c22.847,26.52,56.343,14.223,66.318-3.922l44.432,9.787l8.824,3.16l-7.832,160.495l24.137,48.208H183.696l25.941-48.208     L180.821,351.082z"
   id="path770" />
			<g
   style="opacity:0.3;"
   id="g771">
				<path
   d="M187.083,476.548c4.208,2.663,9.81,1.724,14.284-0.462c4.474-2.187,8.342-5.476,12.834-7.625      c11.787-5.641,25.63-2.667,38.564-0.803c27.234,3.925,55.255,2.311,81.858-4.714c4.546-1.551,7.234-2.428,10.851-3.97      c0,0-5.821-11.42-8.18-16.803h-87.878l-36.085,7.366l-26.249,20.822V476.548z"
   id="path771" />
			</g>
			<g
   id="g773">
				<path
   style="fill:#AE7461;"
   d="M165.434,452.536c0,0-7.156-0.996-7.024-3.678c0.131-2.682,4.529-13.434,9.122-17.188      c4.593-3.754,41.427-8.239,41.427-8.239l16.777,3.242l-5.655,29.267c0,0-26.342,20.242-33.197,19.691      c-6.855-0.551-12.723,1.796-12.858-7.512c0,0-6.207-3.906-5.054-9.872C168.971,458.247,163.332,461.412,165.434,452.536z"
   id="path772" />
				<path
   style="fill:#AE7461;"
   d="M322.707,410.435l-110.881,13.55l1.898,32.22c0,0,52.649,7.837,91.489,4.245      c19.686-1.821,32.315-4.599,39.984-6.897c6.247-1.872,11.06-6.865,12.714-13.173c3.558-13.566,9.707-38.924,9.993-53.124      c0.403-20.035,5.725-105.008-24.339-107.349c0,0-11.34-0.573-12.603,31.086C329.7,342.653,322.707,410.435,322.707,410.435z"
   id="path773" />
			</g>
			<path
   style="fill:#FF725E;"
   d="M322.707,376.33l54.812-9.883c0,0-6.528-41.027-9.387-53.032     c-9.584-40.239-36.041-44.47-36.041-44.47s-0.439,11.293-5.011,34.318c-3.976,20.024-1.836,44.663-1.836,44.663L322.707,376.33z"
   id="path774" />
			<g
   id="g777">
				<path
   style="fill:#FF725E;"
   d="M318.818,396.08c20.145-34.779,11.027-72.397,12.251-90.491"
   id="path775" />
				<g
   id="g776">
					<path
   style="fill:#263238;"
   d="M331.069,305.59c0.009,0.001,0.015,0.082,0.019,0.241c0.001,0.19,0.002,0.421,0.003,0.704       c-0.009,0.66-0.022,1.561-0.038,2.699c0.034,1.187,0.075,2.618,0.122,4.27c0.089,1.671,0.19,3.564,0.301,5.652       c0.475,8.365,1.374,19.982,0.447,32.793c-0.398,6.411-1.486,12.445-2.622,17.885c-0.359,1.343-0.708,2.653-1.048,3.927       c-0.361,1.266-0.621,2.523-1.065,3.68c-0.404,1.168-0.794,2.296-1.17,3.382c-0.389,1.079-0.696,2.14-1.15,3.091       c-0.837,1.921-1.597,3.663-2.267,5.201c-0.715,1.508-1.451,2.747-1.995,3.788c-0.549,0.999-0.983,1.79-1.302,2.37       c-0.141,0.245-0.255,0.445-0.35,0.61c-0.081,0.136-0.127,0.203-0.134,0.199c-0.008-0.004,0.022-0.081,0.088-0.225       c0.082-0.171,0.182-0.379,0.304-0.635c0.297-0.59,0.702-1.396,1.214-2.413c0.515-1.053,1.223-2.302,1.91-3.817       c0.647-1.541,1.38-3.287,2.188-5.213c0.442-0.951,0.736-2.012,1.114-3.091c0.365-1.084,0.744-2.211,1.136-3.377       c0.433-1.154,0.684-2.408,1.035-3.671c0.332-1.269,0.673-2.575,1.023-3.913c1.105-5.422,2.175-11.429,2.571-17.816       c0.924-12.761,0.087-24.358-0.295-32.735c-0.112-2.095-0.158-3.996-0.224-5.662c-0.013-1.656-0.024-3.09-0.033-4.281       c0.057-1.14,0.102-2.042,0.136-2.703c0.02-0.282,0.036-0.513,0.049-0.702C331.048,305.67,331.06,305.589,331.069,305.59z"
   id="path776" />
				</g>
			</g>
			<g
   id="g778">
				<path
   style="fill:#263238;"
   d="M169.47,315.083c0.009-0.002,0.041,0.094,0.096,0.283c0.06,0.217,0.137,0.494,0.232,0.84      c0.209,0.737,0.458,1.837,0.866,3.232c0.424,1.403,0.938,3.103,1.532,5.07c0.642,1.963,1.335,4.21,2.165,6.673      c3.276,9.869,8.069,23.414,13.454,38.34c5.4,14.912,10.287,28.408,13.839,38.218c1.756,4.896,3.15,8.868,4.09,11.621      c0.446,1.354,0.797,2.419,1.048,3.182c0.107,0.343,0.192,0.617,0.259,0.832c0.055,0.188,0.08,0.286,0.071,0.289      c-0.009,0.003-0.05-0.089-0.122-0.272c-0.08-0.211-0.181-0.479-0.308-0.815c-0.273-0.754-0.655-1.808-1.14-3.148      c-1.015-2.766-2.462-6.706-4.245-11.562c-3.597-9.759-8.587-23.236-13.983-38.167c-5.386-14.929-10.126-28.498-13.314-38.403      c-0.808-2.473-1.477-4.73-2.093-6.702c-0.592-1.98-1.053-3.702-1.45-5.101c-0.379-1.405-0.597-2.517-0.773-3.262      c-0.075-0.351-0.135-0.632-0.182-0.852C169.476,315.184,169.461,315.085,169.47,315.083z"
   id="path777" />
			</g>
			<g
   id="g779">
				<path
   style="fill:#6F4439;"
   d="M340.07,433.478c-0.088,0.027-0.574-1.557-1.597-4.017c-1.025-2.455-2.663-5.771-5.071-9.039      c-2.417-3.263-5.128-5.781-7.224-7.417c-2.098-1.639-3.522-2.488-3.472-2.57c0.018-0.031,0.386,0.16,1.038,0.532      c0.657,0.363,1.569,0.957,2.657,1.745c2.173,1.575,4.969,4.09,7.419,7.4c2.442,3.314,4.049,6.703,4.994,9.212      c0.471,1.257,0.809,2.29,0.999,3.016C340.012,433.064,340.105,433.468,340.07,433.478z"
   id="path778" />
			</g>
			<g
   id="g780">
				<path
   style="fill:#263238;"
   d="M269.51,341.228c0.018-0.003,0.068,0.289,0.147,0.846c0.063,0.559,0.225,1.378,0.285,2.447      c0.201,2.13,0.271,5.244-0.124,9.057c-0.387,3.811-1.352,8.315-3.197,13.044c-1.834,4.726-4.624,9.642-8.413,14.118      c-3.836,4.438-8.262,7.956-12.648,10.501c-4.388,2.555-8.688,4.207-12.393,5.179c-3.706,0.981-6.793,1.393-8.928,1.525      c-1.065,0.106-1.899,0.073-2.461,0.098c-0.563,0.008-0.858,0.004-0.858-0.014c0-0.018,0.294-0.049,0.855-0.09      c0.559-0.058,1.389-0.058,2.447-0.195c2.121-0.193,5.181-0.659,8.848-1.678c3.666-1.01,7.914-2.683,12.248-5.238      c4.332-2.543,8.701-6.036,12.495-10.425c3.747-4.427,6.521-9.283,8.362-13.955c1.852-4.676,2.847-9.132,3.278-12.91      c0.439-3.78,0.426-6.876,0.288-9.001c-0.029-1.066-0.158-1.887-0.187-2.448C269.508,341.527,269.492,341.231,269.51,341.228z"
   id="path779" />
			</g>
			<g
   style="opacity:0.3;"
   id="g781">
				<path
   d="M224.536,397.589c11.844,4.916,26.406,2.453,35.976-6.083c9.57-8.536,12.255-22.723,8.72-35.049      c-1.488,6.255-4.153,15.939-12.631,25.37C249.616,389.597,234.917,396.414,224.536,397.589"
   id="path780" />
			</g>
		</g>
		<g
   id="g783">
			<path
   style="fill:#263238;"
   d="M293.438,261.924c0.008,0.005-0.029,0.075-0.109,0.207c-0.099,0.157-0.218,0.348-0.365,0.581     c-0.343,0.495-0.774,1.282-1.487,2.182c-1.343,1.859-3.534,4.389-6.657,7.061c-1.551,1.349-3.386,2.661-5.409,3.983     c-2.069,1.244-4.314,2.539-6.826,3.586c-2.491,1.083-5.189,2.049-8.066,2.742c-2.871,0.702-5.902,1.25-9.04,1.404     c-3.136,0.174-6.21,0.035-9.147-0.341c-2.936-0.4-5.718-1.076-8.315-1.879c-5.171-1.696-9.545-4.026-12.845-6.477     c-3.311-2.438-5.664-4.826-7.102-6.612c-0.77-0.852-1.235-1.621-1.607-2.095c-0.158-0.225-0.288-0.409-0.395-0.561     c-0.087-0.128-0.127-0.196-0.12-0.201c0.007-0.005,0.063,0.053,0.163,0.17c0.118,0.143,0.261,0.317,0.436,0.529     c0.398,0.453,0.887,1.198,1.676,2.026c1.478,1.736,3.853,4.066,7.163,6.445c3.299,2.392,7.648,4.664,12.775,6.319     c2.576,0.782,5.332,1.441,8.237,1.83c2.907,0.364,5.947,0.499,9.049,0.326c3.104-0.152,6.104-0.691,8.948-1.38     c2.851-0.68,5.526-1.627,7.999-2.688c2.494-1.025,4.726-2.294,6.787-3.511c2.015-1.295,3.847-2.578,5.401-3.899     c3.129-2.614,5.347-5.089,6.733-6.901c0.734-0.876,1.19-1.642,1.561-2.117c0.163-0.221,0.297-0.402,0.407-0.552     C293.379,261.98,293.431,261.92,293.438,261.924z"
   id="path782" />
		</g>
		<g
   id="g794">
			<g
   id="g792">
				<path
   style="fill:#AE7461;"
   d="M146.01,303.263l25.513,50.612l11.206,2.708c-0.165-0.484,23.392,62.887,25.815,71.499      c6.332,22.506-12.888,35.57-37.235,20.352c-24.347-15.217-52.264-133.348-52.264-133.348L146.01,303.263z"
   id="path783" />
				<g
   id="g790">
					<g
   id="g786">
						<path
   style="fill:#AE7461;"
   d="M147.046,305.246c0,0,2.271-4.274-5.477-11.621l-25.512-18.166l-0.28-10.756l6.825-1.533        c0,0,6.812,2.271,8.549-2.538l0,0c-0.079-1.501-1.147-2.765-2.613-3.095l-4.065-0.913c0,0,0-2.137-1.069-2.538        c-1.069-0.401-13.09-4.141-13.09-4.141l-6.946,1.336l2.805-3.072c0,0,8.661-5.187,5.723-12.801l-0.574-0.783l-10.358,6.104        c0,0-0.267-4.809-3.206-5.877c0,0-18.326,12.085-20.57,15.761c-2.087,3.42-2.404,28.585-1.202,32.859        c1.202,4.274,28.05,19.769,32.458,23.642c4.408,3.874,9.216,6.545,13.624,12.155"
   id="path784" />
						<g
   id="g785">
							<path
   style="fill:#6F4439;"
   d="M122.068,319.271c0,0-0.14-0.146-0.395-0.445c-0.25-0.303-0.632-0.746-1.15-1.312         c-1.031-1.135-2.643-2.736-4.925-4.569c-1.136-0.921-2.436-1.903-3.855-2.99c-0.706-0.547-1.446-1.117-2.196-1.736         c-0.76-0.614-1.492-1.301-2.338-1.904c-3.385-2.435-7.44-4.957-11.872-7.835c-4.43-2.884-9.333-6.002-14.346-9.76         c-1.242-0.954-2.499-1.941-3.669-3.086c-0.568-0.588-1.166-1.174-1.513-2.026c-0.226-0.829-0.316-1.658-0.407-2.494         c-0.295-3.343-0.344-6.789-0.339-10.328c0.018-3.539,0.119-7.171,0.369-10.883c0.119-1.856,0.3-3.731,0.563-5.621         l0.238-1.419l0.344-1.419c0.301-0.991,0.986-1.777,1.682-2.451c2.829-2.706,6.037-5.023,9.282-7.394         c3.26-2.352,6.625-4.665,10.075-6.962l0.112-0.075l0.119,0.047c0.559,0.222,1.073,0.57,1.495,1.014         c0.408,0.454,0.732,0.978,0.993,1.53c0.505,1.117,0.781,2.318,0.889,3.562l-0.392-0.21c1.682-0.991,3.491-2.057,5.31-3.129         c1.694-0.998,3.379-1.991,5.048-2.975l0.203-0.12l0.139,0.19c0.194,0.265,0.384,0.524,0.574,0.783l0.024,0.033l0.009,0.028         c0.412,1.255,0.724,2.573,0.585,3.901c-0.118,1.316-0.523,2.589-1.135,3.737c-1.281,2.273-3.157,4.088-5.284,5.477         l0.057-0.047c-0.942,1.031-1.877,2.054-2.806,3.071l-0.236-0.423c2.343-0.45,4.658-0.894,6.946-1.333l0.063-0.012l0.06,0.019         c2.728,0.865,5.416,1.717,8.061,2.555c1.322,0.419,2.634,0.835,3.934,1.248l0.973,0.309c0.352,0.087,0.726,0.411,0.886,0.736         c0.354,0.67,0.445,1.366,0.47,2.071l-0.188-0.235c0.785,0.177,1.566,0.353,2.343,0.528l1.161,0.262         c0.374,0.09,0.785,0.154,1.179,0.328c0.776,0.33,1.419,0.938,1.794,1.68c0.19,0.37,0.309,0.774,0.358,1.183l0.014,0.154         l0.007,0.077l0.001,0.01l0,0.005c-0.006,0.042,0.014-0.088-0.014,0.096l-0.008,0.017l-0.016,0.034l-0.127,0.274l-0.259,0.545         c-0.438,0.679-1.017,1.267-1.723,1.647c-0.709,0.362-1.473,0.566-2.239,0.654c-1.537,0.134-3.038-0.07-4.466-0.503         l0.119,0.006c-2.345,0.523-4.613,1.03-6.827,1.524l0.166-0.213c0.092,3.771,0.179,7.345,0.263,10.756l-0.082-0.154         c10.644,7.621,19.324,13.836,25.464,18.233l0.007,0.005l0.006,0.005c3.194,3.047,5.038,6.044,5.537,8.296         c0.268,1.117,0.236,2.006,0.131,2.576c-0.105,0.575-0.271,0.831-0.271,0.831s0.127-0.27,0.211-0.841         c0.084-0.567,0.096-1.442-0.187-2.538c-0.529-2.211-2.381-5.155-5.579-8.159l0.012,0.01         c-6.163-4.364-14.876-10.534-25.56-18.099l-0.08-0.056l-0.003-0.098c-0.094-3.411-0.193-6.985-0.297-10.755l-0.005-0.175         l0.171-0.039c2.212-0.5,4.479-1.012,6.823-1.542l0.057-0.013l0.062,0.019c1.354,0.408,2.833,0.605,4.278,0.473         c0.721-0.084,1.427-0.278,2.068-0.606c0.636-0.346,1.146-0.871,1.542-1.48l0.232-0.497l0.117-0.249l0.015-0.031l0.007-0.016         c-0.026,0.181-0.007,0.048-0.014,0.087l0-0.004l-0.001-0.008l-0.007-0.067l-0.013-0.134         c-0.044-0.356-0.148-0.707-0.313-1.028c-0.328-0.644-0.888-1.172-1.561-1.457c-0.327-0.147-0.704-0.207-1.098-0.299         l-1.161-0.26c-0.777-0.174-1.558-0.348-2.343-0.524l-0.182-0.041l-0.006-0.194c-0.019-0.625-0.123-1.304-0.41-1.831         c-0.158-0.271-0.326-0.432-0.635-0.521l-0.972-0.307c-1.299-0.41-2.608-0.823-3.928-1.239         c-2.641-0.833-5.324-1.68-8.048-2.54l0.122,0.007c-2.288,0.441-4.602,0.887-6.945,1.339l-0.755,0.146l0.518-0.568         c0.928-1.018,1.862-2.041,2.804-3.073l0.021-0.023l0.036-0.024c2.032-1.327,3.879-3.117,5.092-5.283         c0.582-1.096,0.961-2.296,1.073-3.531c0.132-1.245-0.166-2.483-0.553-3.673l0.033,0.06c-0.19-0.259-0.38-0.519-0.574-0.783         l0.342,0.07c-1.669,0.984-3.354,1.977-5.048,2.975c-1.819,1.072-3.628,2.138-5.31,3.129l-0.356,0.21l-0.036-0.419         c-0.1-1.159-0.37-2.339-0.841-3.373c-0.243-0.514-0.54-0.991-0.902-1.395c-0.374-0.392-0.815-0.687-1.292-0.88l0.231-0.027         c-3.442,2.29-6.807,4.6-10.061,6.944c-3.235,2.358-6.453,4.683-9.228,7.332c-0.692,0.668-1.297,1.378-1.562,2.246         l-0.333,1.368l-0.236,1.396c-0.263,1.868-0.446,3.733-0.567,5.582c-0.255,3.697-0.363,7.322-0.387,10.852         c-0.012,3.528,0.029,6.972,0.313,10.283l0.142,1.228c0.069,0.397,0.14,0.802,0.24,1.175c0.272,0.681,0.85,1.295,1.401,1.855         c1.139,1.121,2.387,2.108,3.619,3.06c4.979,3.756,9.871,6.893,14.286,9.795c4.421,2.899,8.458,5.438,11.846,7.908         c0.854,0.617,1.592,1.319,2.337,1.928c0.742,0.622,1.476,1.195,2.177,1.748c1.409,1.097,2.702,2.092,3.832,3.028         c2.27,1.862,3.868,3.491,4.878,4.651C121.614,318.604,122.068,319.271,122.068,319.271z"
   id="path785" />
						</g>
					</g>
					<g
   id="g787">
						<path
   style="fill:#6F4439;"
   d="M104.591,251.047c0.006,0.036-0.426,0.145-1.206,0.339c-0.78,0.195-1.909,0.472-3.288,0.866        c-1.376,0.396-3.012,0.905-4.722,1.682c-0.824,0.404-1.753,0.883-2.359,1.575c-0.546,0.782-0.808,1.845-1.042,2.89        c-0.426,2.129-0.592,4.215-0.716,6.106c-0.118,1.893-0.169,3.603-0.203,5.04c-0.024,1.354-0.044,2.494-0.06,3.404        c-0.015,0.804-0.032,1.25-0.069,1.251c-0.036,0.001-0.087-0.443-0.134-1.247c-0.047-0.805-0.09-1.97-0.106-3.411        c-0.013-1.441,0-3.158,0.092-5.064c0.099-1.905,0.249-4.005,0.685-6.185c0.249-1.081,0.494-2.16,1.143-3.089        c0.771-0.861,1.699-1.281,2.568-1.706c1.767-0.774,3.427-1.248,4.826-1.602c1.401-0.351,2.547-0.574,3.342-0.709        C104.139,251.055,104.584,251.012,104.591,251.047z"
   id="path786" />
					</g>
					<g
   id="g788">
						<path
   style="fill:#6F4439;"
   d="M124.472,256.625c-0.017,0.049-0.494-0.108-1.376-0.259c-0.881-0.166-2.182-0.253-3.786-0.25        c-1.605,0.012-3.52,0.15-5.621,0.467c-2.086,0.341-4.422,0.762-6.645,1.703c-0.56,0.224-1.061,0.544-1.43,0.905        c-0.303,0.416-0.489,0.988-0.642,1.529c-0.298,1.101-0.476,2.206-0.626,3.257c-0.293,2.106-0.452,4.022-0.572,5.63        c-0.232,3.218-0.281,5.212-0.281,5.212c-0.145,0.015-0.225-2.002-0.087-5.233c0.074-1.617,0.195-3.542,0.464-5.673        c0.139-1.065,0.307-2.182,0.61-3.328c0.164-0.571,0.327-1.157,0.731-1.719c0.479-0.489,1.038-0.815,1.619-1.054        c2.326-0.982,4.67-1.38,6.791-1.702c2.128-0.294,4.065-0.395,5.691-0.36c1.625,0.044,2.94,0.189,3.825,0.419        c0.449,0.078,0.776,0.235,1.003,0.306C124.365,256.557,124.479,256.608,124.472,256.625z"
   id="path787" />
					</g>
					<g
   id="g789">
						<path
   style="fill:#6F4439;"
   d="M100.964,240.73c0.02,0.03-0.371,0.333-1.091,0.862c-0.801,0.586-1.825,1.335-3.05,2.232        c-1.285,0.945-2.811,2.075-4.472,3.371c-1.653,1.3-3.477,2.743-5.174,4.45c-1.768,1.651-2.375,3.953-2.904,5.963        c-0.499,2.036-0.776,3.915-0.989,5.492c-0.207,1.579-0.331,2.863-0.421,3.75c-0.089,0.887-0.14,1.379-0.176,1.378        c-0.036-0.001-0.053-0.497-0.026-1.391c0.028-0.894,0.096-2.187,0.258-3.78c0.167-1.591,0.407-3.488,0.887-5.56        c0.244-1.035,0.541-2.116,0.982-3.201c0.431-1.086,1.131-2.154,2.015-3.013c1.74-1.749,3.577-3.18,5.255-4.468        c1.684-1.28,3.236-2.382,4.551-3.29c1.315-0.908,2.395-1.62,3.149-2.099C100.514,240.946,100.944,240.7,100.964,240.73z"
   id="path788" />
					</g>
				</g>
				<g
   id="g791">
					<path
   style="fill:#6F4439;"
   d="M196.474,418.821c-0.009,0.003-0.049-0.099-0.12-0.299c-0.077-0.227-0.176-0.521-0.301-0.891       c-0.264-0.819-0.635-1.971-1.107-3.439c-0.459-1.5-1.074-3.318-1.802-5.423c-0.36-1.056-0.744-2.183-1.151-3.377       c-0.431-1.189-0.886-2.444-1.364-3.761c-1.883-5.283-4.339-11.495-7.133-18.362c-2.838-6.851-6.085-14.33-9.613-22.127       c-7.09-15.586-13.918-29.505-18.87-39.574c-2.466-5.011-4.468-9.076-5.869-11.923c-0.674-1.387-1.202-2.476-1.579-3.25       c-0.165-0.353-0.297-0.634-0.399-0.851c-0.087-0.193-0.128-0.294-0.12-0.298c0.008-0.004,0.065,0.089,0.167,0.274       c0.114,0.211,0.26,0.484,0.445,0.828c0.397,0.764,0.955,1.838,1.666,3.206c1.437,2.829,3.489,6.87,6.018,11.849       c5.037,10.028,11.92,23.927,19.015,39.523c3.53,7.802,6.767,15.293,9.583,22.16c2.772,6.884,5.195,13.116,7.036,18.42       c0.466,1.323,0.91,2.583,1.33,3.777c0.394,1.2,0.766,2.333,1.115,3.393c0.703,2.116,1.29,3.945,1.72,5.455       c0.433,1.481,0.773,2.643,1.014,3.47c0.104,0.376,0.187,0.675,0.251,0.906C196.459,418.712,196.482,418.818,196.474,418.821z"
   id="path790" />
				</g>
			</g>
			<g
   id="g793">
				<path
   style="fill:#6F4439;"
   d="M207.423,425.63c0.017-0.004,0.1,0.274,0.241,0.809c0.148,0.533,0.333,1.328,0.552,2.356      c0.413,2.056,0.959,5.075,0.939,8.854c-0.023,1.884-0.206,3.966-0.814,6.119c-0.599,2.141-1.788,4.346-3.614,6.08      c-3.578,3.522-8.866,5.998-14.65,6.411c-2.889,0.185-5.756-0.187-8.326-1.14c-2.576-0.976-4.766-2.45-6.79-3.897      c-4.033-2.941-7.225-6.13-9.709-8.951c-2.481-2.833-4.199-5.363-5.294-7.156c-0.549-0.897-0.942-1.613-1.187-2.11      c-0.254-0.492-0.379-0.754-0.363-0.762c0.016-0.008,0.172,0.237,0.455,0.711c0.274,0.479,0.693,1.176,1.267,2.053      c1.143,1.752,2.897,4.234,5.399,7.02c2.504,2.773,5.704,5.914,9.714,8.806c2.007,1.421,4.2,2.876,6.686,3.807      c2.498,0.918,5.291,1.28,8.114,1.099c5.653-0.401,10.845-2.819,14.346-6.231c1.793-1.689,2.928-3.77,3.539-5.862      c0.61-2.094,0.814-4.142,0.86-6.004c0.066-3.735-0.419-6.749-0.77-8.809c-0.188-1.031-0.34-1.831-0.455-2.371      C207.454,425.921,207.406,425.634,207.423,425.63z"
   id="path792" />
			</g>
		</g>
	</g>
</g>
</svg>
