<?xml version="1.0" encoding="UTF-8" standalone="no"?>
<!-- Generator: Adobe Illustrator 27.5.0, SVG Export Plug-In . SVG Version: 6.00 Build 0)  -->

<svg
   version="1.1"
   x="0px"
   y="0px"
   viewBox="0 0 500 500"
   style="enable-background:new 0 0 500 500;"
   xml:space="preserve"
   id="svg141"
   sodipodi:docname="7887400_3793105.svg"
   inkscape:version="1.4 (e7c3feb100, 2024-10-09)"
   xmlns:inkscape="http://www.inkscape.org/namespaces/inkscape"
   xmlns:sodipodi="http://sodipodi.sourceforge.net/DTD/sodipodi-0.dtd"
   xmlns="http://www.w3.org/2000/svg"
   xmlns:svg="http://www.w3.org/2000/svg"><defs
   id="defs141" /><sodipodi:namedview
   id="namedview141"
   pagecolor="#ffffff"
   bordercolor="#000000"
   borderopacity="0.25"
   inkscape:showpageshadow="2"
   inkscape:pageopacity="0.0"
   inkscape:pagecheckerboard="0"
   inkscape:deskcolor="#d1d1d1"
   inkscape:zoom="0.9283854"
   inkscape:cx="52.241235"
   inkscape:cy="273.0547"
   inkscape:window-width="1536"
   inkscape:window-height="795"
   inkscape:window-x="0"
   inkscape:window-y="0"
   inkscape:window-maximized="1"
   inkscape:current-layer="svg141" />
<g
   id="Background_Complete">
	<g
   id="g8">
		<rect
   y="382.398"
   style="fill:#EBEBEB;"
   width="500"
   height="0.25"
   id="rect1" />
		<rect
   x="52.459"
   y="391.922"
   style="fill:#EBEBEB;"
   width="33.122"
   height="0.25"
   id="rect2" />
		<rect
   x="136.333"
   y="389.208"
   style="fill:#EBEBEB;"
   width="43.5"
   height="0.25"
   id="rect3" />
		<rect
   x="81.582"
   y="397.083"
   style="fill:#EBEBEB;"
   width="38.751"
   height="0.25"
   id="rect4" />
		<rect
   x="406.708"
   y="399.528"
   style="fill:#EBEBEB;"
   width="43.193"
   height="0.25"
   id="rect5" />
		<rect
   x="379"
   y="399.528"
   style="fill:#EBEBEB;"
   width="18.805"
   height="0.25"
   id="rect6" />
		<rect
   x="238.444"
   y="395.306"
   style="fill:#EBEBEB;"
   width="36.556"
   height="0.25"
   id="rect7" />
		<path
   style="fill:#EBEBEB;"
   d="M237.014,337.8H43.915c-3.147,0-5.708-2.561-5.708-5.708V60.66c0-3.147,2.561-5.708,5.708-5.708    h193.099c3.146,0,5.707,2.561,5.707,5.708v271.432C242.721,335.239,240.16,337.8,237.014,337.8z M43.915,55.203    c-3.01,0-5.458,2.448-5.458,5.458v271.432c0,3.01,2.448,5.458,5.458,5.458h193.099c3.009,0,5.457-2.448,5.457-5.458V60.66    c0-3.009-2.448-5.458-5.457-5.458H43.915z"
   id="path7" />
		<path
   style="fill:#EBEBEB;"
   d="M453.31,337.8H260.212c-3.147,0-5.707-2.561-5.707-5.708V60.66c0-3.147,2.561-5.708,5.707-5.708    H453.31c3.148,0,5.708,2.561,5.708,5.708v271.432C459.019,335.239,456.458,337.8,453.31,337.8z M260.212,55.203    c-3.009,0-5.457,2.448-5.457,5.458v271.432c0,3.01,2.448,5.458,5.457,5.458H453.31c3.01,0,5.458-2.448,5.458-5.458V60.66    c0-3.009-2.448-5.458-5.458-5.458H260.212z"
   id="path8" />
	</g>
	<g
   id="g42">
		<g
   id="g12">
			<g
   id="g10">
				<rect
   x="286.07"
   y="76.988"
   style="fill:#EBEBEB;"
   width="64.913"
   height="82.238"
   id="rect8" />
				
					<rect
   x="283.714"
   y="76.988"
   transform="matrix(-1 -1.224647e-16 1.224647e-16 -1 569.7832 236.2145)"
   style="fill:#E0E0E0;"
   width="2.356"
   height="82.238"
   id="rect9" />
				
					<rect
   x="284.845"
   y="93.088"
   transform="matrix(-1.836970e-16 1 -1 -1.836970e-16 436.6328 -200.4187)"
   style="fill:#FFFFFF;"
   width="67.363"
   height="50.037"
   id="rect10" />
			</g>
			
				<ellipse
   transform="matrix(0.7071 -0.7071 0.7071 0.7071 18.8488 256.068)"
   style="fill:#F0F0F0;"
   cx="318.526"
   cy="105.281"
   rx="10.146"
   ry="10.146"
   id="ellipse10" />
			<rect
   x="303.218"
   y="125.696"
   style="fill:#F0F0F0;"
   width="30.616"
   height="4.645"
   id="rect11" />
			<rect
   x="303.218"
   y="133.493"
   style="fill:#F0F0F0;"
   width="30.616"
   height="4.645"
   id="rect12" />
		</g>
		<g
   id="g18">
			<g
   id="g15">
				<rect
   x="371.821"
   y="125.545"
   style="fill:#EBEBEB;"
   width="64.913"
   height="82.238"
   id="rect13" />
				
					<rect
   x="369.465"
   y="125.545"
   transform="matrix(-1 -1.224647e-16 1.224647e-16 -1 741.2856 333.3269)"
   style="fill:#E0E0E0;"
   width="2.356"
   height="82.238"
   id="rect14" />
				
					<rect
   x="370.596"
   y="141.645"
   transform="matrix(-1.836970e-16 1 -1 -1.836970e-16 570.9404 -237.6138)"
   style="fill:#FFFFFF;"
   width="67.363"
   height="50.037"
   id="rect15" />
			</g>
			<path
   style="fill:#F0F0F0;"
   d="M404.277,189.985c-7.029,0-12.748-5.719-12.748-12.748c0-7.029,5.719-12.747,12.748-12.747     s12.749,5.718,12.749,12.747C417.026,184.267,411.307,189.985,404.277,189.985z M404.277,165.59     c-6.422,0-11.647,5.226-11.647,11.648c0,6.423,5.225,11.648,11.647,11.648c6.423,0,11.648-5.225,11.648-11.648     C415.925,170.815,410.7,165.59,404.277,165.59z"
   id="path15" />
			
				<rect
   x="388.969"
   y="153.941"
   transform="matrix(-1 -1.224647e-16 1.224647e-16 -1 808.5534 310.9115)"
   style="fill:#F0F0F0;"
   width="30.616"
   height="3.03"
   id="rect16" />
			
				<rect
   x="388.969"
   y="148.855"
   transform="matrix(-1 -1.224647e-16 1.224647e-16 -1 808.5534 300.7392)"
   style="fill:#F0F0F0;"
   width="30.616"
   height="3.03"
   id="rect17" />
			
				<rect
   x="394.13"
   y="143.768"
   transform="matrix(-1 -1.224647e-16 1.224647e-16 -1 808.5534 290.567)"
   style="fill:#F0F0F0;"
   width="20.293"
   height="3.03"
   id="rect18" />
		</g>
		<g
   id="g20">
			<rect
   x="64.333"
   y="266.414"
   style="fill:#F5F5F5;"
   width="376"
   height="5.437"
   id="rect19" />
			<rect
   x="64.333"
   y="266.414"
   style="fill:#E6E6E6;"
   width="20"
   height="5.437"
   id="rect20" />
		</g>
		<g
   id="g21">
			<path
   style="fill:#F5F5F5;"
   d="M104.908,245.663h-7.249c-1.788,0-3.238,1.449-3.238,3.238v17.514h13.724V248.9     C108.145,247.112,106.696,245.663,104.908,245.663z"
   id="path20" />
			<path
   style="fill:#E6E6E6;"
   d="M104.79,242.436h-7.015c-0.298,0-0.54,0.242-0.54,0.54v2.147c0,0.298,0.242,0.54,0.54,0.54h7.015     c0.298,0,0.54-0.242,0.54-0.54v-2.147C105.331,242.678,105.089,242.436,104.79,242.436z"
   id="path21" />
		</g>
		<g
   id="g23">
			<path
   style="fill:#E6E6E6;"
   d="M86.487,239.807h-7.249c-1.788,0-3.237,1.449-3.237,3.237v23.37h13.724v-23.37     C89.724,241.257,88.275,239.807,86.487,239.807z"
   id="path22" />
			<path
   style="fill:#E6E6E6;"
   d="M84.007,234.222h-2.289c-0.565,0-1.022,0.458-1.022,1.022v7.38h4.334v-7.38     C85.029,234.68,84.571,234.222,84.007,234.222z"
   id="path23" />
		</g>
		<g
   id="g25">
			<path
   style="fill:#F5F5F5;"
   d="M394.037,238.555h4.479c1.878,0,3.401,1.523,3.401,3.401v24.459h-11.281v-24.459     C390.636,240.078,392.159,238.555,394.037,238.555z"
   id="path24" />
			<path
   style="fill:#E6E6E6;"
   d="M393.517,234.222h5.519c0.314,0,0.568,0.254,0.568,0.568v3.198c0,0.313-0.254,0.568-0.568,0.568     h-5.519c-0.313,0-0.568-0.254-0.568-0.568v-3.198C392.949,234.477,393.204,234.222,393.517,234.222z"
   id="path25" />
		</g>
		<g
   id="g27">
			<path
   style="fill:#F5F5F5;"
   d="M380.147,241.983h3.928c1.647,0,2.983,1.335,2.983,2.982v21.45h-9.893v-21.45     C377.165,243.319,378.5,241.983,380.147,241.983z"
   id="path26" />
			<path
   style="fill:#E6E6E6;"
   d="M379.691,238.184h4.84c0.275,0,0.498,0.223,0.498,0.498v2.804c0,0.275-0.223,0.498-0.498,0.498     h-4.84c-0.275,0-0.498-0.223-0.498-0.498v-2.804C379.194,238.406,379.416,238.184,379.691,238.184z"
   id="path27" />
		</g>
		<g
   id="g29">
			<path
   style="fill:#E6E6E6;"
   d="M410.162,239.806h11.512c2.113,0,3.826,1.713,3.826,3.826v22.782h-19.163v-22.782     C406.336,241.519,408.049,239.806,410.162,239.806z"
   id="path28" />
			<path
   style="fill:#E6E6E6;"
   d="M414.1,234.222h3.635c0.667,0,1.208,0.541,1.208,1.208v7.194h-6.052v-7.194     C412.892,234.762,413.433,234.222,414.1,234.222z"
   id="path29" />
		</g>
		<g
   id="g31">
			<path
   style="fill:#F5F5F5;"
   d="M309.574,245.163h-3.63c-1.458,0-2.64,1.182-2.64,2.64v18.612h8.909v-18.612     C312.214,246.345,311.032,245.163,309.574,245.163z"
   id="path30" />
			<path
   style="fill:#E6E6E6;"
   d="M309.946,241.858h-4.374c-0.243,0-0.44,0.197-0.44,0.441v2.424c0,0.243,0.197,0.441,0.44,0.441     h4.374c0.243,0,0.441-0.197,0.441-0.441v-2.424C310.387,242.055,310.19,241.858,309.946,241.858z"
   id="path31" />
		</g>
		<g
   id="g33">
			<path
   style="fill:#F5F5F5;"
   d="M320.538,247.778h-3.183c-1.279,0-2.315,1.036-2.315,2.315v16.322h7.813v-16.322     C322.853,248.815,321.817,247.778,320.538,247.778z"
   id="path32" />
			<path
   style="fill:#E6E6E6;"
   d="M320.864,244.88h-3.836c-0.213,0-0.386,0.173-0.386,0.386v2.126c0,0.213,0.173,0.386,0.386,0.386     h3.836c0.213,0,0.386-0.173,0.386-0.386v-2.126C321.251,245.053,321.078,244.88,320.864,244.88z"
   id="path33" />
		</g>
		<g
   id="g35">
			<path
   style="fill:#E6E6E6;"
   d="M296.845,246.118h-9.196c-1.64,0-2.969,1.329-2.969,2.969v17.327h15.135v-17.327     C299.815,247.447,298.485,246.118,296.845,246.118z"
   id="path34" />
			<path
   style="fill:#E6E6E6;"
   d="M293.699,241.857h-2.904c-0.518,0-0.938,0.42-0.938,0.938v5.472h4.779v-5.472     C294.637,242.277,294.217,241.857,293.699,241.857z"
   id="path35" />
		</g>
		<g
   id="g38">
			<path
   style="fill:#E6E6E6;"
   d="M97.682,304.532l3.87,4.101c0,0,2.399-5.373,5.939-7.495c0.846-0.507,0.889-1.725,0.114-2.335     l-2.148-1.691c-0.54-0.425-1.301-0.41-1.822,0.039C102.078,298.491,98.954,301.441,97.682,304.532z"
   id="path36" />
			<path
   style="fill:#F0F0F0;"
   d="M96.96,297.604l14.1,20.744l-8.014,8.014l-20.744-14.1c-5.475-3.721-6.211-11.507-1.53-16.188l0,0     C85.453,291.394,93.239,292.129,96.96,297.604z"
   id="path37" />
			<path
   style="fill:#F0F0F0;"
   d="M92.934,297.498l7.313,9.864c0,0,6.571-11.001,14.772-14.679c1.96-0.879,2.366-3.5,0.847-5.02     l-4.209-4.209c-1.058-1.058-2.708-1.221-3.949-0.386C103.995,285.566,96.481,291.143,92.934,297.498z"
   id="path38" />
		</g>
		<g
   id="g41">
			<path
   style="fill:#E6E6E6;"
   d="M394.211,304.532l3.87,4.101c0,0,2.399-5.373,5.939-7.495c0.846-0.507,0.889-1.725,0.114-2.335     l-2.148-1.691c-0.54-0.425-1.301-0.41-1.822,0.039C398.607,298.491,395.484,301.441,394.211,304.532z"
   id="path39" />
			<path
   style="fill:#F0F0F0;"
   d="M393.49,297.604l14.1,20.744l-8.014,8.014l-20.744-14.1c-5.475-3.721-6.211-11.507-1.53-16.188h0     C381.983,291.394,389.768,292.129,393.49,297.604z"
   id="path40" />
			<path
   style="fill:#F0F0F0;"
   d="M389.463,297.498l7.313,9.864c0,0,6.571-11.001,14.772-14.679c1.96-0.879,2.366-3.5,0.847-5.02     l-4.209-4.209c-1.058-1.058-2.708-1.221-3.949-0.386C400.524,285.566,393.01,291.143,389.463,297.498z"
   id="path41" />
		</g>
	</g>
</g>
<g
   id="Background_Simple"
   style="display:none;">
	<g
   style="display:inline;"
   id="g43">
		<path
   style="fill:#407BFF;"
   d="M387.653,196.729c-58.18,29.138-51.27,105.359-87.527,137.254    c-83.939,60.964-282.38,6.924-234.626-120.32c19.581-47.135,113.137-57.339,141.619-73.499    c45.126-18.731,88.449-50.186,136.23-57.384C418.074,65.599,457.247,169.158,387.653,196.729z"
   id="path42" />
		<path
   style="opacity:0.9;fill:#FFFFFF;"
   d="M387.653,196.729c-58.18,29.138-51.27,105.359-87.527,137.254    c-83.939,60.964-282.38,6.924-234.626-120.32c19.581-47.135,113.137-57.339,141.619-73.499    c45.126-18.731,88.449-50.186,136.23-57.384C418.074,65.599,457.247,169.158,387.653,196.729z"
   id="path43" />
	</g>
</g>
<g
   id="Shadow_1_">
	<ellipse
   id="_x3C_Path_x3E__228_"
   style="fill:#F5F5F5;"
   cx="250"
   cy="416.238"
   rx="193.889"
   ry="11.323" />
</g>
<g
   id="Mirror">
	<g
   id="g68">
		<rect
   x="251.656"
   y="131.889"
   style="fill:#407BFF;"
   width="1"
   height="6.778"
   id="rect43" />
		<rect
   x="251.656"
   y="109.444"
   style="fill:#407BFF;"
   width="1"
   height="17.111"
   id="rect44" />
		<rect
   x="100.2"
   y="96.951"
   style="fill:#407BFF;"
   width="148.956"
   height="128.416"
   id="rect45" />
		<g
   id="g47">
			
				<rect
   x="98.47"
   y="96.951"
   transform="matrix(-1 -1.224647e-16 1.224647e-16 -1 198.6697 322.3172)"
   style="fill:#407BFF;"
   width="1.73"
   height="128.416"
   id="rect46" />
			
				<rect
   x="98.47"
   y="96.951"
   transform="matrix(-1 -1.224647e-16 1.224647e-16 -1 198.6697 322.3172)"
   style="opacity:0.2;"
   width="1.73"
   height="128.416"
   id="rect47" />
		</g>
		
			<rect
   x="111.113"
   y="87.395"
   transform="matrix(-1.836970e-16 1 -1 -1.836970e-16 335.8368 -13.5197)"
   style="opacity:0.8;fill:#FFFFFF;"
   width="127.131"
   height="147.528"
   id="rect48" />
		<g
   style="opacity:0.4;"
   id="g67">
			<path
   style="opacity:0.2;fill:#407BFF;"
   d="M239.006,161.311l-0.755-1.745c-0.054-0.119-0.129-0.227-0.194-0.334     c-0.043-0.345-0.14-0.701-0.302-1.056c-0.603-1.39-1.821-2.198-2.726-1.8c-0.334,0.151-0.582,0.442-0.722,0.83l-1.918-4.386     l0.765-1.961l2.511-1.099c0,0,2.436-6.002,1.789-12.047l-5.506,14.094l-5.798-13.221c-0.398,6.077,2.274,11.971,2.274,11.971     l2.553,1.002l0.56,1.272l-1.487,3.803c-0.151-0.377-0.409-0.657-0.754-0.798c-0.367-0.14-0.787-0.086-1.185,0.129     c-0.021-0.01-0.033-0.022-0.054-0.032c-0.043-0.033-0.086-0.075-0.14-0.108c-0.151-0.086-0.301-0.162-0.463-0.205     c-0.108-0.032-0.194-0.032-0.259-0.022c-0.022,0.011-0.033,0.011-0.043,0.011c-0.065,0.022-0.108,0.065-0.151,0.119     c-0.011,0.011-0.011,0.022-0.022,0.032c-0.022,0.065-0.054,0.129-0.064,0.216c0,0.01,0,0.01,0,0.021     c-0.011,0.086-0.011,0.194,0,0.313v0.064c0.01,0.119,0.021,0.237,0.043,0.356c0.011,0.022,0.011,0.043,0.011,0.076     c0.022,0.075,0.032,0.151,0.043,0.226c-0.14,0.215-0.269,0.452-0.366,0.711c-0.496,1.249-0.313,2.51,0.377,3.038     c-0.258,1.261-0.625,2.564-0.732,3.534v0.033c-0.011,0.086-0.022,0.172-0.022,0.248c-0.033,0.313-0.043,0.636-0.033,0.97     c-0.441,2.015-0.894,4.041-1.379,6.034c-0.539,2.349-1.121,4.676-1.767,6.961c-0.614,2.284-1.304,4.547-2.09,6.627     c-0.248,0.657-0.528,1.293-0.808,1.864c-0.291-0.226-0.582-0.452-0.862-0.7c-0.819-0.711-1.627-1.444-2.381-2.241     c-0.776-0.786-1.509-1.616-2.209-2.478c-0.722-0.851-1.401-1.746-2.058-2.662c-1.314-1.821-2.478-3.771-3.577-5.754     c-0.56-0.991-1.077-2.004-1.563-3.028c-0.107-0.216-0.205-0.431-0.313-0.657c0.464-0.787,0.755-1.261,0.755-1.261     s-1.314-2.101-4.041-3.922c-0.97-0.776-2.166-1.368-3.545-1.767c-0.01,0-0.022-0.011-0.032-0.011     c-0.593-0.161-1.207-0.29-1.854-0.377c-0.173-0.021-0.345-0.033-0.517-0.054c0.183-0.635,0.313-1.002,0.313-1.002     s-1.756-0.593-2.349-0.593c-0.097,0.162-0.194,0.345-0.291,0.55c-0.83-0.452-1.671-0.949-1.671-0.949s-0.194,0.108-0.507,0.292     c-0.819-1.584-1.153-3.739-1.206-6.002c6.616,0.356,12.564-3.329,12.004-8.48c0.226-0.118,0.463-0.258,0.689-0.474     c1.972-1.81,0.776-3.459-1.099-4.407c4.515-6.444,1.39-15.182-5.571-18.652c-5.582-2.769-15.839-2.877-15.182,0.743     c-6.368,0.959-5.377,13.157-13.61,14.547c1.423,3.793,3.804,5.226,5.819,5.7c0,0.324,0.01,0.636,0.032,0.938     c0.291,5.323,4.321,8.803,8.965,9.008c0.022,0.065,0.043,0.14,0.054,0.216c0.054,0.205,0.097,0.409,0.14,0.625     c0.032,0.162,0.065,0.323,0.086,0.474c0.065,0.355,0.108,0.711,0.14,1.067c0.226,2.64-0.56,5.043-4.202,6.045     c-0.075-0.259-0.118-0.42-0.118-0.42s-1.196,0.01-2.619,0.313c0.054-0.184,0.097-0.356,0.161-0.539c0,0-1.347,0.269-2.586,0.754     c-0.097,0.205-0.194,0.42-0.291,0.625c-1.239,0.226-2.403,0.647-3.448,1.25c-2.586,0.873-4.483,2.306-5.754,3.513     c-1.261,1.196-1.875,2.188-1.875,2.188s0.485,0.775,1.174,1.993c-0.237,1.293-0.496,2.619-0.787,3.901     c-0.464,2.069-0.938,4.138-1.487,6.174c-0.539,2.058-1.175,4.062-1.8,6.088c-0.668,1.994-1.347,3.987-2.133,5.926     c-0.184,0.453-0.42,1.067-0.518,1.272c-0.15,0.324-0.366,0.7-0.614,1.099c-0.484,0.798-1.066,1.627-1.691,2.457     c-1.25,1.648-2.587,3.329-3.976,4.967c-2.349,2.812-4.795,5.614-7.22,8.416c-2.263-1.304-4.903-0.97-4.903-0.97l-2.953,0.259     c-1.961,0.161-3.405,1.907-3.211,3.868l0.194,1.886c0.129,1.283,1.045,2.328,2.295,2.619c0.776,0.173,1.595,0.194,2.381,0.032     l4.375-0.872c1.67-0.334,3.103-1.401,3.89-2.92l0.054-0.097c3.297-2.543,6.444-5.205,9.493-8.06     c1.627-1.541,3.244-3.114,4.785-4.849c0.775-0.862,1.54-1.756,2.295-2.769c0.377-0.517,0.743-1.067,1.11-1.703     c0.431-0.765,0.593-1.174,0.851-1.724c0.787-1.627,1.498-3.286,2.166-4.967c0.054,0.172,0.118,0.345,0.183,0.517     c0.592,4.59,1.368,9.913,2.349,16.109H169.3l0.851,3.2c0.14,2.748-0.108,7.478-0.507,13.404h39.793     c-3.125-8.502-5.689-13.878-5.689-13.878l0.075-2.726h-1.573c-0.226-5.463-0.345-10.387,0.323-16.67     c0.022-0.032,0.043-0.065,0.054-0.097c0.959-1.487,1.163-3.308,0.614-4.935c0.28-1.778,0.625-3.685,1.034-5.733     c0.668,1.002,1.358,1.993,2.09,2.953c1.573,2.09,3.319,4.084,5.269,5.894c0.97,0.916,1.994,1.788,3.071,2.597     c0.539,0.409,1.088,0.808,1.648,1.185c0.28,0.194,0.571,0.366,0.851,0.549l0.431,0.269l0.216,0.141l0.14,0.075l0.313,0.173     c0.205,0.107,0.42,0.215,0.69,0.301c0.269,0.086,0.517,0.173,0.83,0.205c0.582,0.108,1.239,0.076,1.799-0.054     c1.142-0.269,1.875-0.819,2.381-1.261c0.959-0.916,1.39-1.703,1.767-2.414c0.733-1.433,1.153-2.715,1.531-3.998     c0.754-2.543,1.217-5.01,1.627-7.478c0.388-2.468,0.69-4.935,0.949-7.381c0.15-1.638,0.269-3.254,0.366-4.892     c0.582,0,1.164-0.086,1.735-0.269l4.245-1.379c0.755-0.248,1.455-0.657,2.047-1.196     C239.221,163.854,239.512,162.485,239.006,161.311z M219.319,188.421c0,0,0.011-0.01,0.022-0.01     C219.308,188.443,219.298,188.454,219.319,188.421z M227.186,159.91c-0.335-0.442-0.377-1.217-0.076-1.982     c0.022-0.043,0.043-0.086,0.065-0.13c0.011,0.086,0.032,0.173,0.054,0.258c0,0.021,0,0.043,0.011,0.076     c0.01,0.075,0.021,0.151,0.032,0.226c0.011,0.032,0.011,0.054,0.011,0.075c0.01,0.097,0.022,0.183,0.022,0.259     C227.293,159.059,227.25,159.479,227.186,159.91z M229.61,158.498c-0.129-0.452-0.302-0.883-0.507-1.282h0.01     c-0.022-0.043-0.054-0.075-0.075-0.118c-0.065-0.119-0.13-0.226-0.194-0.324c-0.043-0.075-0.086-0.13-0.129-0.194     c-0.022-0.021-0.033-0.054-0.054-0.076c0.118,0,0.248,0.011,0.356,0.054C229.599,156.785,229.836,157.615,229.61,158.498z      M232.153,158.391l-1.293,0.593c0,0-0.431,0.172-1.023,0.528c-0.011-0.054-0.022-0.108-0.033-0.161     c0.054-0.108,0.108-0.205,0.151-0.313l2.026-5.183l1.627,3.696C232.961,157.68,232.422,157.949,232.153,158.391z      M236.032,157.615c0-0.011-0.011-0.021-0.011-0.021c-0.032-0.011-0.075-0.011-0.118-0.022c-0.313-0.086-0.635-0.14-0.97-0.129     c0.108-0.162,0.237-0.291,0.41-0.366c0.614-0.269,1.444,0.258,1.896,1.174C236.883,157.96,236.473,157.744,236.032,157.615z"
   id="path48" />
			<path
   style="fill:#407BFF;"
   d="M168.18,224.723h-60.234c0.399-3.48,3.093-5.991,6.95-5.991h43.769     C162.523,218.732,166.359,221.243,168.18,224.723z"
   id="path49" />
			<g
   id="g66">
				<path
   style="fill:#263238;"
   d="M162.048,191.428c3.429,0.314,3.124-2.245,3.124-2.245s-2.828-7.004-5.276-8.171      c2.644-1.347,5.385-4.041,3.867-7.947c-1.518-3.906-7.392-6.016-12.483-5.163c1.126,2.02-4.161,4.175-10.525,3.726      c-6.364-0.449-11.112,4.086-7.294,6.959c-6.168,0.045-6.815,8.333-2.306,13.539c7.898,9.119,12.893,16.317,18.235,17.305      C154.733,210.419,167.724,202.831,162.048,191.428z"
   id="path50" />
				<g
   id="g52">
					<path
   style="fill:#407BFF;"
   d="M185.165,224.723h-65.589c3.577-5.129,9.891-8.868,20.538-9.698       c1.422-0.118,2.855-0.226,4.299-0.334c0.054,0,0.108-0.011,0.162-0.011c0-0.043,0-0.086-0.011-0.14       c0-0.302,0.022-0.668,0.118-1.067c-1.562,0.022-4.407-0.173-3.771-2.058c0.366-1.099,0.83-1.444,1.455-1.347       c-0.323-0.571-0.345-1.153,0.291-1.67c2.015-1.627,2.435,0.173,3.653,2.898c5.269-0.054,13.997,1.897,16.68,2.995       c5.291,0.377,10.215,1.38,14.331,3.47C180.478,219.368,183.161,221.609,185.165,224.723z"
   id="path51" />
					<path
   style="opacity:0.4;fill:#FFFFFF;"
   d="M185.165,224.723h-65.589c3.577-5.129,9.891-8.868,20.538-9.698       c1.422-0.118,2.855-0.226,4.299-0.334c0.054,0,0.108-0.011,0.162-0.011c0-0.043,0-0.086-0.011-0.14       c0-0.302,0.022-0.668,0.118-1.067c-1.562,0.022-4.407-0.173-3.771-2.058c0.366-1.099,0.83-1.444,1.455-1.347       c-0.323-0.571-0.345-1.153,0.291-1.67c2.015-1.627,2.435,0.173,3.653,2.898c5.269-0.054,13.997,1.897,16.68,2.995       c5.291,0.377,10.215,1.38,14.331,3.47C180.478,219.368,183.161,221.609,185.165,224.723z"
   id="path52" />
				</g>
				<path
   style="fill:#FF8B7B;"
   d="M147.098,194.615c1.336,6.813,2.669,19.295-2.098,23.841c0,0,1.969,4.998,14.627,4.998      c13.92,0,6.546-4.998,6.546-4.998c-7.597-1.814-7.401-7.451-6.078-12.744L147.098,194.615z"
   id="path53" />
				<path
   style="opacity:0.2;"
   d="M160.091,205.715l-12.995-11.098c0.668,3.394,1.336,8.211,1.239,12.736      c1.282,1.918,2.866,3.448,5.107,4.687c2.134,1.185,4.321,1.638,6.411,1.52C159.035,211.233,159.412,208.431,160.091,205.715z"
   id="path54" />
				<path
   style="fill:#FF8B7B;"
   d="M139.849,192.04c3.167,8.683,4.58,13.926,10.393,17.139c8.745,4.834,18.459-2.455,17.95-11.909      c-0.458-8.51-5.561-21.279-15.262-22.23C143.374,174.104,136.682,183.358,139.849,192.04z"
   id="path55" />
				<path
   style="fill:#263238;"
   d="M143.614,196.875c2.215-2.095,2.993-10.789-0.12-13.649c6.585,2.768,16.762-1.257,19.484-4.647      c-6.374-5.949-18.226-6.383-24.751,0C131.702,184.962,134.934,192.745,143.614,196.875z"
   id="path56" />
				<path
   style="fill:#FF8B7B;"
   d="M139.076,198.115c1.396,1.978,3.548,3.319,5.479,3.871c2.904,0.831,3.971-1.469,2.841-3.974      c-1.017-2.255-3.754-5.404-6.513-5.144C138.163,193.125,137.48,195.854,139.076,198.115z"
   id="path57" />
				<path
   style="fill:#263238;"
   d="M159.669,200.423c-3.049,0.159-4.897-1.658-4.981-1.743c-0.09-0.09-0.091-0.234-0.003-0.322      c0.088-0.089,0.232-0.086,0.322,0.004c0.021,0.021,2.123,2.092,5.471,1.51c0.124-0.022,0.243,0.062,0.267,0.186      c0.025,0.124-0.056,0.242-0.18,0.263C160.256,200.375,159.957,200.408,159.669,200.423z"
   id="path58" />
				<path
   style="fill:#263238;"
   d="M153.776,191.318c0.248,0.749,0.84,1.243,1.323,1.104c0.482-0.139,0.672-0.859,0.424-1.608      s-0.84-1.243-1.323-1.104C153.718,189.849,153.528,190.569,153.776,191.318z"
   id="path59" />
				<path
   style="fill:#263238;"
   d="M162.563,188.753c0.248,0.749,0.84,1.243,1.323,1.104c0.482-0.139,0.672-0.859,0.424-1.608      c-0.248-0.749-0.84-1.243-1.323-1.104C162.505,187.284,162.315,188.004,162.563,188.753z"
   id="path60" />
				<path
   style="fill:#FF5652;"
   d="M160.321,189.801c0,0,3.11,3.835,5.648,5.386c-0.896,1.613-3.303,1.688-3.303,1.688      L160.321,189.801z"
   id="path61" />
				<path
   style="fill:#263238;"
   d="M150.772,190.412c0.128-0.048,0.23-0.153,0.266-0.295c0.503-1.944,2.095-2.432,2.112-2.436      c0.228-0.057,0.368-0.322,0.286-0.565c-0.082-0.242-0.343-0.381-0.583-0.311c-0.085,0.024-2.081,0.632-2.704,3.046      c-0.062,0.241,0.087,0.495,0.332,0.568C150.581,190.45,150.682,190.445,150.772,190.412z"
   id="path62" />
				<path
   style="fill:#263238;"
   d="M164.968,185.305c0.062-0.022,0.12-0.059,0.168-0.111c0.169-0.179,0.153-0.468-0.036-0.646      c-1.884-1.775-3.928-1.348-4.014-1.329c-0.24,0.043-0.389,0.296-0.323,0.544c0.066,0.246,0.314,0.402,0.558,0.35l0,0      c0.068-0.015,1.666-0.33,3.17,1.087C164.625,185.327,164.812,185.362,164.968,185.305z"
   id="path63" />
				<g
   id="g65">
					<path
   style="fill:#407BFF;"
   d="M173.679,224.723h-33.102c-1.034-3.814,1.132-7.5,3.836-10.032       c0.054-0.043,0.097-0.097,0.151-0.151c0.916-0.819,1.886-1.52,2.812-2.058c0.129,4.45,16.249,7.456,14.59,3.502       C166.901,216.922,173.14,220.833,173.679,224.723z"
   id="path64" />
					<path
   style="opacity:0.4;fill:#FFFFFF;"
   d="M173.679,224.723h-33.102c-1.034-3.814,1.132-7.5,3.836-10.032       c0.054-0.043,0.097-0.097,0.151-0.151c0.916-0.819,1.886-1.52,2.812-2.058c0.129,4.45,16.249,7.456,14.59,3.502       C166.901,216.922,173.14,220.833,173.679,224.723z"
   id="path65" />
				</g>
			</g>
		</g>
		<polygon
   style="opacity:0.2;fill:#FFFFFF;"
   points="184.151,224.724 156.266,224.724 178.123,97.593 206.007,97.593   "
   id="polygon67" />
		<polygon
   style="opacity:0.2;fill:#FFFFFF;"
   points="205.6,224.724 193.839,224.724 215.696,97.593 227.457,97.593   "
   id="polygon68" />
	</g>
</g>
<g
   id="Character_1">
	<g
   id="g103">
		<g
   id="g89">
			<g
   id="g71">
				<path
   style="fill:#FF8B7B;"
   d="M262.451,231.167c0.555,1.966,0.998,3.739,1.416,5.614c0.419,1.851,0.808,3.706,1.171,5.568      c0.7,3.729,1.295,7.487,1.691,11.301c0.416,3.811,0.67,7.669,0.651,11.606c0.004,3.934-0.283,7.952-1.115,12.1l-0.066,0.33      c-0.088,0.439-0.249,0.867-0.451,1.241c-1.277,2.346-2.809,3.775-4.264,4.942c-1.469,1.154-2.92,2.035-4.358,2.812      c-2.873,1.548-5.738,2.629-8.587,3.6c-2.859,0.937-5.714,1.709-8.586,2.348c-1.434,0.323-2.879,0.586-4.321,0.847      c-1.451,0.264-2.866,0.485-4.386,0.662c-1.769,0.206-3.37-1.061-3.576-2.831c-0.172-1.473,0.678-2.83,1.989-3.361l0.091-0.036      c2.519-1.021,5.152-2.057,7.665-3.181c2.534-1.099,5.033-2.231,7.427-3.449c2.397-1.192,4.7-2.507,6.701-3.879      c0.994-0.685,1.9-1.407,2.588-2.099c0.688-0.679,1.144-1.36,1.155-1.557l-0.517,1.571c0.402-3.079,0.432-6.414,0.274-9.799      c-0.076-1.692-0.222-3.405-0.402-5.122c-0.163-1.718-0.379-3.445-0.624-5.174c-0.495-3.458-1.096-6.932-1.777-10.396      c-0.335-1.733-0.694-3.465-1.08-5.187c-0.39-1.697-0.793-3.488-1.183-5.062l-0.025-0.102c-0.858-3.466,1.256-6.971,4.722-7.829      C258.07,225.807,261.504,227.828,262.451,231.167z"
   id="path68" />
				<path
   style="fill:#FF8B7B;"
   d="M233.203,287.054l-8.094,0.935l2.285,9.368c0,0,7.072-1.291,8.118-5.679L233.203,287.054z"
   id="path69" />
				<path
   style="fill:#FF8B7B;"
   d="M221.357,292.085l1.378,3.503c0.324,0.824,1.081,1.399,1.962,1.49l2.695,0.279l-2.285-9.368      l-2.468,1.044C221.456,289.534,220.887,290.888,221.357,292.085z"
   id="path70" />
				<path
   style="fill:#407BFF;"
   d="M258.601,218.175c10.395,7.419,11.632,25.622,11.632,25.622l-20.319,6.23      c0,0-3.682-8.225-4.481-15.666C244.146,222.374,251.149,212.856,258.601,218.175z"
   id="path71" />
			</g>
			<g
   id="g77">
				<polygon
   style="fill:#FF8B7B;"
   points="215.223,406.644 205.911,406.644 201.23,385.078 210.543,385.078     "
   id="polygon71" />
				<path
   style="fill:#263238;"
   d="M205.249,403.134h10.462c0.381,0,0.71,0.264,0.793,0.636l1.84,8.278      c0.191,0.859-0.484,1.671-1.364,1.656c-3.652-0.063-5.427-0.277-10.028-0.277c-2.831,0-6.463,0.294-10.372,0.294      c-3.823,0-4.419-3.865-2.819-4.215c7.175-1.57,7.679-3.734,9.976-5.799C204.152,403.334,204.692,403.134,205.249,403.134z"
   id="path72" />
				<g
   style="opacity:0.2;"
   id="g72">
					<polygon
   points="210.546,385.084 201.23,385.084 203.827,397.026 212.964,396.2      "
   id="polygon72" />
				</g>
				<polygon
   style="fill:#FF8B7B;"
   points="181.94,406.644 172.627,406.644 167.947,385.078 177.259,385.078     "
   id="polygon73" />
				<path
   style="fill:#263238;"
   d="M171.966,403.134h10.462c0.381,0,0.71,0.264,0.793,0.636l1.839,8.278      c0.191,0.859-0.484,1.671-1.363,1.656c-3.652-0.063-5.427-0.277-10.028-0.277c-2.831,0-12.065,0.294-15.973,0.294      c-3.823,0-4.419-3.865-2.819-4.215c7.175-1.57,13.28-3.734,15.577-5.799C170.868,403.334,171.409,403.134,171.966,403.134z"
   id="path73" />
				<g
   style="opacity:0.2;"
   id="g74">
					<polygon
   points="177.262,385.084 167.946,385.084 170.543,397.026 179.68,396.2      "
   id="polygon74" />
				</g>
				<path
   style="fill:#263238;"
   d="M232.075,287.315c0,0-42.413,14.68-43.37,28.927c-2.568,38.205,12.095,75.228,12.095,75.228      h13.969c0,0-2.152-13.078-4.055-47.703c-2.391-43.507,71.45,1.02,56.243-56.452L232.075,287.315z"
   id="path74" />
				<path
   style="fill:#407BFF;"
   d="M197.896,387.967c-0.061,0.006,2.125,6.373,2.125,6.373l16.201-1.585l-0.867-5.788      L197.896,387.967z"
   id="path75" />
				<path
   style="fill:#263238;"
   d="M217.147,287.315c0,0-64.746,6.028-63.981,41.618c0.795,37.018,14.314,63.552,14.314,63.552      h13.837c0,0-5.529-24.084-5.064-60.529c0.139-10.918,19.296-10.954,40.843-12.228c18.612-1.1,36.034-11.709,43.264-28.895      l1.48-3.518H217.147z"
   id="path76" />
				<path
   style="fill:#407BFF;"
   d="M163.704,388.15c-0.063,0.005,2.372,6.397,2.372,6.397l16.702-1.193l-0.974-5.79L163.704,388.15z      "
   id="path77" />
			</g>
			<path
   style="fill:#263238;"
   d="M230.259,186.44c-0.214,0.72-0.768,1.191-1.239,1.051c-0.471-0.14-0.679-0.837-0.465-1.557     c0.214-0.72,0.768-1.191,1.239-1.051C230.264,185.023,230.473,185.72,230.259,186.44z"
   id="path78" />
			<path
   style="fill:#FF5652;"
   d="M229.557,187.65c0,0-2.87,3.669-5.267,5.138c0.921,1.567,3.248,1.666,3.248,1.666L229.557,187.65z     "
   id="path79" />
			<path
   style="fill:#263238;"
   d="M234.014,182.3c-0.089-0.004-0.178-0.035-0.254-0.094c-1.531-1.202-3.046-0.726-3.11-0.705     c-0.231,0.076-0.48-0.049-0.557-0.279c-0.077-0.23,0.046-0.479,0.276-0.557c0.082-0.028,2.018-0.66,3.936,0.848     c0.192,0.151,0.225,0.428,0.074,0.62C234.288,182.247,234.151,182.305,234.014,182.3z"
   id="path80" />
			<path
   style="fill:#FF8B7B;"
   d="M247.481,194.615c-1.336,6.813-2.668,19.295,2.098,23.841c0,0-1.863,6.911-14.521,6.911     c-13.92,0-6.652-6.91-6.652-6.91c7.597-1.814,7.401-7.451,6.078-12.744L247.481,194.615z"
   id="path81" />
			<path
   style="fill:#407BFF;"
   d="M249.165,215.089c-6.91-0.208-14.561,0.071-21.628,0.969c-8.569,1.089-15.098,8.273-15.324,16.908     c-0.267,10.171,0.597,27.059,4.934,54.349c15.125,3.71,41.059,6.418,49.809,0c0.287-6.389-3.786-25.492-0.829-52.62     C267.244,224.443,259.472,215.398,249.165,215.089z"
   id="path82" />
			<path
   style="fill:#FF8B7B;"
   d="M225.841,234.271c-0.491,3.843-1.126,7.583-1.74,11.368c-0.644,3.771-1.341,7.538-2.122,11.301     c-0.758,3.765-1.615,7.53-2.574,11.309c-0.959,3.8-1.988,7.533-3.549,11.575l-0.234,0.606l-0.181,0.286     c-1.824,2.884-4.042,4.785-6.216,6.383c-2.187,1.592-4.447,2.796-6.698,3.874c-2.268,1.045-4.548,1.929-6.858,2.667     c-2.331,0.736-4.592,1.351-7.077,1.8l-2.017-6.079c1.851-1.044,3.843-2.157,5.698-3.291c1.875-1.136,3.701-2.307,5.414-3.537     c1.721-1.21,3.319-2.514,4.688-3.821c1.366-1.298,2.432-2.707,2.932-3.793l-0.415,0.892c0.974-3.098,1.751-6.736,2.484-10.314     c0.711-3.607,1.386-7.26,2.018-10.939l1.85-11.067l1.799-11.072L225.841,234.271z"
   id="path83" />
			<path
   style="fill:#FF8B7B;"
   d="M193.541,286.454l-10.854,3.211l6.007,8.731c0,0,3.268-0.19,5.813-6.476L193.541,286.454z"
   id="path84" />
			<path
   style="fill:#FF8B7B;"
   d="M179.225,296.408l1.067,2.081c0.823,1.605,2.745,2.302,4.406,1.599l3.997-1.692l-6.007-8.731     l-2.791,2.696C178.806,293.415,178.533,295.059,179.225,296.408z"
   id="path85" />
			<path
   style="fill:#407BFF;"
   d="M231.893,222.546c4.264,7.816-2.962,27.487-2.962,27.487l-21.694-5.35     c0,0,0.187-5.508,4.943-15.999C217.609,216.708,227.253,214.041,231.893,222.546z"
   id="path86" />
			<path
   style="fill:#FF8B7B;"
   d="M254.73,192.04c-3.167,8.683-4.58,13.926-10.393,17.139c-8.745,4.834-18.459-2.455-17.95-11.909     c0.458-8.51,5.561-21.279,15.262-22.23C251.206,174.104,257.897,183.358,254.73,192.04z"
   id="path87" />
			<path
   style="fill:#263238;"
   d="M234.154,193.493c-3.145,0.314-3.319-1.727-3.319-1.727s-1.236-6.655,3.411-10.754     c-2.424-1.347-4.939-4.041-3.547-7.947c1.392-3.906,6.779-6.016,11.449-5.163c-1.033,2.02,3.816,4.176,9.653,3.727     s10.192,4.086,6.69,6.959c5.657,0.045,8.481,9.641,2.772,14.259c-10.802,8.738-11.033,15.283-15.972,16.271     C240.351,210.105,228.948,204.897,234.154,193.493z"
   id="path88" />
			<path
   style="fill:#FF8B7B;"
   d="M235.003,193.315c-0.858,2.16-2.251,3.731-3.528,4.47c-1.921,1.112-2.435-1.043-2.078-3.842     c0.337-2.641,2.32-6.502,4.167-6.125C235.384,188.19,235.985,190.845,235.003,193.315z"
   id="path89" />
		</g>
		<g
   id="g92">
			<g
   id="g91">
				<path
   style="fill:#407BFF;"
   d="M276.703,257.097c3.113-14.367,7.419-39.751-22.509-42.074c-1.474-0.115-2.966-0.231-4.464-0.342      c0.019-0.336,0-0.748-0.106-1.207c1.558,0.025,4.405-0.176,3.773-2.061c-0.367-1.092-0.831-1.439-1.453-1.349      c0.321-0.57,0.336-1.154-0.295-1.663c-2.015-1.627-2.432,0.164-3.656,2.896c-5.269-0.057-13.991,1.891-16.676,2.999      c0.001,0,0.002,0,0.003,0.001c-10.592,0.752-19.694,3.981-23.822,13.497c-6.972,16.073,0.432,48.04-18.805,54.056      c-15.942,4.986-18.468,12.499-23.911,19.118c-1.745,2.122-0.892,5.339,1.703,6.242c10.991,3.826,24.727,5.259,35.927,5.259      c13.2,0,60.521,0,73.212,0C288.316,312.47,273.59,271.464,276.703,257.097z"
   id="path90" />
				<path
   style="opacity:0.4;fill:#1add80;fill-opacity:1"
   d="M276.703,257.097c3.113-14.367,7.419-39.751-22.509-42.074      c-1.474-0.115-2.966-0.231-4.464-0.342c0.019-0.336,0-0.748-0.106-1.207c1.558,0.025,4.405-0.176,3.773-2.061      c-0.367-1.092-0.831-1.439-1.453-1.349c0.321-0.57,0.336-1.154-0.295-1.663c-2.015-1.627-2.432,0.164-3.656,2.896      c-5.269-0.057-13.991,1.891-16.676,2.999c0.001,0,0.002,0,0.003,0.001c-10.592,0.752-19.694,3.981-23.822,13.497      c-6.972,16.073,0.432,48.04-18.805,54.056c-15.942,4.986-18.468,12.499-23.911,19.118c-1.745,2.122-0.892,5.339,1.703,6.242      c10.991,3.826,24.727,5.259,35.927,5.259c13.2,0,60.521,0,73.212,0C288.316,312.47,273.59,271.464,276.703,257.097z"
   id="path91" />
			</g>
			<path
   style="opacity:0.3;fill:#407BFF;"
   d="M249.622,213.474c-2.942-0.269-11.874,0.938-11.874,0.938s8.739,0.054,11.982,0.269     C249.752,214.347,249.73,213.938,249.622,213.474z"
   id="path92" />
		</g>
		<g
   id="g102">
			<g
   id="g94">
				<path
   style="fill:#407BFF;"
   d="M282.286,328.095H178.093c-3.331,0-6.031-2.7-6.031-6.031v-6.026c0-3.331,2.7-6.03,6.031-6.03      h104.193c3.331,0,6.03,2.7,6.03,6.03v6.026C288.316,325.395,285.616,328.095,282.286,328.095z"
   id="path93" />
				<path
   style="opacity:0.3;"
   d="M282.286,328.095H178.093c-3.331,0-6.031-2.7-6.031-6.031v-6.026c0-3.331,2.7-6.03,6.031-6.03      h104.193c3.331,0,6.03,2.7,6.03,6.03v6.026C288.316,325.395,285.616,328.095,282.286,328.095z"
   id="path94" />
			</g>
			<g
   id="g97">
				<g
   id="g96">
					<path
   style="fill:#407BFF;"
   d="M288.116,218.738c-14.587,0-29.173,0-43.762,0c-4.773-0.001-9.513,3.845-10.448,8.602       c-5.813,29.546-7.744,59.477-5.743,89.022c0.317,4.76,4.568,8.599,9.338,8.603c14.588,0,29.174,0,43.762,0       c4.777-0.001,8.274-3.842,7.949-8.603c-2.001-29.545-0.07-59.475,5.743-89.022       C295.889,222.583,292.896,218.737,288.116,218.738z"
   id="path95" />
					<path
   style="opacity:0.3;"
   d="M288.116,218.738c-14.587,0-29.173,0-43.762,0c-4.773-0.001-9.513,3.845-10.448,8.602       c-5.813,29.546-7.744,59.477-5.743,89.022c0.317,4.76,4.568,8.599,9.338,8.603c14.588,0,29.174,0,43.762,0       c4.777-0.001,8.274-3.842,7.949-8.603c-2.001-29.545-0.07-59.475,5.743-89.022       C295.889,222.583,292.896,218.737,288.116,218.738z"
   id="path96" />
				</g>
				<path
   style="fill:#407BFF;"
   d="M294.189,222.352c-13.595,0-27.188,0-40.784,0c-4.448,0-8.866,3.583-9.737,8.017      c-5.417,27.535-7.217,55.43-5.353,82.965c0.296,4.436,4.257,8.014,8.703,8.018c13.595,0,27.189,0,40.784,0      c4.452-0.001,7.711-3.58,7.408-8.018c-1.865-27.534-0.065-55.429,5.353-82.965C301.433,225.935,298.644,222.351,294.189,222.352      z"
   id="path97" />
			</g>
			<g
   id="g101">
				<path
   style="fill:#407BFF;"
   d="M235.382,339.392h-10.615c-1.453,0-2.818-0.697-3.67-1.875l-6.815-9.423h31.585l-6.815,9.423      C238.201,338.695,236.836,339.392,235.382,339.392z"
   id="path98" />
				<polygon
   style="opacity:0.5;"
   points="214.282,328.095 217.108,332.001 244.455,330.048 245.867,328.095     "
   id="polygon98" />
				<polygon
   style="fill:#407BFF;"
   points="222.452,406.035 237.695,406.035 245.866,414.926 214.281,414.926     "
   id="polygon99" />
				<g
   id="g100">
					<rect
   x="225.769"
   y="339.392"
   style="fill:#263238;"
   width="8.611"
   height="66.643"
   id="rect99" />
					<rect
   x="225.769"
   y="339.392"
   style="opacity:0.6;fill:#FFFFFF;"
   width="8.611"
   height="66.643"
   id="rect100" />
				</g>
			</g>
		</g>
	</g>
</g>
<g
   id="Character_2">
	<g
   id="g141">
		<path
   style="fill:#FFC3BD;"
   d="M318.339,161.624c-0.199,1.506-0.411,2.815-0.678,4.193c-0.256,1.361-0.539,2.71-0.832,4.057    c-0.594,2.691-1.337,5.344-2.11,7.989c-1.557,5.287-3.491,10.486-5.902,15.512c-0.32,0.658-0.522,1.158-1.036,2.089    c-0.447,0.769-0.897,1.441-1.35,2.058c-0.911,1.233-1.844,2.317-2.783,3.372c-1.875,2.099-3.833,4.01-5.806,5.885    c-3.975,3.722-8.081,7.178-12.403,10.46c-1.057,0.802-2.564,0.596-3.366-0.46c-0.7-0.921-0.633-2.185,0.096-3.026l0.023-0.025    c3.457-3.991,6.955-7.997,10.312-12c1.687-1.992,3.311-4.024,4.83-6.029c0.748-1.003,1.457-2.02,2.051-2.983    c0.302-0.479,0.555-0.939,0.749-1.337c0.112-0.245,0.401-0.984,0.622-1.543c0.956-2.352,1.778-4.775,2.595-7.195    c0.754-2.448,1.524-4.892,2.177-7.378c0.669-2.48,1.241-4.989,1.802-7.496c0.275-1.254,0.541-2.51,0.78-3.766    c0.231-1.237,0.479-2.551,0.664-3.679l0.019-0.115c0.432-2.63,2.915-4.413,5.545-3.98    C316.915,156.65,318.677,159.052,318.339,161.624z"
   id="path103" />
		<path
   style="fill:#407BFF;"
   d="M316.115,153.692c-6.258,2.132-9.252,6.921-9.252,6.921s6.046,9.67,7.064,15.97    C318.956,170.79,323.99,158.504,316.115,153.692z"
   id="path104" />
		<path
   style="fill:#FFC3BD;"
   d="M270.31,215.768c-0.239-2.38,1.516-4.495,3.9-4.698l3.579-0.305c0,0,6.76-0.876,9.058,4.778    l-0.589,1.13c-0.958,1.839-2.699,3.143-4.732,3.548l-5.31,1.057c-0.954,0.19-1.937,0.175-2.884-0.044l0,0    c-1.513-0.35-2.635-1.624-2.79-3.169L270.31,215.768z"
   id="path105" />
		<path
   style="fill:#407BFF;"
   d="M309.506,165.677c0.356,8.159,1.76,21.927,5.537,45.15h38.352    c-0.571-13.855-1.223-23.514,4.853-47.592c1.496-5.93-2.694-10.539-9.529-11.458c-1.525-0.205-3.152-0.283-4.812-0.363    c-6.454-0.311-11.741-0.517-17.415,0.001c-1.88,0.171-3.824,0.41-5.68,0.67C314.114,153.025,309.211,158.92,309.506,165.677z"
   id="path106" />
		<path
   style="fill:#263238;"
   d="M323.796,150.503c-3.887,12.118-0.145,19.838-0.145,19.838c3.675,1.114,11.879,1.408,16.314,0.491    c0,0,3.182-17.125,5.666-21.048c0.719,0,2.84,0.719,2.84,0.719s-3.264,9.806-4.245,21.769c5,2.025,7.845,4.854,9.453,7.274    c1.532,2.304,1.546,5.305,0.047,7.631c-2.688,4.169-6.74,12.555-3.257,21.414h-33.732c0,0-2.24-13.638-5.914-22.867    c-0.977-2.455-0.598-5.253,1.041-7.325c3.248-4.105,8.046-6.235,8.046-6.235s-3.843-11.234,0.75-20.746    C322.161,150.83,323.796,150.503,323.796,150.503z"
   id="path107" />
		<path
   style="fill:#407BFF;"
   d="M351.597,125.147c3.532,0.192,8.56,3.065,4.969,6.358    C352.974,134.798,348.364,128.607,351.597,125.147z"
   id="path108" />
		<path
   style="fill:#263238;"
   d="M330.053,104.417c-7.729,1.167-6.531,15.97-16.516,17.646c3.412,9.159,11.444,6.957,11.444,6.957    s-1.712,7.494,10.073,12.053c11.785,4.559,25.703-3.253,18.968-13.4c7.184-7.902,3.471-19.665-5.552-24.155    C341.703,100.152,329.251,100.017,330.053,104.417z"
   id="path109" />
		<path
   style="fill:#FFC3BD;"
   d="M342.182,131.806c-1.098,5.603-2.195,15.87,1.725,19.609c0,0-5.333,1.436-13.854,5.007    c-3.523-1.666-3.56-5.006-3.56-5.006c6.248-1.492,6.087-6.128,4.999-10.482L342.182,131.806z"
   id="path110" />
		<path
   style="fill:#FFFFFF;"
   d="M330.053,156.421c0,0,5.147,2.613,7.667,6.814c8.956-3.842,10.46-9.072,9.265-11.956    c-0.889-0.286-3.742-1.986-3.742-1.986S335.53,153.837,330.053,156.421z"
   id="path111" />
		<path
   style="fill:#FFFFFF;"
   d="M330.053,156.421c0,0-4.885,1.959-7.638,6.2c-3.04-1.226-3.26-8.531-0.956-10.811    c2.476-1.03,5.318-1.03,5.318-1.03S327.732,154.546,330.053,156.421z"
   id="path112" />
		<path
   style="opacity:0.2;"
   d="M337.823,135.53l-6.327,5.398c0.261,1.03,0.464,2.075,0.537,3.091    c2.387-0.345,5.666-2.965,5.92-5.465C338.079,137.309,338.027,136.111,337.823,135.53z"
   id="path113" />
		<path
   style="fill:#FFC3BD;"
   d="M348.092,121.528c-2.186,9.113-2.921,13.016-8.32,16.936c-8.122,5.896-18.616,1.243-19.142-8.333    c-0.474-8.619,3.181-22.073,12.672-24.173C342.652,103.889,350.279,112.415,348.092,121.528z"
   id="path114" />
		<path
   style="fill:#263238;"
   d="M330.053,105.644c4.543,7.004,13.582,10.937,13.582,10.937c-2.095,1.754-5.268,11.452,0.838,12.589    c9.698-2.215,8.56-15.265,6.525-18.677C348.963,107.081,338.141,102.352,330.053,105.644z"
   id="path115" />
		<path
   style="fill:#FFC3BD;"
   d="M315.043,210.827c0,0,3.24,71.105,3.859,99.902c0.644,29.953,0.931,99.902,0.931,99.902h7.559    c0,0,12.058-58.135,8.49-99.902c5.4-32.072,9.046-99.902,9.046-99.902H315.043z"
   id="path116" />
		<path
   style="fill:#FFC3BD;"
   d="M325.066,210.827c0,0,27.329,74.463,38.177,102.309c11.393,29.245,30.109,95.326,30.44,97.495    h6.536c0,0-7.494-76.343-21.092-102.309c-4.112-32.524-25.733-97.495-25.733-97.495H325.066z"
   id="path117" />
		<path
   style="fill:#263238;"
   d="M319.89,409.457l8.103,0.127c0.303,0.005,0.542,0.22,0.573,0.518l0.706,6.629    c0.073,0.687-0.521,1.328-1.219,1.305c-2.917-0.096-7.122-0.334-10.796-0.391c-4.296-0.067-3.878,0.109-8.916,0.03    c-3.046-0.048-3.537-3.146-2.23-3.405c5.951-1.181,6.551-1.242,11.924-4.262C318.62,409.68,319.249,409.447,319.89,409.457z"
   id="path118" />
		<path
   style="fill:#263238;"
   d="M392.885,409.457l8.108,0.127c0.304,0.005,0.55,0.22,0.592,0.518l0.941,6.629    c0.098,0.687-0.474,1.328-1.173,1.305c-2.921-0.096-3.847-0.334-7.523-0.391c-4.298-0.067-2.31,0.109-7.35,0.03    c-3.048-0.048-3.645-3.132-2.35-3.405c4.097-0.865,5.122-2.508,6.922-4.262C391.522,409.549,392.244,409.447,392.885,409.457z"
   id="path119" />
		<path
   style="fill:#263238;"
   d="M394.441,410.241c-1.291,0.038-1.982-0.026-2.31-0.592c-0.329-0.566-1.495-2.289-1.415-2.932    c0.08-0.643,5.314-1.158,5.834-0.129S397.062,410.164,394.441,410.241z"
   id="path120" />
		<path
   style="fill:#263238;"
   d="M319.607,410.241c-0.806,0.038-1.236-0.026-1.429-0.592c-0.193-0.566-0.883-2.289-0.819-2.932    c0.064-0.643,3.342-1.158,3.644-0.129C321.306,407.618,321.244,410.164,319.607,410.241z"
   id="path121" />
		<path
   style="opacity:0.2;"
   d="M353.396,210.823h-8.469h-19.859h-10.021c0,0,3.233,71.106,3.858,99.908    c0.075,3.631,0.151,7.845,0.215,12.446c3.093-3.179,9.428-9.504,17.381-16.324c2.122-13.965,3.943-33.091,5.344-50.59    c4.515,12.176,9.31,25.053,13.523,36.237c6.239-4.084,12.683-7.553,18.846-9.622C366.467,250.11,353.396,210.823,353.396,210.823z    "
   id="path122" />
		<path
   style="fill:#263238;"
   d="M355.168,207.521l-0.089,3.307c0,0,15.567,32.625,19.576,67.151    c-26.186,8.501-57.559,47.329-57.559,47.329c-13.323-17.079-1.917-96.839-2.795-113.905l-1.03-3.882H355.168z"
   id="path123" />
		<path
   style="fill:#263238;"
   d="M335.941,121.628c-0.133,0.75-0.638,1.287-1.128,1.201c-0.49-0.087-0.78-0.765-0.647-1.515    c0.133-0.75,0.638-1.288,1.128-1.201C335.784,120.199,336.074,120.878,335.941,121.628z"
   id="path124" />
		<path
   style="fill:#263238;"
   d="M326.694,120.126c-0.133,0.75-0.638,1.288-1.128,1.201c-0.49-0.087-0.78-0.765-0.647-1.515    c0.133-0.75,0.638-1.287,1.128-1.201C326.537,118.698,326.827,119.376,326.694,120.126z"
   id="path125" />
		<path
   style="fill:#263238;"
   d="M326.256,118.691l-1.709-0.838C324.547,117.852,325.222,119.423,326.256,118.691z"
   id="path126" />
		<path
   style="fill:#ED847E;"
   d="M329.047,121.811c0,0-1.845,3.003-3.521,4.313c0.826,1.1,2.585,0.975,2.585,0.975L329.047,121.811z    "
   id="path127" />
		<path
   style="fill:#263238;"
   d="M331.932,130.635c-0.401,0-0.827-0.035-1.277-0.115c-0.122-0.021-0.203-0.138-0.181-0.26    c0.022-0.121,0.134-0.202,0.26-0.181c3.289,0.585,5.236-1.444,5.255-1.464c0.084-0.091,0.226-0.095,0.316-0.011    c0.09,0.084,0.095,0.226,0.011,0.316C336.241,129.001,334.674,130.635,331.932,130.635z"
   id="path128" />
		<path
   style="fill:#FFC3BD;"
   d="M349.936,131.403c-1.353,1.717-3.215,2.56-4.801,2.627c-2.386,0.102-2.924-2.615-1.712-4.961    c1.091-2.112,3.647-4.709,5.778-3.696C351.301,126.371,351.483,129.439,349.936,131.403z"
   id="path129" />
		<path
   style="fill:#263238;"
   d="M338.963,118.126c-0.113-0.034-0.213-0.113-0.27-0.227c-0.896-1.783-2.528-1.986-2.547-1.989    c-0.242-0.029-0.422-0.249-0.394-0.495c0.028-0.245,0.249-0.422,0.495-0.394c0.086,0.01,2.135,0.263,3.246,2.476    c0.111,0.22,0.021,0.489-0.199,0.601C339.186,118.151,339.069,118.158,338.963,118.126z"
   id="path130" />
		<path
   style="fill:#263238;"
   d="M323.226,114.472c-0.11-0.014-0.216-0.068-0.291-0.161c-0.156-0.192-0.127-0.474,0.064-0.629    c1.919-1.562,3.893-0.956,3.976-0.928c0.235,0.076,0.365,0.327,0.29,0.562c-0.075,0.235-0.326,0.364-0.561,0.29    c-0.077-0.025-1.614-0.473-3.14,0.77C323.465,114.456,323.343,114.487,323.226,114.472z"
   id="path131" />
		<path
   style="fill:#263238;"
   d="M335.503,120.192l-1.709-0.838C333.793,119.354,334.468,120.925,335.503,120.192z"
   id="path132" />
		<path
   style="fill:#FFC3BD;"
   d="M358.069,157.873c0.187,0.472,0.484,1.166,0.754,1.759c0.277,0.618,0.558,1.242,0.856,1.86    c0.593,1.238,1.226,2.465,1.896,3.669c1.333,2.411,2.752,4.776,4.352,6.987c0.793,1.109,1.621,2.188,2.49,3.222    c0.853,1.047,1.743,2.057,2.677,3.01c0.924,0.967,1.903,1.861,2.899,2.725c0.498,0.434,1.008,0.847,1.529,1.243    c0.255,0.208,0.521,0.396,0.786,0.584l0.398,0.286l0.199,0.143c0.02,0.015,0.095,0.067,0.071,0.051    c-0.043-0.029-0.089-0.055-0.135-0.078c-0.327-0.196-1.219-0.396-1.891-0.21c-0.667,0.167-0.912,0.428-0.972,0.49    c-0.076,0.104,0.234-0.191,0.483-0.61c0.538-0.854,1.083-2.071,1.557-3.315c0.957-2.521,1.791-5.27,2.541-8.042    c1.499-5.557,2.834-11.298,4.097-16.99l0.009-0.041c0.287-1.294,1.568-2.109,2.862-1.822c1.152,0.256,1.924,1.301,1.877,2.439    c-0.245,6.021-0.786,11.951-1.753,17.946c-0.508,2.996-1.069,5.996-1.977,9.08c-0.468,1.551-0.977,3.107-1.861,4.844    c-0.466,0.869-0.988,1.819-2.15,2.927c-0.614,0.545-1.501,1.215-2.893,1.541c-0.671,0.158-1.469,0.188-2.176,0.067    c-0.377-0.052-0.683-0.145-1.003-0.252c-0.336-0.109-0.593-0.233-0.845-0.366l-0.38-0.209l-0.162-0.099l-0.262-0.164l-0.524-0.328    c-0.351-0.218-0.7-0.437-1.035-0.673c-0.684-0.458-1.353-0.933-2.002-1.43c-1.308-0.983-2.547-2.043-3.723-3.152    c-2.374-2.203-4.495-4.618-6.403-7.158c-1.917-2.535-3.651-5.178-5.191-7.925c-0.763-1.378-1.483-2.777-2.162-4.203    c-0.339-0.713-0.672-1.432-0.984-2.168c-0.318-0.761-0.592-1.429-0.923-2.34c-0.91-2.505,0.383-5.274,2.888-6.185    c2.459-0.894,5.172,0.335,6.132,2.75L358.069,157.873z"
   id="path133" />
		<path
   style="fill:#407BFF;"
   d="M350.972,152.24c6.259,2.132,9.252,6.921,9.252,6.921s-6.046,9.67-7.064,15.97    C348.131,169.338,343.097,157.052,350.972,152.24z"
   id="path134" />
		<path
   style="fill:#FFC3BD;"
   d="M386.642,152.58c0.784-1.303,0.163-7.936-2.797-8.78c-1.373-0.392-0.17,2.624-0.181,3.726    c-0.031,3.043-2.247,8.137-0.757,8.567C384.397,156.524,385.277,154.849,386.642,152.58z"
   id="path135" />
		<path
   style="fill:#FFC3BD;"
   d="M396.95,148.589c-0.955-2.193-3.52-3.18-5.698-2.192l-3.271,1.484c0,0-6.326,2.541-5.566,8.596    l1.066,0.698c1.735,1.135,3.891,1.423,5.863,0.782l5.149-1.674c0.925-0.301,1.775-0.794,2.494-1.448l0,0    c1.149-1.045,1.505-2.705,0.885-4.129L396.95,148.589z"
   id="path136" />
		<g
   id="g140">
			<path
   style="fill:#263238;"
   d="M393.044,144.721c-0.409,0.179-0.705,0.538-0.876,1.006l-9.895-22.597     c-0.491,7.368,2.753,14.532,2.753,14.532l3.104,1.213l4.273,9.757l0-0.01c0.002,0.004,0.002,0.007,0.004,0.011     c0.735,1.678,2.214,2.657,3.304,2.179c1.097-0.48,1.381-2.231,0.646-3.909C395.62,145.219,394.141,144.241,393.044,144.721z      M395.34,149.964c-0.784,0.343-1.855-0.363-2.384-1.571c-0.532-1.215-0.321-2.474,0.463-2.817     c0.79-0.346,1.852,0.356,2.384,1.571C396.332,148.355,396.13,149.618,395.34,149.964z"
   id="path137" />
			<path
   style="fill:#FFC3BD;"
   d="M394.254,146.197c-1.847-0.362-3.99-0.186-4.703,0.972c-0.713,1.158,0.634,1.652,1.397,1.383     c0.763-0.269,3.569,1.19,4.018,0.516C395.415,148.394,394.254,146.197,394.254,146.197z"
   id="path138" />
			<path
   style="fill:#263238;"
   d="M386.09,144.069c0.416,0.163,0.726,0.51,0.915,0.97l8.982-22.975     c0.786,7.343-2.169,14.631-2.169,14.631l-3.053,1.337l-3.878,9.921l0-0.01c-0.001,0.004-0.002,0.007-0.004,0.011     c-0.667,1.706-2.106,2.743-3.214,2.31c-1.115-0.436-1.469-2.174-0.802-3.88C383.536,144.67,384.974,143.633,386.09,144.069z      M384.006,149.4c0.797,0.311,1.839-0.437,2.319-1.665c0.483-1.235,0.221-2.485-0.575-2.796c-0.803-0.314-1.836,0.43-2.319,1.665     C382.95,147.831,383.202,149.086,384.006,149.4z"
   id="path139" />
			<path
   style="fill:#FFC3BD;"
   d="M383.845,143.8c-1.13-0.322-0.515,1.663-0.268,2.99c0.053,0.286,0.089,0.541,0.087,0.736     l2.197-1.786C385.372,144.785,384.708,144.046,383.845,143.8z"
   id="path140" />
		</g>
	</g>
</g>
</svg>
