<?xml version="1.0" encoding="UTF-8" standalone="no"?>
<!-- Generator: Adobe Illustrator 27.5.0, SVG Export Plug-In . SVG Version: 6.00 Build 0)  -->

<svg
   version="1.1"
   x="0px"
   y="0px"
   viewBox="0 0 500 500"
   style="enable-background:new 0 0 500 500;"
   xml:space="preserve"
   id="svg571"
   sodipodi:docname="15109970_5574363.svg"
   inkscape:version="1.4 (e7c3feb100, 2024-10-09)"
   xmlns:inkscape="http://www.inkscape.org/namespaces/inkscape"
   xmlns:sodipodi="http://sodipodi.sourceforge.net/DTD/sodipodi-0.dtd"
   xmlns="http://www.w3.org/2000/svg"
   xmlns:svg="http://www.w3.org/2000/svg"><defs
   id="defs571" /><sodipodi:namedview
   id="namedview571"
   pagecolor="#ffffff"
   bordercolor="#000000"
   borderopacity="0.25"
   inkscape:showpageshadow="2"
   inkscape:pageopacity="0.0"
   inkscape:pagecheckerboard="0"
   inkscape:deskcolor="#d1d1d1"
   showgrid="false"
   inkscape:zoom="1.218"
   inkscape:cx="250"
   inkscape:cy="250"
   inkscape:window-width="1536"
   inkscape:window-height="795"
   inkscape:window-x="0"
   inkscape:window-y="0"
   inkscape:window-maximized="1"
   inkscape:current-layer="svg571" />

<g
   id="Background_Simple"
   style="display:none;">
	<g
   style="display:inline;"
   id="g188">
		<path
   style="fill:#F5F5F5;"
   d="M387.28,22.922l-1.572,0.552c-13.251,4.652-23.052,16.048-25.058,29.819    c-0.258,1.77-0.388,3.56-0.383,5.353c0.039,12.914,7.116,25.635,18.143,32.615c6.485,4.105,14.434,6.546,18.971,12.698    c5.905,8.006,3.816,19.043,1.477,28.641c-2.339,9.598-4.401,20.649,1.54,28.629c3.72,4.998,9.951,7.651,16.141,8.617    c16.389,2.557,33.263-5.681,43.495-18.525c10.232-12.844,14.443-29.618,14.59-46.005c0.205-22.957-7.569-46.469-23.743-63.027    C434.706,25.732,409.726,17.137,387.28,22.922z"
   id="path187" />
	</g>
	<g
   style="display:inline;"
   id="g189">
		
			<ellipse
   transform="matrix(0.2261 -0.9741 0.9741 0.2261 67.324 626.1642)"
   style="fill:#F5F5F5;"
   cx="427.741"
   cy="270.712"
   rx="37.592"
   ry="37.592"
   id="ellipse188" />
	</g>
	<g
   style="display:inline;"
   id="g190">
		<circle
   style="fill:#F5F5F5;"
   cx="68.038"
   cy="67.887"
   r="21.865"
   id="circle189" />
	</g>
</g>


<g
   id="Character_1_">
	<g
   id="g571">
		<g
   id="g321">
			<g
   id="g240">
				<g
   id="g238">
					<path
   style="fill:#F5F5F5;"
   d="M91.475,119.085c0.179-0.173,0.369-0.333,0.555-0.497c0.008-0.008,0.014-0.017,0.022-0.025       L91.475,119.085z"
   id="path237" />
				</g>
				<g
   id="g239">
					<path
   style="fill:#F5F5F5;"
   d="M195.316,132.611c4.933-6.365,5.313-15.888,0.903-22.626       c-4.411-6.738-13.29-10.199-21.097-8.225c-2.217-8.411-10.378-14.877-19.073-15.111c-8.695-0.234-17.192,5.783-19.859,14.063       c-10.711-3.738-23.869,3.168-26.876,14.107c-5.893-1.804-13.135-3.188-17.26,2.497c-2.513,2.306-2.408,5.466-2.116,8.224       c-3.481,0.528-6.925-0.417-10.406,0.111c0.359,5.057,5.284,9.332,10.341,8.977c-1.34,4.62-2.237,9.679-0.48,14.157       c1.756,4.479,7.064,7.845,11.48,5.938c-0.678,5.976-0.503,12.22,1.905,17.731s7.386,10.163,13.353,10.919       c5.967,0.755,12.522-3.271,13.457-9.213c1.822,6.783,5.949,13.127,12.033,16.638c6.083,3.511,14.186,3.772,19.973-0.207       c5.788-3.979,8.386-12.392,5.029-18.562c4.801,1.752,10.427,1.055,14.656-1.815c4.229-2.87,6.954-7.841,7.098-12.95       c0.145-5.114-2.101-10.401-0.36-15.212C189.378,138.287,192.863,135.776,195.316,132.611z"
   id="path238" />
				</g>
			</g>
			<g
   id="g286">
				<g
   id="g253">
					<g
   id="g242">
						<g
   id="g241">
							<path
   style="fill:#263238;"
   d="M94.141,131.833c0,0.144-0.56,0.26-1.25,0.26c-0.69,0-1.25-0.117-1.25-0.26         c0-0.144,0.56-0.26,1.25-0.26C93.582,131.572,94.141,131.689,94.141,131.833z"
   id="path240" />
						</g>
					</g>
					<g
   id="g244">
						<g
   id="g243">
							<path
   style="fill:#263238;"
   d="M105.033,131.833c0,0.144-1.219,0.26-2.723,0.26c-1.504,0-2.723-0.117-2.723-0.26         c0-0.144,1.219-0.26,2.723-0.26C103.814,131.572,105.033,131.689,105.033,131.833z"
   id="path242" />
						</g>
					</g>
					<g
   id="g246">
						<g
   id="g245">
							<path
   style="fill:#263238;"
   d="M115.924,131.833c0,0.144-1.219,0.26-2.723,0.26c-1.504,0-2.723-0.117-2.723-0.26         c0-0.144,1.219-0.26,2.723-0.26C114.705,131.572,115.924,131.689,115.924,131.833z"
   id="path244" />
						</g>
					</g>
					<g
   id="g248">
						<g
   id="g247">
							<path
   style="fill:#263238;"
   d="M126.816,131.833c0,0.144-1.219,0.26-2.723,0.26c-1.504,0-2.723-0.117-2.723-0.26         c0-0.144,1.219-0.26,2.723-0.26C125.597,131.572,126.816,131.689,126.816,131.833z"
   id="path246" />
						</g>
					</g>
					<g
   id="g250">
						<g
   id="g249">
							<path
   style="fill:#263238;"
   d="M137.707,131.833c0,0.144-1.219,0.26-2.723,0.26c-1.504,0-2.723-0.117-2.723-0.26         c0-0.144,1.219-0.26,2.723-0.26C136.488,131.572,137.707,131.689,137.707,131.833z"
   id="path248" />
						</g>
					</g>
					<g
   id="g252">
						<g
   id="g251">
							<path
   style="fill:#263238;"
   d="M145.653,131.833c0,0.144-0.56,0.26-1.25,0.26c-0.691,0-1.25-0.117-1.25-0.26         c0-0.144,0.56-0.26,1.25-0.26C145.093,131.572,145.653,131.689,145.653,131.833z"
   id="path250" />
						</g>
					</g>
				</g>
				<g
   id="g272">
					<g
   id="g255">
						<g
   id="g254">
							<path
   style="fill:#263238;"
   d="M93.518,127.114c0.046,0.136-0.448,0.425-1.102,0.645c-0.655,0.22-1.222,0.288-1.268,0.151         c-0.046-0.136,0.448-0.425,1.102-0.645C92.905,127.045,93.472,126.978,93.518,127.114z"
   id="path253" />
						</g>
					</g>
					<g
   id="g257">
						<g
   id="g256">
							<path
   style="fill:#263238;"
   d="M102.537,124.084c0.046,0.136-0.927,0.586-2.172,1.004c-1.245,0.419-2.292,0.647-2.338,0.511         c-0.046-0.136,0.927-0.586,2.172-1.004C101.445,124.176,102.492,123.948,102.537,124.084z"
   id="path255" />
						</g>
					</g>
					<g
   id="g259">
						<g
   id="g258">
							<path
   style="fill:#263238;"
   d="M111.556,121.054c0.046,0.136-0.927,0.586-2.172,1.004c-1.245,0.418-2.292,0.647-2.338,0.511         c-0.046-0.136,0.926-0.586,2.172-1.004C110.464,121.146,111.511,120.918,111.556,121.054z"
   id="path257" />
						</g>
					</g>
					<g
   id="g261">
						<g
   id="g260">
							<path
   style="fill:#263238;"
   d="M120.575,118.024c0.046,0.136-0.927,0.586-2.172,1.004c-1.245,0.418-2.292,0.647-2.338,0.511         c-0.046-0.136,0.926-0.586,2.172-1.004C119.483,118.116,120.53,117.888,120.575,118.024z"
   id="path259" />
						</g>
					</g>
					<g
   id="g263">
						<g
   id="g262">
							<path
   style="fill:#263238;"
   d="M129.595,114.994c0.046,0.136-0.927,0.586-2.172,1.004c-1.246,0.418-2.292,0.647-2.338,0.511         c-0.046-0.136,0.926-0.586,2.172-1.004C128.502,115.087,129.549,114.858,129.595,114.994z"
   id="path261" />
						</g>
					</g>
					<g
   id="g265">
						<g
   id="g264">
							<path
   style="fill:#263238;"
   d="M138.614,111.964c0.046,0.136-0.927,0.586-2.172,1.004c-1.245,0.418-2.292,0.647-2.338,0.511         c-0.046-0.136,0.926-0.586,2.172-1.004C137.521,112.057,138.568,111.828,138.614,111.964z"
   id="path263" />
						</g>
					</g>
					<g
   id="g267">
						<g
   id="g266">
							<path
   style="fill:#263238;"
   d="M147.633,108.934c0.046,0.136-0.927,0.586-2.172,1.004c-1.245,0.418-2.292,0.647-2.338,0.511         c-0.046-0.136,0.926-0.586,2.172-1.004C146.54,109.027,147.587,108.798,147.633,108.934z"
   id="path265" />
						</g>
					</g>
					<g
   id="g269">
						<g
   id="g268">
							<path
   style="fill:#263238;"
   d="M156.652,105.905c0.046,0.136-0.927,0.586-2.172,1.004c-1.246,0.418-2.292,0.647-2.338,0.511         c-0.046-0.136,0.926-0.586,2.172-1.004C155.559,105.997,156.606,105.768,156.652,105.905z"
   id="path267" />
						</g>
					</g>
					<g
   id="g271">
						<g
   id="g270">
							<path
   style="fill:#263238;"
   d="M163.531,103.593c0.046,0.136-0.448,0.425-1.102,0.645c-0.655,0.22-1.222,0.288-1.268,0.151         c-0.046-0.136,0.447-0.425,1.102-0.645C162.918,103.525,163.485,103.457,163.531,103.593z"
   id="path269" />
						</g>
					</g>
				</g>
				<g
   id="g285">
					<g
   id="g274">
						<g
   id="g273">
							<path
   style="fill:#263238;"
   d="M94.295,137c-0.064,0.129-0.617-0.014-1.236-0.319c-0.619-0.305-1.07-0.657-1.006-0.786         c0.064-0.129,0.617,0.014,1.236,0.319C93.908,136.519,94.358,136.871,94.295,137z"
   id="path272" />
						</g>
					</g>
					<g
   id="g276">
						<g
   id="g275">
							<path
   style="fill:#263238;"
   d="M103.538,141.555c-0.064,0.129-1.15-0.276-2.426-0.905c-1.276-0.629-2.259-1.243-2.196-1.372         c0.064-0.129,1.15,0.276,2.426,0.905C102.619,140.811,103.602,141.426,103.538,141.555z"
   id="path274" />
						</g>
					</g>
					<g
   id="g278">
						<g
   id="g277">
							<path
   style="fill:#263238;"
   d="M112.782,146.109c-0.064,0.129-1.15-0.276-2.426-0.905c-1.277-0.629-2.26-1.243-2.196-1.372         s1.15,0.276,2.426,0.905C111.862,145.366,112.846,145.98,112.782,146.109z"
   id="path276" />
						</g>
					</g>
					<g
   id="g280">
						<g
   id="g279">
							<path
   style="fill:#263238;"
   d="M122.026,150.664c-0.064,0.129-1.15-0.276-2.426-0.905c-1.277-0.629-2.26-1.243-2.196-1.372         c0.063-0.129,1.149,0.276,2.426,0.905C121.106,149.92,122.089,150.535,122.026,150.664z"
   id="path278" />
						</g>
					</g>
					<g
   id="g282">
						<g
   id="g281">
							<path
   style="fill:#263238;"
   d="M131.27,155.218c-0.064,0.129-1.15-0.276-2.426-0.905c-1.277-0.629-2.26-1.243-2.196-1.372         c0.063-0.129,1.15,0.276,2.426,0.905C130.35,154.475,131.333,155.089,131.27,155.218z"
   id="path280" />
						</g>
					</g>
					<g
   id="g284">
						<g
   id="g283">
							<path
   style="fill:#263238;"
   d="M138.134,158.6c-0.064,0.129-0.617-0.014-1.236-0.319c-0.619-0.305-1.07-0.657-1.006-0.786         c0.064-0.129,0.617,0.014,1.236,0.319C137.747,158.12,138.198,158.471,138.134,158.6z"
   id="path282" />
						</g>
					</g>
				</g>
			</g>
			<g
   id="g320">
				<g
   id="g290">
					<g
   id="g287">
						<rect
   x="74.392"
   y="124.158"
   style="fill:#E0E0E0;"
   width="12.77"
   height="17.278"
   id="rect286" />
					</g>
					<g
   id="g289">
						<g
   id="g288">
							<path
   style="fill:#263238;"
   d="M87.162,141.435c-0.009-0.009-0.018-0.128-0.027-0.349c-0.008-0.264-0.017-0.58-0.028-0.961         c-0.016-0.892-0.037-2.087-0.063-3.568c-0.029-3.089-0.069-7.361-0.117-12.399l0.236,0.236         c-3.848,0.007-8.189,0.016-12.769,0.025c-0.059,0.056,0.492-0.491,0.259-0.257v0.005v0.009v0.019v0.038v0.076v0.151v0.301         l0,0.6c0,0.399,0,0.796-0.001,1.191c-0.001,0.79-0.002,1.571-0.002,2.342c-0.003,1.542-0.006,3.044-0.009,4.498         c-0.013,2.9-0.024,5.605-0.035,8.044l-0.213-0.213c3.792,0.046,6.943,0.083,9.22,0.111c1.074,0.023,1.94,0.041,2.6,0.055         C86.817,141.405,87.147,141.42,87.162,141.435c0.016,0.016-0.284,0.031-0.864,0.047c-0.648,0.014-1.498,0.032-2.552,0.055         c-2.31,0.027-5.507,0.065-9.354,0.111l-0.212,0.003l-0.001-0.215c-0.011-2.439-0.022-5.144-0.035-8.044         c-0.003-1.454-0.006-2.957-0.009-4.498c-0.001-0.771-0.002-1.552-0.002-2.342c0-0.395,0-0.792-0.001-1.191l0-0.6v-0.301         l0-0.151v-0.076v-0.038v-0.019v-0.009v-0.005c-0.232,0.231,0.316-0.321,0.262-0.264c4.58,0.009,8.92,0.017,12.769,0.025         l0.238,0l-0.002,0.235c-0.048,5.1-0.088,9.425-0.117,12.552c-0.026,1.459-0.047,2.636-0.063,3.514         C87.198,141.031,87.18,141.454,87.162,141.435z"
   id="path287" />
						</g>
					</g>
				</g>
				<g
   id="g294">
					<g
   id="g291">
						<circle
   style="fill:#E0E0E0;"
   cx="80.777"
   cy="159.072"
   r="21.726"
   id="circle290" />
					</g>
					<g
   id="g293">
						<g
   id="g292">
							<path
   style="fill:#263238;"
   d="M102.503,159.072c-0.009,0-0.024-0.119-0.044-0.351c-0.02-0.259-0.045-0.599-0.078-1.03         c-0.015-0.229-0.032-0.482-0.051-0.758c-0.031-0.278-0.093-0.578-0.143-0.905c-0.107-0.654-0.208-1.412-0.462-2.235         c-0.388-1.673-1.178-3.648-2.418-5.74c-1.25-2.083-3.05-4.258-5.497-6.103c-2.439-1.827-5.515-3.38-9.063-4.006         c-3.524-0.603-7.502-0.492-11.289,0.949c-0.964,0.309-1.869,0.786-2.801,1.233c-0.882,0.534-1.812,1.026-2.632,1.694         c-0.873,0.6-1.636,1.35-2.435,2.072c-0.722,0.8-1.481,1.582-2.103,2.49c-1.278,1.775-2.393,3.747-3.068,5.915         c-0.7,2.155-1.076,4.444-1.107,6.773c0.031,2.33,0.407,4.619,1.106,6.775c0.674,2.169,1.79,4.142,3.068,5.917         c0.622,0.908,1.381,1.691,2.103,2.491c0.799,0.722,1.562,1.473,2.435,2.072c0.821,0.668,1.751,1.16,2.633,1.694         c0.931,0.447,1.838,0.924,2.801,1.234c3.787,1.441,7.765,1.552,11.29,0.949c3.549-0.626,6.624-2.179,9.063-4.007         c2.447-1.845,4.246-4.02,5.496-6.103c1.24-2.092,2.03-4.067,2.418-5.74c0.253-0.824,0.355-1.581,0.462-2.235         c0.051-0.327,0.112-0.628,0.143-0.905c0.018-0.276,0.035-0.529,0.051-0.758c0.033-0.431,0.058-0.771,0.078-1.03         C102.479,159.191,102.494,159.072,102.503,159.072c0.009,0,0.012,0.119,0.009,0.352c-0.007,0.26-0.015,0.602-0.026,1.036         c-0.008,0.231-0.016,0.485-0.026,0.764c-0.023,0.28-0.076,0.584-0.119,0.914c-0.091,0.661-0.178,1.427-0.418,2.263         c-0.362,1.696-1.132,3.705-2.364,5.839c-1.243,2.126-3.049,4.352-5.523,6.247c-2.466,1.878-5.591,3.481-9.207,4.138         c-3.592,0.635-7.655,0.537-11.533-0.922c-0.986-0.314-1.915-0.798-2.868-1.253c-0.904-0.543-1.856-1.045-2.698-1.726         c-0.894-0.612-1.677-1.377-2.496-2.115c-0.741-0.816-1.518-1.617-2.158-2.545c-1.311-1.815-2.455-3.835-3.148-6.056         c-0.718-2.208-1.104-4.553-1.135-6.939c0.031-2.385,0.418-4.73,1.137-6.936c0.694-2.22,1.837-4.239,3.148-6.054         c0.639-0.928,1.416-1.728,2.157-2.544c0.819-0.738,1.602-1.503,2.496-2.115c0.842-0.681,1.793-1.183,2.698-1.725         c0.953-0.456,1.882-0.939,2.868-1.253c3.878-1.459,7.94-1.557,11.532-0.923c3.617,0.657,6.741,2.26,9.207,4.137         c2.474,1.895,4.28,4.121,5.523,6.247c1.233,2.135,2.002,4.144,2.365,5.84c0.24,0.835,0.327,1.602,0.418,2.263         c0.043,0.331,0.096,0.634,0.119,0.914c0.01,0.279,0.018,0.533,0.026,0.764c0.011,0.433,0.02,0.776,0.026,1.036         C102.515,158.952,102.512,159.072,102.503,159.072z"
   id="path291" />
						</g>
					</g>
				</g>
				<g
   id="g295">
					<path
   style="fill:#FF725E;"
   d="M102.354,271.991c-15.937,3.944-30.52,4.45-43.154,0V160.278h43.154V271.991z"
   id="path294" />
				</g>
				<g
   id="g297">
					<g
   id="g296">
						<path
   style="fill:#263238;"
   d="M86.789,134.333c-0.002,0.055-0.561,0.065-1.285-0.408c-0.705-0.447-1.544-1.489-1.541-2.863        c0.03-1.374,0.895-2.396,1.61-2.825c0.736-0.456,1.294-0.431,1.295-0.377c0.021,0.084-0.479,0.195-1.082,0.677        c-0.594,0.459-1.281,1.385-1.302,2.531c-0.006,1.145,0.658,2.088,1.24,2.562C86.314,134.127,86.812,134.249,86.789,134.333z"
   id="path295" />
					</g>
				</g>
				<g
   id="g299">
					<g
   id="g298">
						<path
   style="fill:#FFFFFF;"
   d="M99.503,156.422c-0.09,0-0.099-0.921-0.355-2.366c-0.252-1.443-0.827-3.404-1.91-5.358        c-1.092-1.95-2.458-3.471-3.553-4.443c-1.094-0.978-1.872-1.47-1.825-1.546c0.025-0.047,0.879,0.335,2.063,1.265        c1.182,0.922,2.643,2.457,3.77,4.471c1.119,2.017,1.657,4.066,1.819,5.557C99.68,155.497,99.556,156.425,99.503,156.422z"
   id="path297" />
					</g>
				</g>
				<g
   id="g302">
					<path
   style="fill:#FFFFFF;"
   d="M73.771,183.473v8.897h-0.928v-4.105h-5.567v4.105h-0.94v-8.897h0.94v3.966h5.567v-3.966H73.771       z"
   id="path299" />
					<path
   style="fill:#FFFFFF;"
   d="M82.243,189.993h-4.957l-1.068,2.377h-0.979l4.067-8.897h0.928l4.067,8.897h-0.991       L82.243,189.993z M81.9,189.231l-2.135-4.779l-2.135,4.779H81.9z"
   id="path300" />
					<path
   style="fill:#FFFFFF;"
   d="M85.772,183.473h0.94v8.897h-0.94V183.473z"
   id="path301" />
					<path
   style="fill:#FFFFFF;"
   d="M95.684,192.37l-2.034-2.86c-0.229,0.025-0.458,0.038-0.712,0.038h-2.39v2.822h-0.94v-8.897       h3.33c2.262,0,3.635,1.144,3.635,3.051c0,1.398-0.737,2.376-2.034,2.796l2.173,3.051H95.684z M95.632,186.524       c0-1.424-0.94-2.237-2.72-2.237h-2.364v4.461h2.364C94.692,188.748,95.632,187.922,95.632,186.524z"
   id="path302" />
				</g>
				<g
   id="g307">
					<path
   style="fill:#FFFFFF;"
   d="M73.087,180.941l0.15-0.294c0.258,0.253,0.717,0.438,1.191,0.438       c0.675,0,0.969-0.284,0.969-0.64c0-0.99-2.223-0.381-2.223-1.717c0-0.531,0.413-0.99,1.33-0.99c0.408,0,0.831,0.119,1.119,0.32       l-0.129,0.304c-0.31-0.201-0.671-0.299-0.99-0.299c-0.66,0-0.954,0.294-0.954,0.655c0,0.99,2.223,0.392,2.223,1.707       c0,0.531-0.423,0.985-1.346,0.985C73.886,181.41,73.355,181.22,73.087,180.941z"
   id="path303" />
					<path
   style="fill:#FFFFFF;"
   d="M79.434,179.007c0,0.769-0.557,1.233-1.475,1.233h-0.97v1.14h-0.382v-3.61h1.352       C78.877,177.769,79.434,178.233,79.434,179.007z M79.052,179.007c0-0.578-0.382-0.908-1.104-0.908h-0.959v1.805h0.959       C78.67,179.904,79.052,179.574,79.052,179.007z"
   id="path304" />
					<path
   style="fill:#FFFFFF;"
   d="M82.729,181.379l-0.825-1.161c-0.093,0.011-0.186,0.016-0.289,0.016h-0.969v1.145h-0.382v-3.61       h1.351c0.919,0,1.475,0.464,1.475,1.238c0,0.567-0.299,0.964-0.825,1.135l0.882,1.238H82.729z M82.708,179.007       c0-0.578-0.382-0.908-1.104-0.908h-0.959v1.811h0.959C82.326,179.91,82.708,179.574,82.708,179.007z"
   id="path305" />
					<path
   style="fill:#FFFFFF;"
   d="M86.26,180.415h-2.011l-0.434,0.964h-0.397l1.65-3.61h0.376l1.65,3.61h-0.402L86.26,180.415z        M86.121,180.105l-0.867-1.939l-0.866,1.939H86.121z"
   id="path306" />
					<path
   style="fill:#FFFFFF;"
   d="M88.725,180.131v1.248h-0.376v-1.248l-1.444-2.362h0.407l1.238,2.027l1.238-2.027h0.382       L88.725,180.131z"
   id="path307" />
				</g>
				<g
   id="g309">
					<g
   id="g308">
						<path
   style="fill:#FFFFFF;"
   d="M102.354,192.37c0.017,0.005-0.041,0.217-0.169,0.62c-0.106,0.412-0.358,0.981-0.706,1.706        c-0.725,1.434-2.083,3.355-4.139,5.359c-2.035,2.021-4.75,4.13-8.021,6.049c-3.284,1.941-7.24,3.292-11.252,4.942        c-4.021,1.626-7.816,3.348-10.777,5.642c-2.978,2.263-5.105,4.983-6.314,7.531c-1.247,2.543-1.598,4.86-1.669,6.433        c-0.041,1.585,0.118,2.46,0.056,2.467c-0.018,0.003-0.059-0.214-0.12-0.631c-0.081-0.416-0.113-1.037-0.138-1.84        c0.009-1.595,0.309-3.969,1.539-6.586c1.192-2.621,3.335-5.426,6.354-7.753c3.008-2.362,6.843-4.114,10.875-5.745        c4.026-1.655,7.97-2.989,11.209-4.876c3.246-1.875,5.96-3.934,8.004-5.898c2.065-1.948,3.447-3.807,4.217-5.191        c0.37-0.7,0.649-1.249,0.786-1.646C102.244,192.567,102.337,192.365,102.354,192.37z"
   id="path308" />
					</g>
				</g>
				<g
   id="g311">
					<g
   id="g310">
						<path
   style="fill:#FFFFFF;"
   d="M102.354,201.074c0,0-0.039,0.827-0.697,2.137c-0.644,1.308-2.032,2.981-4.158,4.485        c-2.114,1.518-4.905,2.913-8.131,4.058c-3.219,1.163-6.848,2.137-10.57,3.375c-3.73,1.215-7.157,2.745-9.917,4.71        c-2.749,1.966-4.866,4.227-6.219,6.394c-1.396,2.149-2.044,4.151-2.358,5.542c-0.154,0.7-0.246,1.25-0.281,1.627        c-0.051,0.375-0.087,0.573-0.105,0.572c-0.018-0.001-0.018-0.2,0-0.581c0.002-0.383,0.062-0.942,0.187-1.658        c0.257-1.422,0.863-3.482,2.245-5.697c1.339-2.233,3.469-4.566,6.253-6.589c2.793-2.023,6.282-3.593,10.03-4.814        c3.745-1.246,7.37-2.203,10.575-3.334c3.207-1.109,5.974-2.452,8.079-3.906c2.116-1.441,3.508-3.032,4.192-4.28        C102.176,201.867,102.29,201.055,102.354,201.074z"
   id="path309" />
					</g>
				</g>
				<g
   id="g313">
					<g
   id="g312">
						<path
   style="fill:#263238;"
   d="M95.516,248.61c-0.011-0.011-0.022-0.226-0.034-0.628c-0.01-0.445-0.024-1.024-0.041-1.748        c-0.022-1.554-0.053-3.729-0.091-6.444l0.166,0.166c-6.763,0.057-17.146,0.094-28.759,0.094        c0.115-0.116-0.262,0.26,0.258-0.26v0.002v0.005v0.009v0.018v0.036v0.072v0.143v0.285l0,0.569l0,1.132        c0,0.751-0.001,1.496-0.001,2.233c-0.002,1.474-0.004,2.916-0.005,4.316l-0.253-0.253c8.193,0.047,15.333,0.087,20.489,0.117        c2.532,0.03,4.575,0.054,6.043,0.072c0.676,0.014,1.219,0.024,1.639,0.033C95.304,248.588,95.505,248.599,95.516,248.61        c0.011,0.011-0.17,0.021-0.527,0.032c-0.406,0.008-0.931,0.019-1.585,0.033c-1.454,0.017-3.477,0.042-5.985,0.072        c-5.2,0.029-12.401,0.07-20.664,0.116l-0.253,0.002l0-0.255c-0.002-1.4-0.004-2.842-0.005-4.316        c0-0.737-0.001-1.482-0.001-2.233l0-1.132l0-0.569v-0.285v-0.143v-0.072v-0.036v-0.018v-0.009v-0.005v-0.002        c0.52-0.521,0.146-0.145,0.262-0.261c11.612,0,21.996,0.036,28.759,0.094l0.169,0.001l-0.002,0.165        c-0.038,2.757-0.069,4.965-0.091,6.543c-0.017,0.709-0.03,1.275-0.041,1.711C95.538,248.428,95.527,248.621,95.516,248.61z"
   id="path311" />
					</g>
				</g>
				<g
   id="g315">
					<g
   id="g314">
						<path
   style="fill:#263238;"
   d="M102.354,271.991c0,0-0.012-0.193-0.017-0.557c-0.004-0.378-0.01-0.915-0.017-1.616        c-0.008-1.433-0.02-3.525-0.034-6.234c-0.017-5.44-0.041-13.343-0.071-23.264c-0.027-19.837-0.066-47.735-0.11-80.041        l0.25,0.25c-13.49,0.003-28.069,0.007-43.153,0.01l0.26-0.26c0,0.094,0,0.197,0,0.299        c-0.031,43.802-0.059,83.358-0.079,111.414l-0.121-0.171c6.393,2.266,12.547,2.983,17.896,3.153        c5.367,0.116,9.98-0.303,13.711-0.824c3.737-0.506,6.596-1.131,8.537-1.517c0.951-0.211,1.68-0.372,2.187-0.485        C102.087,272.04,102.354,271.991,102.354,271.991s-0.239,0.07-0.729,0.195c-0.51,0.127-1.242,0.309-2.199,0.546        c-1.937,0.419-4.792,1.076-8.532,1.613c-3.734,0.553-8.357,1.002-13.746,0.913c-5.371-0.143-11.562-0.837-18.009-3.097        l-0.121-0.042l0-0.128c-0.02-28.056-0.048-67.612-0.079-111.414c0-0.102,0-0.205,0-0.299v-0.26H59.2        c15.084,0.004,29.664,0.007,43.153,0.01l0.25,0l0,0.25c-0.045,32.365-0.083,60.314-0.11,80.187        c-0.03,9.901-0.054,17.787-0.071,23.216c-0.015,2.689-0.027,4.766-0.034,6.189c-0.007,0.69-0.013,1.218-0.017,1.59        C102.365,271.816,102.354,271.991,102.354,271.991z"
   id="path313" />
					</g>
				</g>
				<g
   id="g319">
					<g
   id="g316">
						<path
   style="fill:#E0E0E0;"
   d="M101.892,276.234H59.865c-1.328,0-2.405-1.077-2.405-2.405l0,0        c0-1.328,1.076-2.405,2.405-2.405h42.027c1.328,0,2.405,1.077,2.405,2.405l0,0        C104.297,275.158,103.22,276.234,101.892,276.234z"
   id="path315" />
					</g>
					<g
   id="g318">
						<g
   id="g317">
							<path
   style="fill:#263238;"
   d="M101.892,276.234c-0.006-0.034,0.363,0.012,0.957-0.257c0.558-0.248,1.41-1.016,1.341-2.263         c-0.033-0.595-0.325-1.262-0.915-1.695c-0.289-0.217-0.643-0.376-1.031-0.429c-0.377-0.05-0.827-0.014-1.267-0.02         c-1.789,0.011-3.817,0.024-6.054,0.039c-9.009,0.02-21.385,0.047-35.055,0.076c-0.767-0.003-1.509,0.432-1.873,1.098         c-0.373,0.657-0.361,1.508,0.029,2.143c0.375,0.649,1.105,1.051,1.839,1.05c0.821,0.001,1.635,0.002,2.442,0.003         c3.227,0.005,6.34,0.01,9.308,0.015c5.923,0.021,11.261,0.04,15.76,0.056c4.454,0.035,8.073,0.063,10.625,0.083         c1.222,0.021,2.187,0.037,2.889,0.049c0.304,0.011,0.551,0.019,0.751,0.026C101.806,276.216,101.892,276.225,101.892,276.234         s-0.087,0.018-0.256,0.027c-0.2,0.007-0.447,0.015-0.751,0.026c-0.702,0.012-1.667,0.028-2.889,0.049         c-2.552,0.02-6.171,0.048-10.625,0.083c-4.499,0.016-9.837,0.035-15.76,0.056c-2.967,0.005-6.081,0.01-9.308,0.015         c-0.807,0.001-1.621,0.001-2.442,0.002c-0.91,0.003-1.818-0.496-2.283-1.299c-0.485-0.791-0.502-1.845-0.038-2.663         c0.451-0.826,1.375-1.369,2.327-1.364c13.67,0.03,26.046,0.057,35.055,0.076c2.237,0.014,4.265,0.027,6.054,0.039         c0.45,0.014,0.864-0.019,1.309,0.044c0.433,0.067,0.825,0.252,1.14,0.499c0.643,0.492,0.947,1.235,0.966,1.882         c0.025,0.656-0.207,1.226-0.516,1.613c-0.304,0.398-0.677,0.624-0.984,0.756         C102.257,276.321,101.892,276.234,101.892,276.234z"
   id="path316" />
						</g>
					</g>
				</g>
			</g>
		</g>
		<g
   id="g322">
			<path
   style="fill:#FFBF9D;"
   d="M109.956,160.722c0,0-1.912-5.173-7.984-1.237l-3.036,4.273l2.136,13.943L109.956,160.722z"
   id="path321" />
		</g>
		<g
   id="g323">
			<path
   style="fill:#263238;"
   d="M191.382,207.488c0.451,15.443,0.901,30.887,1.352,46.33c0.115,3.928,0.18,8.072-1.712,11.516     c-2.83,5.151-9.231,7.227-15.103,7.484c-5.871,0.257-11.796-0.831-17.607,0.049c4.475-2.215,6.457-7.791,5.93-12.757     c-0.527-4.966-3.048-9.47-5.582-13.773c-2.534-4.303-5.812-8.632-6.02-13.621c-0.89-21.322,7.228-24.935,6.636-35.468     c-0.338-6.028-2.726-11.71-4.272-17.546c-1.547-5.836-1.964-12.554,1.589-17.436c4.033-5.543,12.328-7.516,14.776-13.919     c2.245-5.872-1.643-12.151-5.342-17.233l4.609-3.591l11.182,24.55v25.007L191.382,207.488z"
   id="path322" />
		</g>
		<g
   id="g496">
			<g
   id="g324">
				<path
   style="fill:#263238;"
   d="M159.989,194.977c-0.35,4.031-2.422,8.103-4.898,11.439c-3.69,4.972-8.389,9.427-10.366,15.295      c-2.993,8.883,0.964,18.402,3.857,27.318c2.892,8.917,4.282,19.943-2.35,26.569c-3.541,3.538-8.686,4.999-12.507,8.233      c-7.188,6.085-8.066,16.884-6.59,26.185c1.477,9.302,4.749,18.515,3.804,27.886c-0.945,9.371-8.177,19.166-17.571,18.496      c7.732,3.93,17.537,3.423,24.822-1.284c2.549,5.4,1.11,12.405-3.363,16.362c10.066,2.402,21.063,0.622,29.856-4.833      c8.794-5.455,15.273-14.517,17.593-24.602L159.989,194.977z"
   id="path323" />
			</g>
			<g
   id="g327">
				<g
   id="g325">
					<path
   style="fill:#263238;"
   d="M366.521,316.854c-15.028,0.248-28.338-14.964-26.098-29.826       c1.502-9.964,8.743-19.539,5.851-29.191c-1.919-6.404-7.709-10.535-12.77-15.134c-0.552-3.687-1.867-7.339-1.981-11.086       c-0.311-10.208,8.262-19.873,5.534-29.715c-0.964-3.477-3.221-6.367-5.567-9.206c-0.186-7.585-2.187-15.129-5.826-21.783       c1.303-4.741,2.981-9.482,1.878-14.165c-1.602-6.802-8.351-10.854-12.954-16.112c-5.224-5.968-7.773-14.145-7.054-22.03       l-1.712,10.608c-4.246,11.637-3.099,25.121,3.052,35.875c1.657,2.897,3.685,5.697,5.285,8.629l-28.355,25.954       c1.748,32.565,3.518,65.295,10.434,97.164c3.49,16.081,9.337,33.318,23.384,41.889c12.814,7.819,30.849,5.705,41.507-4.866       c-3.601-0.587-7.032-2.181-9.803-4.554C358.436,329.387,365.202,323.843,366.521,316.854z"
   id="path324" />
				</g>
				<g
   id="g326">
					<path
   style="fill:#263238;"
   d="M307.532,118.608l0.644-3.991C307.861,115.93,307.655,117.265,307.532,118.608z"
   id="path325" />
				</g>
			</g>
			<g
   id="g495">
				<g
   id="g334">
					<g
   id="g333">
						<g
   id="g332">
							<g
   id="g331">
								<g
   id="g330">
									<g
   id="g329">
										<g
   id="g328">
											<path
   style="fill:#263238;"
   d="M173.026,195.47c-16.621-13.904,0.5-21,5.033-41.203             c10.322-46.003,8.661-82.416,65.578-79.647c0,0,42.872,1.926,56.215,32.545c7.165,16.442,9.507,73.56,12.342,124.957             c0.046,0.842,0.212,1.668,0.493,2.463l2.735,7.746c3.585,10.155,5.736,20.761,6.389,31.511l4.334,71.377             c0.297,4.894-3.424,9.103-8.319,9.385c-19.17,1.103-62.973-0.932-71.439-3.902             c-35.171-12.335-62.895-39.78-76.545-74.355c-0.916-2.32-15.05-6.677-15.662-4.259             C153.881,273.271,219.711,234.525,173.026,195.47z"
   id="path327" />
										</g>
									</g>
								</g>
							</g>
						</g>
					</g>
				</g>
				<g
   id="g342">
					<g
   id="g341">
						<g
   id="g340">
							<g
   id="g339">
								<g
   id="g338">
									<g
   id="g337">
										<g
   id="g336">
											<g
   id="g335">
												<path
   style="fill:#FFBF9D;"
   d="M254.75,92.913l-3.633-3.307l-38.065,16.36c-5.551,0.434-9.847,5.044-9.889,10.613              l3.194,125.168c0.145,8.49-2.193,18.344,3.087,24.994l6.217,8.621c12.673,15.961,41.497,9.885,50.829-8.233              c0.652-1.266,1.1-2.374,1.284-3.268c0.181-1.12,0.468-1.862,0.508-2.812c0.913-10.097,0.78-18.831,0.78-18.831              c0.432-11.073,0.554-15.615,0.559-15.511c0,0,23.469-3.242,29.141-33.592c2.82-15.094,1.753-35.746,0.399-56.065              C297.288,108.928,277.375,92.369,254.75,92.913z"
   id="path334" />
											</g>
										</g>
									</g>
								</g>
							</g>
						</g>
					</g>
				</g>
				<g
   id="g358">
					<g
   id="g357">
						<g
   id="g356">
							<g
   id="g355">
								<g
   id="g354">
									<g
   id="g353">
										<g
   id="g352">
											<g
   id="g351">
												<g
   id="g350">
													<g
   id="g349">
														<g
   id="g348">
															<g
   id="g347">
																<g
   id="g346">
																	<g
   id="g345">
																		<g
   id="g344">
																			<g
   id="g343">
																				<path
   style="fill:#263238;"
   d="M249.313,157.905c0.017,2.067-1.719,3.785-3.877,3.841                      c-2.153,0.057-3.917-1.567-3.934-3.634c-0.016-2.066,1.72-3.786,3.873-3.843                      C247.533,154.211,249.296,155.839,249.313,157.905z"
   id="path342" />
																			</g>
																		</g>
																	</g>
																</g>
															</g>
														</g>
													</g>
												</g>
											</g>
										</g>
									</g>
								</g>
							</g>
						</g>
					</g>
				</g>
				<g
   id="g374">
					<g
   id="g373">
						<g
   id="g372">
							<g
   id="g371">
								<g
   id="g370">
									<g
   id="g369">
										<g
   id="g368">
											<g
   id="g367">
												<g
   id="g366">
													<g
   id="g365">
														<g
   id="g364">
															<g
   id="g363">
																<g
   id="g362">
																	<g
   id="g361">
																		<g
   id="g360">
																			<g
   id="g359">
																				<path
   style="fill:#263238;"
   d="M288.581,157.905c0.016,2.067-1.72,3.784-3.877,3.841                      c-2.153,0.057-3.917-1.567-3.934-3.634c-0.016-2.066,1.72-3.786,3.873-3.843                      C286.801,154.211,288.565,155.839,288.581,157.905z"
   id="path358" />
																			</g>
																		</g>
																	</g>
																</g>
															</g>
														</g>
													</g>
												</g>
											</g>
										</g>
									</g>
								</g>
							</g>
						</g>
					</g>
				</g>
				<g
   id="g391">
					<g
   id="g390">
						<g
   id="g389">
							<g
   id="g388">
								<g
   id="g387">
									<g
   id="g386">
										<g
   id="g385">
											<g
   id="g384">
												<g
   id="g383">
													<g
   id="g382">
														<g
   id="g381">
															<g
   id="g380">
																<g
   id="g379">
																	<g
   id="g378">
																		<g
   id="g377">
																			<g
   id="g376">
																				<g
   id="g375">
																					<path
   style="fill:#263238;"
   d="M295.326,145.184c-0.499,0.497-3.401-1.775-7.608-1.88                       c-4.201-0.164-7.348,1.917-7.789,1.389c-0.219-0.234,0.301-1.141,1.671-2.083                       c1.35-0.938,3.633-1.824,6.253-1.742c2.62,0.086,4.798,1.111,6.038,2.133                       C295.157,144.029,295.571,144.962,295.326,145.184z"
   id="path374" />
																				</g>
																			</g>
																		</g>
																	</g>
																</g>
															</g>
														</g>
													</g>
												</g>
											</g>
										</g>
									</g>
								</g>
							</g>
						</g>
					</g>
				</g>
				<g
   id="g408">
					<g
   id="g407">
						<g
   id="g406">
							<g
   id="g405">
								<g
   id="g404">
									<g
   id="g403">
										<g
   id="g402">
											<g
   id="g401">
												<g
   id="g400">
													<g
   id="g399">
														<g
   id="g398">
															<g
   id="g397">
																<g
   id="g396">
																	<g
   id="g395">
																		<g
   id="g394">
																			<g
   id="g393">
																				<g
   id="g392">
																					<path
   style="fill:#263238;"
   d="M252.695,146.593c-0.548,0.442-3.205-2.116-7.376-2.651                       c-4.161-0.596-7.505,1.15-7.891,0.581c-0.192-0.256,0.412-1.105,1.878-1.9c1.439-0.796,3.8-1.442,6.398-1.092                       c2.597,0.355,4.658,1.598,5.787,2.742C252.642,145.425,252.96,146.398,252.695,146.593z"
   id="path391" />
																				</g>
																			</g>
																		</g>
																	</g>
																</g>
															</g>
														</g>
													</g>
												</g>
											</g>
										</g>
									</g>
								</g>
							</g>
						</g>
					</g>
				</g>
				<g
   id="g424">
					<g
   id="g423">
						<g
   id="g422">
							<g
   id="g421">
								<g
   id="g420">
									<g
   id="g419">
										<g
   id="g418">
											<g
   id="g417">
												<g
   id="g416">
													<g
   id="g415">
														<g
   id="g414">
															<g
   id="g413">
																<g
   id="g412">
																	<g
   id="g411">
																		<g
   id="g410">
																			<g
   id="g409">
																				<path
   style="fill:#263238;"
   d="M268.072,176.845c-0.013-0.239,2.614-0.619,6.866-1.046                      c1.077-0.082,2.1-0.267,2.301-0.995c0.274-0.77-0.143-1.939-0.63-3.203c-0.94-2.627-1.922-5.381-2.954-8.266                      c-4.093-11.766-7.026-21.43-6.551-21.59c0.476-0.161,4.18,9.246,8.273,21.012                      c0.983,2.901,1.924,5.666,2.818,8.311c0.374,1.232,1.035,2.636,0.442,4.231                      c-0.311,0.795-1.116,1.356-1.809,1.523c-0.694,0.191-1.298,0.186-1.831,0.203                      C270.728,177.138,268.082,177.085,268.072,176.845z"
   id="path408" />
																			</g>
																		</g>
																	</g>
																</g>
															</g>
														</g>
													</g>
												</g>
											</g>
										</g>
									</g>
								</g>
							</g>
						</g>
					</g>
				</g>
				<g
   id="g439">
					<g
   id="g438">
						<g
   id="g437">
							<g
   id="g436">
								<g
   id="g435">
									<g
   id="g434">
										<g
   id="g433">
											<g
   id="g432">
												<g
   id="g431">
													<g
   id="g430">
														<g
   id="g429">
															<g
   id="g428">
																<g
   id="g427">
																	<g
   id="g426">
																		<g
   id="g425">
																			<path
   style="fill:#FF9A6C;"
   d="M269.62,226.704c0,0-20.542,0.763-40.526-12.003c0,0,9.689,21.381,40.275,19.361                     L269.62,226.704z"
   id="path424" />
																		</g>
																	</g>
																</g>
															</g>
														</g>
													</g>
												</g>
											</g>
										</g>
									</g>
								</g>
							</g>
						</g>
					</g>
				</g>
				<g
   id="g454">
					<g
   id="g453">
						<g
   id="g452">
							<g
   id="g451">
								<g
   id="g450">
									<g
   id="g449">
										<g
   id="g448">
											<g
   id="g447">
												<g
   id="g446">
													<g
   id="g445">
														<g
   id="g444">
															<g
   id="g443">
																<g
   id="g442">
																	<g
   id="g441">
																		<g
   id="g440">
																			<path
   style="fill:#FF9A6C;"
   d="M266.017,186.935c-1.459-2.041-4.079-3.212-6.719-3.001                     c-1.831,0.147-3.7,0.977-4.849,2.433c-1.149,1.456-1.439,3.56-0.47,5.005c1.092,1.627,3.454,2.06,5.477,1.544                     c2.024-0.516,3.787-1.79,5.464-3.062c0.464-0.352,0.938-0.719,1.235-1.211c0.298-0.491,0.376-1.142,0.037-1.566"
   id="path439" />
																		</g>
																	</g>
																</g>
															</g>
														</g>
													</g>
												</g>
											</g>
										</g>
									</g>
								</g>
							</g>
						</g>
					</g>
				</g>
				<g
   id="g470">
					<g
   id="g469">
						<g
   id="g468">
							<g
   id="g467">
								<g
   id="g466">
									<g
   id="g465">
										<g
   id="g464">
											<g
   id="g463">
												<g
   id="g462">
													<g
   id="g461">
														<g
   id="g460">
															<g
   id="g459">
																<g
   id="g458">
																	<g
   id="g457">
																		<g
   id="g456">
																			<g
   id="g455">
																				<path
   style="fill:#263238;"
   d="M255.613,179.418c0.685-0.021,0.569,4.545,4.389,7.893                      c3.812,3.358,8.694,2.978,8.712,3.617c0.056,0.289-1.108,0.858-3.164,0.857                      c-2.017,0.014-4.942-0.713-7.279-2.761c-2.331-2.052-3.284-4.733-3.388-6.61                      C254.762,180.5,255.301,179.383,255.613,179.418z"
   id="path454" />
																			</g>
																		</g>
																	</g>
																</g>
															</g>
														</g>
													</g>
												</g>
											</g>
										</g>
									</g>
								</g>
							</g>
						</g>
					</g>
				</g>
				<g
   id="g482">
					<g
   id="g481">
						<g
   id="g480">
							<g
   id="g479">
								<g
   id="g478">
									<g
   id="g477">
										<g
   id="g476">
											<g
   id="g475">
												<g
   id="g474">
													<g
   id="g473">
														<g
   id="g472">
															<g
   id="g471">
																<path
   style="fill:#263238;"
   d="M256.344,126.132c-0.559,1.081-4.656,0.001-9.628-0.045                  c-4.973-0.146-9.107,0.773-9.624-0.329c-0.227-0.525,0.6-1.503,2.34-2.394c1.725-0.891,4.385-1.605,7.367-1.55                  c2.981,0.061,5.612,0.877,7.301,1.834C255.802,124.607,256.591,125.616,256.344,126.132z"
   id="path470" />
															</g>
														</g>
													</g>
												</g>
											</g>
										</g>
									</g>
								</g>
							</g>
						</g>
					</g>
				</g>
				<g
   id="g494">
					<g
   id="g493">
						<g
   id="g492">
							<g
   id="g491">
								<g
   id="g490">
									<g
   id="g489">
										<g
   id="g488">
											<g
   id="g487">
												<g
   id="g486">
													<g
   id="g485">
														<g
   id="g484">
															<g
   id="g483">
																<path
   style="fill:#263238;"
   d="M294.309,127.145c-0.766,0.935-3.637-0.135-7.12-0.277                  c-3.478-0.264-6.453,0.466-7.105-0.551c-0.285-0.494,0.206-1.438,1.52-2.307c1.296-0.867,3.441-1.545,5.834-1.408                  c2.392,0.142,4.443,1.064,5.628,2.076C294.271,125.693,294.648,126.688,294.309,127.145z"
   id="path482" />
															</g>
														</g>
													</g>
												</g>
											</g>
										</g>
									</g>
								</g>
							</g>
						</g>
					</g>
				</g>
			</g>
		</g>
		<g
   id="g498">
			<g
   id="g497">
				<path
   style="fill:#263238;"
   d="M247.892,85.991c-2.752,0.582-5.084,2.344-7.312,4.061c-2.228,1.717-4.552,3.486-7.301,4.085      c-8.07,1.76-16.16-7.061-23.884-4.135c-3.698,1.401-6.055,5.421-6.024,9.376c0.003,0.425,0.036,0.846,0.087,1.265      c-5.829-1.88-11.838-2.768-17.614-1.032c-7.142,2.147-12.604,8.015-16.444,14.409c-3.27,5.444-5.614,12.339-2.792,18.028      c2.153,4.339,6.938,7.093,8.488,11.682c0.969,2.867,0.507,5.767-0.523,8.634c-4.02,3.326-7.357,7.477-9.647,12.166      c-4.4,9.012-4.889,19.853-1.318,29.224c2.112,5.543,5.634,10.953,5.035,16.855c-0.88,8.666-10.36,14.823-10.555,23.531      c-0.133,5.916,4.132,10.977,8.587,14.872c4.456,3.895,9.531,7.482,12.055,12.834c2.236,4.742,2.125,10.366,0.482,15.345      c-1.643,4.979-4.707,9.381-8.19,13.3c5.988,2.118,12.469-1.591,17.061-5.979c12.178-11.637,18.1-28.681,19.179-45.491      c1.078-16.81,1.411-34.138-2.574-50.504c0,0-2.382-18.22,2.915-27.415c5.297-9.195,13.51-7.702,18.216-14.457      c7.072-10.152,4.769-25.718,4.769-25.718c-0.07-0.01-0.131-0.022-0.2-0.032c4.122-1.806,7.602-5.999,9.304-10.204      c6.334-3.254,11.689-8.418,14.793-14.838l0.652-6.928C253.941,86.379,250.645,85.409,247.892,85.991z"
   id="path496" />
			</g>
		</g>
		<g
   id="g504">
			<g
   id="g499">
				<path
   style="fill:#FFBF9D;"
   d="M265.74,67.887c0,0-17.847-6.585-22.447-5.748s-45.166,13.383-45.166,13.383      s-15.421,22.627-15.421,23.463c0,0.836,5.197,10.507,5.197,10.507c3.031-1.582,4.711-3.316,3.951-5.323      c0,0,5.855,6.482,10.037,4.391c0,0,7.528,5.646,7.528,5.019c0-0.627,4.391-0.627,1.255-5.646      c-3.137-5.019-4.391-6.273-4.391-6.273l-0.209-7.528l3.555-3.137l8.573-3.149l8.678,3.531c6.978,2.839,14.962,1.47,20.596-3.531      l0,0l5.937-5.193l4.275-3.13L265.74,67.887z"
   id="path498" />
			</g>
			<g
   id="g501">
				<g
   id="g500">
					<path
   style="fill:#FF9A6C;"
   d="M201.89,108.559c-0.022,0.022-0.274-0.184-0.722-0.587c-0.515-0.48-1.144-1.065-1.895-1.765       l-0.029-0.027l-0.014-0.043c-0.82-2.617-2.102-6.653-3.039-11.325c-0.098-0.521-0.184-1.037-0.231-1.561       c-0.039-0.256-0.037-0.526-0.01-0.802c0-0.279,0.076-0.527,0.134-0.779c0.266-0.994,0.672-1.882,1.11-2.69       c0.864-1.625,1.795-2.987,2.596-4.111c0.806-1.122,1.5-1.998,1.993-2.592c0.494-0.593,0.789-0.903,0.817-0.881       c0.028,0.023-0.213,0.375-0.656,1.004c-0.442,0.63-1.088,1.536-1.851,2.678c-0.758,1.143-1.65,2.518-2.474,4.123       c-0.418,0.796-0.8,1.669-1.039,2.589c-0.264,0.9-0.051,1.895,0.124,2.927c0.926,4.617,2.137,8.685,2.843,11.323l-0.042-0.069       c0.709,0.742,1.302,1.364,1.788,1.873C201.702,108.287,201.912,108.537,201.89,108.559z"
   id="path499" />
				</g>
			</g>
			<g
   id="g503">
				<g
   id="g502">
					<path
   style="fill:#FF9A6C;"
   d="M188.932,89.327c0.062,0.039-0.401,0.856-0.915,2.272c-0.259,0.706-0.525,1.562-0.74,2.53       c-0.117,0.485-0.206,1.003-0.218,1.493c0.036,0.511,0.139,1.042,0.33,1.571c0.785,2.121,2.091,3.807,2.983,5.011       c0.919,1.201,1.534,1.911,1.481,1.963c-0.049,0.049-0.764-0.575-1.767-1.73c-0.975-1.165-2.352-2.823-3.189-5.073       c-0.203-0.563-0.317-1.15-0.348-1.731c0.021-0.605,0.131-1.125,0.261-1.615c0.247-0.988,0.556-1.853,0.865-2.556       C188.289,90.051,188.875,89.286,188.932,89.327z"
   id="path501" />
				</g>
			</g>
		</g>
		<g
   id="g506">
			<g
   id="g505">
				<path
   style="fill:#455A64;"
   d="M250.287,86.362c0.073-0.103,1.954,1.541,3.18,4.301c1.25,2.75,1.231,5.248,1.105,5.234      c-0.161,0.02-0.373-2.374-1.58-5.021C251.815,88.218,250.165,86.469,250.287,86.362z"
   id="path504" />
			</g>
		</g>
		<g
   id="g515">
			<g
   id="g507">
				<path
   style="fill:#FFBF9D;"
   d="M86.456,143.319c0,0-10.895-7.138-12.398-7.514c-1.503-0.376-15.013,3.907-15.013,3.907      l-8.281,16.005c0,0-5.26,4.508-5.636,9.768c-0.376,5.26-1.878,27.427-1.878,27.427l-4.508,21.791H59.03l0.376-37.946      l3.194-6.011l6.199-2.254l6.763-0.376c0,0,4.508,6.011,10.895,4.884v-2.63l-9.017-8.266l-9.017-2.63l-5.823,1.127l5.823-3.757      l9.804,0.508c0,0,6.517,7.704,12.922,4.46v-1.622l-8.056-8.38l-8.515-3.784l-9.632-0.811l9.767-2.838      c0,0,6.758,2.703,10.137,2.027c3.379-0.676,2.973-2.027,2.973-2.027L86.456,143.319z"
   id="path506" />
			</g>
			<g
   id="g508">
				<path
   style="fill:#FFBF9D;"
   d="M76.885,125.521l-12.299,4.73l-5.541,9.461l10.812-2.568l1.487-4.002      C71.344,133.142,78.102,132.549,76.885,125.521z"
   id="path507" />
			</g>
			<g
   id="g510">
				<g
   id="g509">
					<path
   style="fill:#FF9A6C;"
   d="M52.559,154.593c-0.039-0.053,0.572-0.591,1.657-1.332c1.082-0.744,2.653-1.654,4.413-2.586       c1.76-0.933,3.341-1.782,4.463-2.439c1.123-0.653,1.807-1.083,1.853-1.02c0.039,0.053-0.572,0.591-1.657,1.331       c-1.082,0.744-2.653,1.654-4.414,2.587c-1.76,0.932-3.34,1.781-4.462,2.439C53.289,154.227,52.605,154.656,52.559,154.593z"
   id="path508" />
				</g>
			</g>
			<g
   id="g512">
				<g
   id="g511">
					<path
   style="fill:#FF9A6C;"
   d="M62.192,160.851c0.03,0.062-0.679,0.492-1.879,1.095c-1.2,0.591-2.911,1.379-4.959,1.775       c-2.069,0.407-3.947,0.075-5.248,0.133c-1.318,0.017-2.09,0.325-2.121,0.247c-0.033-0.05,0.73-0.5,2.1-0.615       c1.362-0.15,3.211,0.115,5.173-0.277c1.969-0.38,3.671-1.096,4.902-1.598C61.391,161.097,62.16,160.783,62.192,160.851z"
   id="path510" />
				</g>
			</g>
			<g
   id="g514">
				<g
   id="g513">
					<path
   style="fill:#FF9A6C;"
   d="M87.822,144.378c-0.019,0.03-0.413-0.18-1.108-0.584c-0.781-0.469-1.758-1.055-2.919-1.752       c-2.457-1.483-5.821-3.621-9.569-5.852c-0.265-0.157-0.34-0.18-0.629-0.149c-0.251,0.018-0.515,0.063-0.772,0.107       c-0.517,0.094-1.028,0.208-1.529,0.323c-1.002,0.236-1.966,0.485-2.883,0.728c-1.803,0.495-3.444,0.945-4.865,1.335       c-1.305,0.36-2.403,0.663-3.281,0.905c-0.777,0.206-1.211,0.307-1.222,0.272c-0.011-0.034,0.403-0.2,1.163-0.466       c0.759-0.266,1.864-0.632,3.236-1.065c1.372-0.431,3.011-0.931,4.843-1.445c0.917-0.256,1.882-0.517,2.892-0.761       c0.506-0.12,1.022-0.238,1.555-0.337c0.269-0.047,0.536-0.094,0.825-0.116c0.149-0.009,0.279-0.027,0.488,0.014       c0.222,0.056,0.283,0.132,0.432,0.199c3.789,2.255,7.098,4.428,9.513,5.996c1.202,0.788,2.169,1.435,2.831,1.893       C87.485,144.08,87.842,144.348,87.822,144.378z"
   id="path512" />
				</g>
			</g>
		</g>
		<g
   id="g521">
			<g
   id="g516">
				<path
   style="fill:#FFBF9D;"
   d="M173.983,257.523c-1.212,0.404-12.927-2.02-26.662,2.02      c-13.735,4.04-81.826,47.841-81.826,47.841l-5.026-92.681H38.655c0,0-18.373,92.588-18.985,104.46      c-0.722,14.008-1.127,45.921,15.84,50.364c16.966,4.444,40.404-4.521,57.98-14.62c17.577-10.099,52.215-28.307,52.215-28.307      L173.983,257.523z"
   id="path515" />
			</g>
			<g
   id="g518">
				<g
   id="g517">
					<path
   style="fill:#FF9A6C;"
   d="M130.814,301.348c0.028-0.023,0.354,0.33,0.922,0.988c0.571,0.655,1.362,1.633,2.306,2.866       c1.89,2.465,4.339,6.004,6.692,10.125c2.348,4.126,4.145,8.036,5.303,10.919c0.58,1.441,1.019,2.619,1.291,3.444       c0.277,0.823,0.414,1.284,0.38,1.296c-0.034,0.012-0.235-0.425-0.57-1.224c-0.33-0.801-0.819-1.956-1.441-3.373       c-1.24-2.836-3.08-6.7-5.416-10.804c-2.341-4.1-4.728-7.651-6.536-10.164c-0.903-1.257-1.647-2.266-2.168-2.959       C131.06,301.766,130.786,301.37,130.814,301.348z"
   id="path516" />
				</g>
			</g>
			<g
   id="g520">
				<g
   id="g519">
					<path
   style="fill:#FF9A6C;"
   d="M64.886,296.155c0.036,0,0.078,0.539,0.123,1.514c0.036,0.974,0.122,2.383,0.234,4.122       c0.227,3.479,0.702,8.271,1.191,13.577c0.486,5.305,0.765,10.14,0.612,13.642c-0.065,1.75-0.216,3.162-0.368,4.129       c-0.168,0.966-0.278,1.494-0.314,1.488c-0.035-0.006,0.007-0.546,0.113-1.513c0.09-0.968,0.184-2.374,0.201-4.113       c0.059-3.48-0.277-8.285-0.762-13.586c-0.488-5.299-0.907-10.11-1.04-13.603c-0.065-1.746-0.096-3.161-0.069-4.138       C64.824,296.695,64.85,296.155,64.886,296.155z"
   id="path518" />
				</g>
			</g>
		</g>
		<g
   id="g530">
			<g
   id="g522">
				<path
   style="fill:#FFBF9D;"
   d="M311.396,216.708c0,0,3.695-3.883,5.451-8.712s27.088-72.921,27.088-72.921l-5.76-1.338      l-85.392-50.434c0,0,11.64-15.416,12.957-15.416c1.317,0,104.669,37.056,115.018,46.973c12.088,11.583,0.878,62.338-6.146,79.02      c-7.024,16.682-43.9,93.507-43.9,93.507L311.396,216.708z"
   id="path521" />
			</g>
			<g
   id="g524">
				<g
   id="g523">
					<path
   style="fill:#FFBF9D;"
   d="M173.983,257.523l31.169-2.718l66.414-2.74l39.83-35.357l19.316,70.679l-4.892,38.113       l-159.473,7.672c0,0-5.113-3.825-20.641-6.571c-15.528-2.746,2.556-42.203,2.556-42.203L173.983,257.523z"
   id="path522" />
				</g>
			</g>
			<g
   id="g525">
				<path
   style="fill:#FF725E;"
   d="M145.705,326.601c0,0,4.671,13.316,8.661,27.199c4.089,14.231,14.031,79.209,14.031,79.209      l-15.826,39.861h173.89l-13.246-54.756c0,0,11.757-45.305,14.924-69.44c3.248-24.754,0.978-48.868,0.978-48.868l-41.827-61.7      l-11.947,10.605c0,0,11.322,32.767-2.378,50.852c-13.701,18.085-36.252,22.542-62.556,6.101      c-26.305-16.44-15.133-49.998-15.133-49.998l-8.063,0.703L145.705,326.601z"
   id="path524" />
			</g>
			<g
   id="g527">
				<g
   id="g526">
					<path
   style="fill:#FF9A6C;"
   d="M334.116,232.074c0.017,0.007-0.051,0.215-0.193,0.604c-0.168,0.438-0.382,0.997-0.647,1.689       c-0.294,0.728-0.642,1.622-0.995,2.68c-0.36,1.054-0.817,2.239-1.203,3.587c-0.419,1.338-0.871,2.805-1.265,4.406       c-0.45,1.586-0.801,3.312-1.201,5.12c-0.715,3.634-1.319,7.667-1.646,11.93c-0.294,4.267-0.281,8.345-0.1,12.046       c0.134,1.848,0.232,3.606,0.447,5.241c0.158,1.641,0.393,3.158,0.613,4.543c0.187,1.39,0.467,2.628,0.671,3.724       c0.196,1.098,0.411,2.033,0.596,2.795c0.162,0.723,0.293,1.307,0.395,1.765c0.085,0.405,0.121,0.62,0.104,0.625       c-0.017,0.005-0.088-0.201-0.205-0.598c-0.127-0.452-0.29-1.029-0.491-1.743c-0.216-0.757-0.461-1.688-0.685-2.783       c-0.232-1.093-0.538-2.331-0.749-3.723c-0.245-1.386-0.502-2.907-0.679-4.554c-0.234-1.64-0.349-3.407-0.497-5.263       c-0.209-3.718-0.236-7.82,0.06-12.111c0.329-4.287,0.951-8.341,1.696-11.989c0.415-1.815,0.784-3.546,1.254-5.135       c0.414-1.604,0.889-3.071,1.332-4.407c0.411-1.347,0.893-2.527,1.281-3.575c0.38-1.051,0.757-1.937,1.081-2.655       c0.302-0.677,0.547-1.225,0.738-1.654C334,232.261,334.099,232.067,334.116,232.074z"
   id="path525" />
				</g>
			</g>
			<g
   id="g529">
				<g
   id="g528">
					<path
   style="fill:#263238;"
   d="M290.64,365.679c0.011,0.014-0.206,0.198-0.63,0.534c-0.465,0.361-1.086,0.844-1.867,1.451       c-0.811,0.63-1.813,1.389-2.999,2.238c-1.183,0.853-2.516,1.846-4.037,2.875c-3.008,2.107-6.667,4.506-10.8,7.057       c-4.148,2.526-8.779,5.19-13.742,7.797c-4.975,2.589-9.806,4.872-14.248,6.838c-4.454,1.939-8.512,3.575-11.959,4.843       c-1.713,0.661-3.289,1.189-4.664,1.674c-1.374,0.49-2.569,0.879-3.549,1.185c-0.944,0.295-1.695,0.53-2.257,0.706       c-0.518,0.156-0.792,0.229-0.798,0.212c-0.006-0.017,0.258-0.124,0.765-0.312c0.553-0.198,1.294-0.464,2.224-0.798       c0.969-0.336,2.153-0.753,3.516-1.268c1.365-0.51,2.929-1.062,4.632-1.744c3.425-1.31,7.461-2.979,11.896-4.937       c4.423-1.986,9.237-4.277,14.201-6.86c4.952-2.601,9.58-5.246,13.733-7.745c4.138-2.524,7.812-4.886,10.842-6.951       c1.532-1.008,2.877-1.979,4.075-2.808c1.201-0.825,2.218-1.56,3.048-2.164c0.805-0.574,1.446-1.03,1.925-1.371       C290.391,365.82,290.629,365.665,290.64,365.679z"
   id="path527" />
				</g>
			</g>
		</g>
		<g
   id="g570">
			<g
   id="g532">
				<g
   id="g531">
					<path
   style="fill:#455A64;"
   d="M206.846,94.276c0.024-0.027,0.471,0.316,1.256,0.959c0.79,0.638,1.941,1.548,3.392,2.634       c2.917,2.146,7.099,4.929,12.067,7.356c2.479,1.22,4.907,2.245,7.15,3.082c1.122,0.419,2.199,0.786,3.21,1.119       c1.011,0.333,1.958,0.609,2.84,0.742c1.769,0.303,3.226-0.126,4.051-0.672c0.839-0.545,1.104-1.076,1.148-1.04       c0.011,0.007-0.039,0.142-0.194,0.366c-0.153,0.224-0.419,0.534-0.84,0.842c-0.823,0.626-2.367,1.138-4.215,0.869       c-0.92-0.115-1.897-0.378-2.919-0.695c-1.023-0.317-2.113-0.671-3.246-1.08c-2.267-0.817-4.718-1.837-7.215-3.065       c-5.003-2.445-9.186-5.298-12.059-7.53c-1.43-1.129-2.55-2.086-3.301-2.773C207.223,94.697,206.822,94.302,206.846,94.276z"
   id="path530" />
				</g>
			</g>
			<g
   id="g540">
				<g
   id="g539">
					<g
   id="g538">
						<g
   id="g537">
							<g
   id="g536">
								<g
   id="g535">
									<g
   id="g534">
										<g
   id="g533">
											<path
   style="fill:#FFBF9D;"
   d="M210.407,167.883c0.056-2.27-2.422-7.693-4.654-8.104             c-5.961-1.096-16.764-0.91-17.28,14.291c-0.704,20.779,20.303,17.2,20.36,16.605             C208.878,190.21,210.212,175.722,210.407,167.883z"
   id="path532" />
										</g>
									</g>
								</g>
							</g>
						</g>
					</g>
				</g>
			</g>
			<g
   id="g548">
				<g
   id="g547">
					<g
   id="g546">
						<g
   id="g545">
							<g
   id="g544">
								<g
   id="g543">
									<g
   id="g542">
										<g
   id="g541">
											<path
   style="fill:#FF9A6C;"
   d="M202.753,182.587c-0.089-0.07-0.37,0.241-0.991,0.501             c-0.606,0.252-1.639,0.407-2.708-0.036c-2.168-0.88-3.898-4.427-3.872-8.176c0.011-1.893,0.468-3.681,1.189-5.15             c0.686-1.498,1.704-2.527,2.817-2.685c1.107-0.218,1.868,0.471,2.103,1.064c0.259,0.591,0.113,1.002,0.222,1.04             c0.056,0.055,0.457-0.332,0.319-1.195c-0.072-0.416-0.299-0.915-0.774-1.331c-0.484-0.422-1.21-0.653-1.984-0.597             c-1.607,0.057-3.098,1.482-3.89,3.094c-0.88,1.616-1.439,3.624-1.451,5.749c-0.009,4.192,2.001,8.182,4.977,9.153             c1.448,0.43,2.683,0.031,3.329-0.438C202.699,183.088,202.823,182.627,202.753,182.587z"
   id="path540" />
										</g>
									</g>
								</g>
							</g>
						</g>
					</g>
				</g>
			</g>
			<g
   id="g550">
				<g
   id="g549">
					<path
   style="fill:#455A64;"
   d="M210.134,90.957c0.002-0.018,0.186-0.013,0.537,0.013c0.352,0.018,0.868,0.09,1.523,0.236       c1.31,0.278,3.156,1.064,5.028,2.572c0.931,0.752,1.944,1.57,3.027,2.444c1.096,0.844,2.335,1.696,3.627,2.576       c1.298,0.872,2.719,1.677,4.323,2.212c1.603,0.524,3.326,0.967,5.1,1.188c3.558,0.445,7.064-0.071,9.853-1.426       c2.811-1.334,4.76-3.515,5.838-5.587c1.114-2.078,1.382-4.024,1.381-5.331c-0.007-1.319-0.206-2.038-0.148-2.049       c0.018-0.004,0.069,0.173,0.151,0.516c0.09,0.341,0.167,0.859,0.2,1.529c0.064,1.332-0.153,3.342-1.257,5.504       c-1.063,2.152-3.056,4.445-5.954,5.849c-2.872,1.425-6.482,1.967-10.127,1.511c-1.829-0.229-3.558-0.677-5.203-1.222       c-1.648-0.556-3.123-1.404-4.424-2.296c-1.3-0.902-2.518-1.758-3.627-2.635c-1.101-0.878-2.066-1.754-2.988-2.495       c-1.818-1.522-3.574-2.328-4.85-2.665C210.869,91.057,210.127,91.013,210.134,90.957z"
   id="path548" />
				</g>
			</g>
			<g
   id="g552">
				<g
   id="g551">
					<path
   style="fill:#455A64;"
   d="M209.423,105.977c0.08-0.08,1.247,1.238,3.512,2.893c0.574,0.402,1.194,0.854,1.915,1.252       c0.694,0.444,1.488,0.822,2.317,1.232c1.683,0.761,3.608,1.436,5.697,1.876c2.093,0.424,4.131,0.554,5.979,0.539       c0.925-0.03,1.804-0.062,2.621-0.172c0.822-0.064,1.576-0.214,2.267-0.331c2.756-0.53,4.393-1.166,4.427-1.065       c0.013,0.034-0.389,0.204-1.131,0.485c-0.736,0.297-1.84,0.624-3.223,0.94c-0.696,0.142-1.456,0.315-2.289,0.399       c-0.827,0.13-1.72,0.18-2.661,0.223c-1.88,0.043-3.96-0.076-6.095-0.508c-2.131-0.448-4.092-1.152-5.797-1.952       c-0.839-0.429-1.64-0.829-2.337-1.297c-0.724-0.422-1.342-0.899-1.911-1.326c-0.585-0.406-1.037-0.87-1.466-1.235       c-0.431-0.364-0.762-0.721-1.029-1.015C209.681,106.334,209.397,106.002,209.423,105.977z"
   id="path550" />
				</g>
			</g>
			<g
   id="g554">
				<g
   id="g553">
					<path
   style="fill:#455A64;"
   d="M201.89,108.559c0.026-0.022,0.369,0.338,0.951,1.025c0.577,0.689,1.367,1.729,2.275,3.053       c0.912,1.316,1.955,2.918,3.555,4.267c1.596,1.341,3.6,2.555,5.803,3.545c4.441,1.987,8.983,2.316,12.096,1.757       c3.142-0.555,4.842-1.692,4.89-1.579c0.016,0.027-0.401,0.299-1.198,0.725c-0.814,0.386-2.032,0.896-3.626,1.216       c-3.165,0.668-7.839,0.388-12.372-1.642c-2.255-1.014-4.274-2.253-5.908-3.659c-1.641-1.42-2.679-3.091-3.547-4.425       c-0.867-1.347-1.603-2.409-2.129-3.134C202.151,108.987,201.86,108.584,201.89,108.559z"
   id="path552" />
				</g>
			</g>
			<g
   id="g556">
				<g
   id="g555">
					<path
   style="fill:#455A64;"
   d="M176.228,221.402c-0.022-0.022,0.324-0.338,0.883-1.017c0.567-0.671,1.277-1.783,1.834-3.356       c0.523-1.58,0.865-3.631,0.679-5.998c-0.167-2.366-0.855-5.015-2.182-7.699c-1.29-2.702-3.106-5.447-5.029-8.416       c-1.909-2.963-3.937-6.242-5.068-10.113c-0.554-1.925-0.918-3.986-0.812-6.103c0.083-2.109,0.677-4.272,1.82-6.159       c1.129-1.899,2.716-3.513,4.433-4.959c1.722-1.452,3.605-2.729,5.429-4.105c1.822-1.373,3.561-2.827,4.938-4.548       c1.371-1.71,2.35-3.716,2.697-5.8c0.161-1.041,0.154-2.097-0.053-3.105c-0.206-1.008-0.637-1.951-1.171-2.816       c-1.087-1.733-2.561-3.154-3.864-4.667c-2.655-3.027-4.283-6.625-4.975-10.12c-0.711-3.502-0.531-6.907,0.244-9.835       c0.764-2.943,2.118-5.385,3.532-7.32c1.435-1.932,2.964-3.355,4.298-4.386c1.341-1.029,2.495-1.663,3.282-2.07       c0.398-0.196,0.711-0.326,0.918-0.419c0.208-0.09,0.317-0.132,0.32-0.124c0.004,0.008-0.097,0.067-0.298,0.173       c-0.225,0.117-0.519,0.27-0.892,0.464c-0.767,0.435-1.896,1.092-3.206,2.137c-1.303,1.045-2.794,2.475-4.188,4.398       c-1.373,1.926-2.683,4.344-3.411,7.241c-0.738,2.882-0.893,6.225-0.177,9.656c0.698,3.427,2.304,6.936,4.914,9.892       c1.289,1.491,2.785,2.917,3.924,4.719c0.559,0.9,1.02,1.899,1.243,2.975c0.223,1.073,0.232,2.194,0.063,3.289       c-0.362,2.193-1.379,4.271-2.796,6.043c-1.42,1.777-3.193,3.257-5.029,4.64c-1.837,1.386-3.713,2.657-5.409,4.086       c-1.693,1.422-3.239,2.997-4.329,4.824c-1.102,1.815-1.675,3.88-1.761,5.921c-0.109,2.046,0.239,4.057,0.775,5.945       c1.096,3.798,3.08,7.044,4.972,10.014c1.902,2.972,3.715,5.748,4.997,8.49c1.32,2.722,2,5.437,2.14,7.837       c0.161,2.407-0.217,4.49-0.778,6.086c-0.596,1.589-1.346,2.7-1.945,3.356C176.601,221.116,176.228,221.402,176.228,221.402z"
   id="path554" />
				</g>
			</g>
			<g
   id="g558">
				<g
   id="g557">
					<path
   style="fill:#455A64;"
   d="M205.856,153.515c-0.033-0.02,0.258-0.558,0.778-1.532c0.508-0.977,1.277-2.386,1.909-4.239       c0.613-1.825,1.043-4.249,0.112-6.651c-0.912-2.411-2.98-4.469-5.028-6.67c-2.053-2.208-3.944-4.45-5.131-6.833       c-1.226-2.36-1.617-4.828-1.417-6.822c0.17-2.015,0.918-3.535,1.586-4.424c0.334-0.449,0.635-0.766,0.861-0.953       c0.222-0.193,0.343-0.287,0.354-0.273c0.04,0.041-0.442,0.435-1.049,1.343c-0.599,0.901-1.267,2.387-1.385,4.338       c-0.144,1.938,0.265,4.294,1.478,6.575c1.176,2.303,3.039,4.497,5.086,6.698c2.03,2.187,4.152,4.299,5.095,6.854       c0.962,2.561,0.456,5.098-0.213,6.941c-0.691,1.878-1.517,3.267-2.08,4.218c-0.288,0.474-0.519,0.836-0.683,1.077       C205.965,153.402,205.872,153.524,205.856,153.515z"
   id="path556" />
				</g>
			</g>
			<g
   id="g562">
				<g
   id="g559">
					<path
   style="fill:#263238;"
   d="M315.292,238.106c11.712-11.696-8.218-14.83,4.316-39.598       c7.226-14.278-2.795-38.68-7.125-54.655c-4.868-17.961,3.993-38.422-7.913-52.724c-7.521-9.034-19.895-14.403-32.72-14.397       c-12.556,0.006-15.212,4.582-21.354,7.409l4.369,12.606c8.472-0.424,26.006,2.159,31.363,8.737       c4.503,5.53,6.561,12.831,4.227,19.57c-5.78,16.688-4.444,28.132,4.034,41.128c4.444,6.813,12.581,7.672,16.486,14.808       c4.292,7.844-5.658,26.787-6.093,35.718C304.447,225.639,317.347,229.404,315.292,238.106z"
   id="path558" />
				</g>
				<g
   id="g561">
					<g
   id="g560">
						<path
   style="fill:#455A64;"
   d="M315.292,238.106c-0.084,0.031,0.463-1.25-0.032-3.556c-0.26-1.145-0.904-2.484-1.936-3.864        c-1.023-1.392-2.418-2.826-3.948-4.482c-1.493-1.663-3.254-3.58-4.163-6.237c-0.443-1.318-0.564-2.812-0.368-4.3        c0.173-1.493,0.507-3.018,0.906-4.579c0.805-3.122,1.88-6.397,2.954-9.89c1.063-3.493,2.191-7.205,2.83-11.21        c0.292-1.995,0.491-4.089,0.159-6.169c-0.27-2.098-1.486-3.97-2.956-5.597c-2.964-3.327-7.431-5.091-11.128-8.248        c-0.932-0.779-1.784-1.674-2.55-2.648c-0.762-0.989-1.378-2.059-2.046-3.116c-1.258-2.157-2.494-4.389-3.444-6.797        c-0.96-2.396-1.788-4.905-2.247-7.535c-0.472-2.624-0.664-5.333-0.585-8.072c0.102-2.739,0.501-5.491,1.062-8.239        c0.593-2.743,1.384-5.472,2.299-8.191c0.447-1.352,0.819-2.717,0.973-4.142c0.15-1.42,0.133-2.863-0.043-4.296        c-0.338-2.873-1.379-5.671-2.859-8.222c-0.749-1.265-1.603-2.515-2.62-3.577c-0.978-1.105-2.269-1.905-3.545-2.685        c-2.637-1.459-5.55-2.458-8.522-3.255c-2.98-0.788-6.047-1.353-9.159-1.734c-3.111-0.373-6.276-0.582-9.444-0.458        l-0.195,0.008l-0.063-0.181c-1.384-3.992-2.871-8.28-4.37-12.605l-0.078-0.225l0.215-0.097        c2.551-1.152,4.974-3.013,7.702-4.462c3.133-1.683,6.642-2.562,10.12-2.814c3.482-0.274,6.965-0.15,10.372,0.342        c6.813,0.976,13.305,3.496,18.789,7.291c2.739,1.9,5.221,4.127,7.331,6.636c2.103,2.525,3.701,5.42,4.724,8.469        c2.059,6.134,2.066,12.528,1.946,18.591c-0.153,6.089-0.512,12.027-0.026,17.762c0.247,2.862,0.68,5.668,1.43,8.351        c0.738,2.695,1.536,5.33,2.325,7.919c3.167,10.34,6.112,20.073,6.992,29.295c0.429,4.589,0.326,9.065-0.76,13.11        c-0.153,0.499-0.29,1-0.453,1.488c-0.184,0.481-0.351,0.965-0.547,1.433c-0.421,0.928-0.848,1.824-1.272,2.698        c-0.848,1.755-1.539,3.513-2.12,5.24c-0.568,1.732-0.972,3.447-1.245,5.117c-0.235,1.675-0.318,3.305-0.238,4.861        c0.148,3.125,1.026,5.879,1.909,8.286c0.885,2.403,1.764,4.572,1.836,6.591c0.11,2.015-0.584,3.658-1.281,4.807        c-0.729,1.154-1.402,1.934-1.895,2.447C315.595,237.798,315.4,237.997,315.292,238.106c0.104-0.116,0.293-0.327,0.707-0.789        c0.452-0.501,1.128-1.306,1.831-2.454c0.677-1.149,1.341-2.77,1.216-4.746c-0.085-1.981-0.968-4.125-1.871-6.529        c-0.899-2.406-1.801-5.183-1.966-8.342c-0.089-1.573-0.012-3.221,0.219-4.915c0.269-1.687,0.67-3.419,1.236-5.167        c0.579-1.742,1.269-3.515,2.115-5.282c0.426-0.885,0.85-1.783,1.258-2.69c0.191-0.462,0.354-0.939,0.534-1.413        c0.159-0.482,0.293-0.976,0.442-1.469c1.059-3.994,1.151-8.43,0.713-12.99c-0.897-9.165-3.853-18.869-7.039-29.203        c-0.793-2.589-1.597-5.226-2.341-7.928c-0.761-2.71-1.204-5.547-1.456-8.43c-0.497-5.778-0.143-11.735,0.003-17.812        c0.115-6.051,0.093-12.394-1.937-18.42c-1.008-2.996-2.575-5.83-4.639-8.306c-2.081-2.47-4.53-4.666-7.235-6.54        c-5.416-3.743-11.836-6.235-18.573-7.198c-3.367-0.486-6.816-0.608-10.253-0.337c-3.435,0.251-6.851,1.109-9.921,2.756        c-2.671,1.416-5.113,3.291-7.727,4.474l0.137-0.321c1.499,4.326,2.985,8.614,4.368,12.606l-0.257-0.174        c3.216-0.125,6.398,0.088,9.532,0.465c3.133,0.386,6.221,0.956,9.228,1.752c2.999,0.807,5.943,1.815,8.638,3.308        c1.309,0.8,2.632,1.621,3.664,2.782c1.063,1.116,1.914,2.368,2.683,3.668c1.51,2.605,2.572,5.466,2.917,8.413        c0.179,1.47,0.195,2.952,0.04,4.411c-0.158,1.459-0.547,2.882-1,4.244c-0.913,2.703-1.702,5.414-2.293,8.134        c-0.559,2.725-0.958,5.449-1.062,8.157c-0.081,2.707,0.104,5.382,0.567,7.974c0.449,2.597,1.264,5.078,2.21,7.451        c0.936,2.384,2.158,4.6,3.403,6.744c0.661,1.049,1.278,2.124,2.012,3.079c0.745,0.951,1.574,1.825,2.487,2.592        c3.613,3.109,8.106,4.892,11.142,8.303c0.775,0.819,1.413,1.744,1.973,2.694c0.569,0.958,0.894,2.037,1.063,3.103        c0.336,2.146,0.125,4.265-0.176,6.28c-0.656,4.039-1.8,7.755-2.876,11.249c-1.086,3.493-2.173,6.761-2.987,9.867        c-0.767,3.079-1.494,6.121-0.582,8.738c0.872,2.598,2.602,4.514,4.082,6.182c1.516,1.662,2.907,3.112,3.925,4.524        c1.028,1.4,1.667,2.764,1.915,3.927c0.258,1.165,0.196,2.084,0.119,2.682c-0.039,0.297-0.102,0.508-0.131,0.662        C315.318,237.987,315.304,238.051,315.292,238.106z"
   id="path559" />
					</g>
				</g>
			</g>
			<g
   id="g564">
				<g
   id="g563">
					<path
   style="fill:#455A64;"
   d="M311.065,207.996c-0.008-0.003,0.037-0.147,0.133-0.424c0.107-0.298,0.253-0.705,0.439-1.226       c0.389-1.076,0.963-2.663,1.66-4.721c0.684-2.061,1.484-4.598,2.178-7.6c0.679-2.997,1.283-6.484,1.159-10.354       c-0.034-1.931-0.296-3.95-0.828-5.985c-0.492-2.048-1.359-4.079-2.486-6.044c-2.232-3.97-5.611-7.539-9.022-11.373       c-1.706-1.924-3.435-3.93-4.979-6.156c-1.539-2.221-2.884-4.696-3.635-7.437c-0.784-2.735-0.796-5.696-0.326-8.563       c0.478-2.88,1.448-5.688,2.584-8.434c2.288-5.482,5.109-10.6,6.423-16.014c0.648-2.695,0.865-5.434,0.535-8.072       c-0.371-2.629-1.362-5.093-2.734-7.226c-2.77-4.288-6.867-7.24-10.972-9.114c-4.146-1.883-8.404-2.56-12.263-2.682       c-3.871-0.12-7.376,0.255-10.416,0.744c-3.043,0.49-5.638,1.074-7.752,1.57c-2.091,0.514-3.724,0.915-4.86,1.194       c-0.538,0.132-0.957,0.235-1.264,0.311c-0.286,0.067-0.433,0.097-0.435,0.089c-0.002-0.009,0.141-0.056,0.422-0.14       c0.304-0.088,0.719-0.207,1.251-0.361c1.103-0.307,2.729-0.761,4.839-1.29c2.11-0.527,4.703-1.141,7.753-1.66       c3.047-0.518,6.569-0.922,10.474-0.825c3.889,0.099,8.214,0.762,12.428,2.656c4.172,1.885,8.349,4.866,11.199,9.248       c1.41,2.179,2.436,4.71,2.823,7.416c0.345,2.71,0.125,5.519-0.532,8.261c-1.333,5.508-4.167,10.645-6.439,16.094       c-1.128,2.728-2.084,5.498-2.554,8.319c-0.461,2.809-0.453,5.683,0.307,8.345c0.727,2.669,2.037,5.095,3.552,7.289       c1.519,2.199,3.232,4.196,4.929,6.119c3.394,3.836,6.788,7.438,9.039,11.478c1.136,1.999,2.01,4.074,2.5,6.157       c0.531,2.071,0.784,4.121,0.807,6.075c0.101,3.917-0.534,7.424-1.243,10.43c-0.724,3.011-1.556,5.545-2.27,7.6       c-0.727,2.051-1.333,3.627-1.753,4.692c-0.207,0.513-0.369,0.914-0.488,1.208C311.135,207.862,311.074,207.999,311.065,207.996       z"
   id="path562" />
				</g>
			</g>
			<g
   id="g565">
				<path
   style="fill:#263238;"
   d="M154.366,239.364c4.182,5.819,8.421,11.746,10.752,18.523c2.331,6.777,2.521,14.649-1.19,20.779      c-1.876,3.1-4.643,5.61-6.344,8.809c-3.8,7.147-1.468,16.071,2.492,23.131c3.96,7.06,9.457,13.284,12.441,20.809      c2.983,7.525,2.697,17.29-3.593,22.385c11.507-0.636,21.925-10.062,23.705-21.448c3.127,5.456,3.545,12.38,1.098,18.173      c10.354-8.163,15.661-22.26,13.262-35.224c-1.368-7.392-5.03-14.485-4.52-21.985c0.362-5.323,2.806-10.259,4.057-15.446      c4.64-19.242-7.413-39.394-3.587-58.814"
   id="path564" />
			</g>
			<g
   id="g567">
				<g
   id="g566">
					<path
   style="fill:#455A64;"
   d="M186.217,275.818c-0.02-0.047,0.625-0.148,1.609-0.801c0.975-0.642,2.192-2.025,2.804-4.193       c0.308-1.074,0.477-2.322,0.423-3.681c-0.058-1.359-0.411-2.811-0.926-4.32c-0.509-1.513-1.2-3.082-1.887-4.77       c-0.676-1.687-1.385-3.51-1.689-5.533c-0.344-2.006-0.413-4.164-0.14-6.368c0.265-2.206,0.797-4.457,1.481-6.738       c1.349-4.57,3.371-9.25,4.684-14.404c1.307-5.137,1.519-10.845,0.288-16.49c-0.592-2.824-1.548-5.622-2.854-8.3       c-1.272-2.7-3.028-5.176-4.857-7.653c-1.82-2.481-3.652-4.952-5.001-7.677c-1.335-2.709-2.057-5.792-1.543-8.74       c0.485-2.952,2.032-5.525,3.773-7.716c1.755-2.207,3.732-4.123,5.603-6.02c1.867-1.89,3.554-3.875,4.869-6.008       c1.301-2.13,2.18-4.465,2.25-6.8c0.058-2.341-0.763-4.527-1.926-6.366c-1.15-1.858-2.532-3.468-3.737-5.095       c-1.228-1.607-2.255-3.285-2.899-5.009c-0.656-1.717-0.986-3.434-1.103-5.044c-0.24-3.236,0.425-6.016,1.232-8.123       c0.853-2.107,1.846-3.591,2.615-4.499c0.763-0.916,1.235-1.331,1.235-1.331s-0.092,0.128-0.291,0.359       c-0.187,0.241-0.522,0.55-0.862,1.037c-0.738,0.923-1.694,2.412-2.508,4.507c-0.769,2.095-1.395,4.846-1.131,8.029       c0.129,1.584,0.467,3.268,1.122,4.947c0.644,1.684,1.655,3.315,2.885,4.908c1.206,1.609,2.601,3.214,3.784,5.104       c1.195,1.866,2.069,4.145,2.016,6.588c-0.063,2.436-0.969,4.85-2.29,7.028c-1.336,2.182-3.04,4.196-4.918,6.107       c-1.871,1.907-3.831,3.816-5.555,5.992c-1.711,2.161-3.199,4.664-3.66,7.491c-0.487,2.825,0.2,5.778,1.505,8.429       c1.321,2.664,3.134,5.114,4.956,7.597c1.826,2.473,3.613,4.993,4.902,7.734c1.323,2.717,2.291,5.556,2.887,8.42       c1.241,5.723,1.015,11.516-0.322,16.714c-1.341,5.204-3.379,9.876-4.736,14.411c-0.688,2.263-1.224,4.488-1.495,6.661       c-0.28,2.172-0.222,4.289,0.104,6.259c0.285,1.984,0.972,3.785,1.634,5.471c0.673,1.686,1.355,3.267,1.856,4.801       c0.507,1.527,0.854,3.011,0.898,4.403c0.04,1.389-0.148,2.658-0.477,3.749c-0.653,2.202-1.928,3.598-2.94,4.223       c-0.504,0.323-0.929,0.506-1.223,0.588C186.37,275.784,186.217,275.818,186.217,275.818z"
   id="path565" />
				</g>
			</g>
			<g
   id="g569">
				<g
   id="g568">
					<path
   style="fill:#455A64;"
   d="M176.782,344.531c-0.095-0.068,1.557-1.051,2.965-3.961c1.392-2.839,2.141-7.789,0.18-13.208       c-0.967-2.699-2.527-5.453-4.429-8.246c-1.889-2.806-4.139-5.653-6.218-8.872c-2.041-3.217-3.983-6.858-4.7-11.024       c-0.185-1.034-0.272-2.097-0.263-3.168l0.019-0.805l0.091-0.803c0.08-0.533,0.081-1.082,0.227-1.607       c0.382-2.147,1.236-4.196,2.192-6.188c1.959-3.984,4.516-7.471,6.51-11.089c1.02-1.796,1.904-3.626,2.523-5.502       c0.348-0.928,0.542-1.884,0.75-2.826c0.102-0.471,0.117-0.952,0.179-1.423c0.058-0.473,0.107-0.943,0.094-1.414       c0.045-3.784-1.197-7.261-2.503-10.356c-1.326-3.111-2.774-5.926-3.832-8.626c-1.049-2.703-1.659-5.279-1.882-7.575       c-0.201-2.299,0-4.309,0.445-5.873c0.439-1.572,1.102-2.667,1.568-3.376c0.253-0.343,0.468-0.589,0.604-0.759       c0.14-0.167,0.214-0.25,0.221-0.244c0.104,0.049-1.342,1.314-2.197,4.432c-0.408,1.547-0.576,3.526-0.351,5.791       c0.248,2.263,0.875,4.802,1.935,7.469c1.069,2.665,2.535,5.469,3.886,8.591c1.33,3.106,2.617,6.633,2.586,10.53       c0.014,0.485-0.033,0.969-0.091,1.455c-0.062,0.485-0.077,0.981-0.18,1.464c-0.21,0.967-0.408,1.949-0.76,2.897       c-0.628,1.919-1.524,3.78-2.549,5.592c-2.009,3.654-4.559,7.141-6.489,11.071c-0.942,1.963-1.779,3.971-2.151,6.057       c-0.143,0.511-0.143,1.043-0.222,1.56l-0.09,0.779l-0.019,0.78c-0.011,1.038,0.072,2.071,0.251,3.079       c0.69,4.058,2.588,7.655,4.601,10.851c2.049,3.197,4.288,6.057,6.172,8.889c1.897,2.818,3.459,5.616,4.418,8.363       c1.951,5.533,1.127,10.56-0.344,13.421c-0.724,1.459-1.555,2.433-2.157,3.033c-0.3,0.303-0.565,0.496-0.728,0.64       C176.876,344.471,176.787,344.538,176.782,344.531z"
   id="path567" />
				</g>
			</g>
		</g>
	</g>
</g>
</svg>
