<?xml version="1.0" encoding="utf-8"?>
<!-- Generator: Adobe Illustrator 27.5.0, SVG Export Plug-In . SVG Version: 6.00 Build 0)  -->
<svg version="1.1" id="Слой_1" xmlns="http://www.w3.org/2000/svg" xmlns:xlink="http://www.w3.org/1999/xlink" x="0px" y="0px"
	 viewBox="0 0 2000 2000" style="enable-background:new 0 0 2000 2000;" xml:space="preserve">
<g>
	
	<path style="fill:#EFA26F;" d="M1432.771,997.383c0,0-95.231,190.511-191.966,322.02c-38.489,52.341-77.22,95.327-110.274,113.256
		c-32.356,17.543-59.747,44.802-82.413,75.006c-58.702,78.206-85.793,176.118-85.793,176.118l-247.361-374.228
		c0,0,8.441-365.812,38.141-427.003c43.287-89.171,64.197-269.341,80.827-305.21c12.337-26.609,47.567-164.058,50.946-174.158
		c1.467-4.353,13.19-11.026,28.413-11.014c12.217,0,32.958,11.808,38.189,36.073c26.453,122.647-5.387,203.545-5.026,207.14
		c9.331,94.258-18.722,164.226,0.95,182.755c0.734,0.686,2.092,0.361,4.017-0.866c34.1-21.896,245.75-330.46,271.818-337.122
		C1250.772,473.129,1432.771,997.383,1432.771,997.383z"/>
	<path style="fill:#F99746;" d="M1036.742,1609.72c0,0-3.368,166.301-13.013,390.28H399.782
		c142.623-304.14,266.616-560.124,266.616-560.124S1021.666,1450.727,1036.742,1609.72z"/>
	<path style="fill:#FFB27D;" d="M1649.04,352.626l-76.602,112.296l-75.167,110.203c-4.582,5.53-9.888,7.452-15.628,6.899
		c-18.038-1.712-40.355-27.729-57.748-42.132l-1.765-1.449c-22.936-18.973-26.175-53.258-7.202-76.181l114.89-138.879v-0.013
		l34.075-41.185c18.973-22.936,53.258-26.175,76.181-7.202l1.764,1.448C1664.774,295.405,1668.014,329.69,1649.04,352.626z"/>
	<path style="fill:#EFA26F;" d="M1572.438,464.922l-75.167,110.203c-4.582,5.53-9.888,7.452-15.628,6.899l48.175-258.641
		C1529.924,324.832,1538.113,440.88,1572.438,464.922z"/>
	<path style="fill:#D38254;" d="M1240.805,1319.402c-38.489,52.341-77.22,95.327-110.274,113.256
		c-32.356,17.543-59.747,44.802-82.413,75.006c-26.071-12.151-55.789-26.411-84.837-40.529
		c-35.372-17.191-36.729-67.417-2.083-86.03c0.338-0.182,0.67-0.366,0.995-0.552c32.465-18.577,65.732-84.169,65.732-84.169
		L1240.805,1319.402z"/>
	<path style="fill:#FFC197;" d="M883.154,408.875l-20.042,80.915c0,0,17.521,7.168,28.773,1.603
		C903.137,485.827,912.318,413.231,883.154,408.875z"/>
	<g>
		<path style="fill:#2B478B;" d="M1459.535,1357.638h-430.978c-42.392,0-77.076-34.685-77.076-77.077V333.247
			c0-42.392,34.685-77.077,77.076-77.077h430.978c42.392,0,77.076,34.685,77.076,77.077v947.314
			C1536.611,1322.953,1501.927,1357.638,1459.535,1357.638z"/>
		<g>
			<path style="fill:#C0D8FB;" d="M1507.613,340.543v925.356c0,31.394-25.503,57.072-56.656,57.072h-413.825
				c-31.153,0-56.645-25.679-56.645-57.072V340.543c0-31.393,25.492-57.071,56.645-57.071h413.825
				C1482.11,283.471,1507.613,309.149,1507.613,340.543z"/>
			<path style="fill:#CBE1FD;" d="M1450.957,283.471l-408.705,1039.5h-5.12c-31.153,0-56.645-25.679-56.645-57.072V340.543
				c0-31.393,25.492-57.071,56.645-57.071H1450.957z"/>
		</g>
		<path style="fill:#2B478B;" d="M1330.528,317.884h-172.957c-14.088,0-25.615-11.527-25.615-25.616v-4.027
			c0-14.089,11.527-25.616,25.615-25.616h172.957c14.088,0,25.615,11.527,25.615,25.616v4.027
			C1356.144,306.356,1344.616,317.884,1330.528,317.884z"/>
	</g>
	<g>
		<path style="fill:#FFB27D;" d="M1610.908,776.696l-11.423,4.341l-76.815,29.191c-1.8,0.684-3.623,1.268-5.444,1.725
			c-25.437,6.611-52.499-6.948-62.036-32.047l-1.126-2.95c-10.221-26.899,3.421-57.272,30.32-67.493l71.612-27.21l5.203-1.981
			l11.424-4.341c26.899-10.221,57.26,3.422,67.48,30.322l1.126,2.95C1651.45,736.102,1637.808,766.476,1610.908,776.696z"/>
		<path style="fill:#FFD3B6;" d="M1548.528,778.458c-12.819,4.858-36.029,13.479-48.441,15.262
			c-3.51,0.506-9.983-1.404-16.021-8.017c-3.623-3.96-7.091-9.604-9.66-17.425c-1.208-3.679-2.205-7.343-2.626-11.121
			c-0.478-4.423-0.351-8.846,0.421-13.227c0.702-3.945,3.398-7.54,7.33-9.435c0.014-0.014,0.042-0.014,0.056-0.028
			c13.198-6.305,30.988-13.985,46.588-18.268c10.783-2.977,21.693,1.783,25.105,11.219l1.614,4.409l8.242,22.578
			C1564.549,763.786,1559.003,774.513,1548.528,778.458z"/>
		<path style="fill:#FFC197;" d="M1548.528,778.458c-12.819,4.858-36.029,13.479-48.441,15.262
			c-3.51,0.506-9.983-1.404-16.021-8.017c-0.646-1.502-1.236-3.089-1.797-4.788c-1.208-3.679-2.205-7.343-2.626-11.121
			c-0.478-4.423-0.352-8.846,0.421-13.227c0.702-3.945,3.398-7.54,7.329-9.436c0.015-0.014,0.042-0.014,0.057-0.028
			c13.198-6.304,30.988-13.985,46.588-18.267c6.908-1.91,13.858-0.646,18.856,2.99l8.242,22.578
			C1564.549,763.786,1559.003,774.513,1548.528,778.458z"/>
	</g>
	<g>
		<path style="fill:#FFB27D;" d="M1576.053,884.692l-59.237,16.127c-18,4.9-36.736-5.817-41.637-23.817l-1.825-6.705
			c-4.9-18,5.816-36.736,23.816-41.637l59.237-16.127c18-4.9,36.736,5.817,41.637,23.817l1.825,6.705
			C1604.77,861.055,1594.052,879.792,1576.053,884.692z"/>
		<path style="fill:#FFD3B6;" d="M1544.021,881.786c-10.882,2.907-30.554,8.032-40.859,8.593
			c-3.749,0.211-11.261-2.963-16.161-12.819c-1.208-2.387-2.232-5.153-3.033-8.354c-0.716-2.906-1.264-5.785-1.319-8.706
			c-0.07-3.44,0.365-6.824,1.319-10.137c0.856-2.991,3.342-5.575,6.698-6.768c0.027-0.014,0.041-0.014,0.056-0.028
			c11.289-3.988,26.453-8.748,39.567-11.036c9.057-1.587,17.649,2.766,19.77,10.235l1.53,5.336l4.563,16.02
			C1558.258,871.536,1552.909,879.427,1544.021,881.786z"/>
		<path style="fill:#FFC197;" d="M1544.021,881.786c-10.882,2.907-30.554,8.032-40.859,8.593
			c-3.749,0.211-11.261-2.963-16.161-12.819c-0.66-2.71-1.138-5.42-1.193-8.172c-0.07-3.426,0.364-6.824,1.319-10.138
			c0.856-2.977,3.342-5.574,6.697-6.768c0.028-0.014,0.043-0.014,0.057-0.028c11.289-3.987,26.453-8.748,39.567-11.022
			c7.498-1.32,14.687,1.446,18.141,6.669l4.563,16.02C1558.258,871.536,1552.909,879.427,1544.021,881.786z"/>
	</g>
	<path style="fill:#ED7D2B;" d="M605.655,1566.051c0,0,121.928,116.779,204.123,161.867l62.233-44.14v65.115
		c0,0,122.391,21.644,160.996,0V1571.32l-343.763-172.33L605.655,1566.051z"/>
	<path style="fill:#F3F8FF;" d="M714.969,1296.384c0,0-77.43,115.833-154.384,239.682c0,0,162.177,111.568,250.102,144.29
		l115.329-132.084l-16.463,158.998c0,0,102.064,37.204,149.418,27.489c0,0-2.991-144.241-2.958-238.744
		C1056.014,1496.015,775.438,1417.372,714.969,1296.384z"/>
	<path style="fill:#F99746;" d="M734.014,1590.34c0.098-10.602,8.772-19.116,19.374-19.019c10.602,0.099,19.117,8.772,19.019,19.374
		s-8.772,19.116-19.374,19.019C742.431,1609.615,733.916,1600.941,734.014,1590.34z"/>
	<g>
		<path style="fill:#FFB27D;" d="M1609.039,663.168c-0.421,0.155-0.842,0.295-1.277,0.435l-77.66,19.938
			c-34.148,8.776-69.461-9.702-78.476-41.056l-4.619-16.063c-8.663-30.104,9.955-61.583,41.688-71.791l25.639-6.585l52.022-13.353
			c34.146-8.775,69.46,9.703,78.475,41.056l4.619,16.063C1657.986,621.509,1639.985,652.525,1609.039,663.168z"/>
		<path style="fill:#FFD3B6;" d="M1573.451,641.489l-37.729,17.003c-0.056,0.014-0.126,0.028-0.238,0.056
			c-1.517,0.407-3.047,0.716-4.563,0.94c-0.632,0.099-1.277,0.169-1.91,0.239c-0.267,0.028-0.533,0.028-0.8,0.014
			c-4.156-0.141-7.006-4.549-5.209-8.481c3.566-7.765,4.535-16.751,2.134-25.583l-0.898-3.285c0-0.028-0.015-0.07-0.028-0.099
			l-2.92-10.713c-2.317-8.537-7.245-15.684-13.676-20.851c-0.772-0.632-1.573-1.222-2.388-1.783
			c-7.456-5.167-5.56-16.863,3.174-19.293c0.084-0.028,0.154-0.042,0.238-0.07l41.407-6.262c10.235-2.78,20.092,5.097,22.887,15.333
			l3.327,12.202l7.077,26.018C1586.115,627.125,1583.687,638.709,1573.451,641.489z"/>
		<path style="fill:#FFC197;" d="M1573.451,641.489l-37.729,17.003c-0.056,0.014-0.126,0.028-0.238,0.056
			c-0.885,0.168-3.65,0.632-7.273,1.193c-4.156-0.141-7.006-4.549-5.209-8.481c3.566-7.765,4.535-16.751,2.134-25.583l-0.898-3.285
			c0-0.028-0.015-0.07-0.028-0.099l-2.92-10.713c-2.317-8.537-7.245-15.684-13.676-20.851c1.334-1.952,3.327-3.496,5.939-4.227
			c0.069-0.028,0.154-0.042,0.238-0.07l41.406-6.263c8.621-2.345,16.962,2.879,21.062,10.686l7.077,26.018
			C1586.115,627.125,1583.687,638.709,1573.451,641.489z"/>
	</g>
	<path style="fill:#D38254;" d="M951.479,1067.123c0,0-16.942-147.897-32.574-176.731c-15.631-28.846-28.858-86.598-4.81-129.512
		c24.048-42.926,32.357-125.497,32.357-125.497c9.331,94.258-18.722,164.226,0.95,182.755c0.734,0.686,2.092,0.361,4.017-0.866
		L951.479,1067.123z"/>
</g>
</svg>
